<?xml version="1.0" standalone="no"?>
<!DOCTYPE svg PUBLIC "-//W3C//DTD SVG 20010904//EN"
 "http://www.w3.org/TR/2001/REC-SVG-20010904/DTD/svg10.dtd">
<svg version="1.0" xmlns="http://www.w3.org/2000/svg"
 width="700.000000pt" height="700.000000pt" viewBox="0 0 700.000000 700.000000"
 preserveAspectRatio="xMidYMid meet">
<metadata>
Created by potrace 1.14, written by Peter Selinger 2001-2017
</metadata>
<g transform="translate(0.000000,700.000000) scale(0.100000,-0.100000)"
fill="#000000" stroke="none">
<path d="M541 6989 c-269 -53 -471 -250 -525 -512 -14 -68 -16 -384 -16 -2977
0 -2593 2 -2909 16 -2977 47 -230 212 -414 438 -491 l81 -27 2965 0 2965 0 81
28 c199 67 354 222 422 421 l27 81 0 2965 0 2965 -27 81 c-77 227 -261 391
-491 438 -68 14 -382 16 -2984 15 -1601 -1 -2928 -5 -2952 -10z m1839 -2049
l0 -750 -697 2 -698 3 -3 735 c-1 404 0 741 3 748 3 9 153 12 700 12 l695 0 0
-750z m3635 0 l0 -745 -852 -3 -853 -2 0 -1440 0 -1440 -795 0 -795 0 0 2190
0 2190 1648 -2 1647 -3 0 -745z"/>
</g>
</svg>
