<svg width="680" height="498" viewBox="0 0 680 498" fill="none" xmlns="http://www.w3.org/2000/svg">
  <path d="M278.299 35.565L280.1 33.1883L280.697 33.6413L281.149 33.0448L281.776 33.5098L282.223 32.9076L284.668 34.7228L284.221 35.3251L286.667 37.1403L287.114 36.538L289.56 38.3532L289.113 38.9555L291.558 40.7707L292.005 40.1685L294.451 41.9837L294.004 42.5859L296.45 44.4011L296.897 43.7989L299.342 45.6141L298.895 46.2164L301.341 48.0316L301.788 47.4293L304.234 49.2445L303.787 49.8468L306.232 51.662L306.679 51.0598L309.125 52.875L308.678 53.4772L311.124 55.2925L311.571 54.6902L314.016 56.5054L313.569 57.1077L316.015 58.9229L316.462 58.3206L318.908 60.1359L318.461 60.7381L320.906 62.5533L321.353 61.9511L323.799 63.7663L323.352 64.3685L325.798 66.1838L326.245 65.5815L328.69 67.3967L328.243 67.999L330.689 69.8142L331.136 69.212L333.582 71.0272L333.135 71.6294L335.58 73.4446L336.027 72.8424L338.473 74.6576L338.026 75.2599L340.471 77.0751L340.918 76.4728L343.364 78.288L342.917 78.8903L345.363 80.7055L345.81 80.1033L348.255 81.9185L347.808 82.5207L350.254 84.3359L350.701 83.7337L353.147 85.5489L352.7 86.1512L355.145 87.9664L355.592 87.3641L358.038 89.1794L357.591 89.7816L360.037 91.5968L360.484 90.9946L362.929 92.8098L362.482 93.412L364.928 95.2272L365.375 94.625L367.821 96.4402L367.374 97.0425L369.819 98.8577L370.266 98.2554L372.712 100.071L372.265 100.673L374.711 102.488L375.158 101.886L377.603 103.701L377.156 104.303L379.602 106.119L380.049 105.516L382.495 107.332L382.048 107.934L384.493 109.749L384.94 109.147L387.386 110.962L386.939 111.564L389.385 113.379L389.832 112.777L392.277 114.592L391.83 115.195L392.446 115.652L391.999 116.245L392.598 116.697L390.793 119.091L390.194 118.639L388.389 121.033L388.988 121.485L387.183 123.878L386.584 123.427L384.78 125.821L385.378 126.272L383.574 128.666L382.975 128.215L381.17 130.608L381.769 131.06L379.964 133.454L379.365 133.002L377.56 135.396L378.159 135.848L376.354 138.241L375.756 137.79L373.951 140.184L374.55 140.635L372.745 143.029L372.146 142.578L370.341 144.971L370.94 145.423L369.135 147.817L368.536 147.365L366.732 149.759L367.331 150.211L365.526 152.604L364.927 152.153L363.122 154.547L363.721 154.998L361.916 157.392L361.317 156.941L359.512 159.334L360.111 159.786L358.307 162.18L357.708 161.728L355.903 164.122L356.502 164.574L354.697 166.967L354.098 166.516L352.293 168.91L352.892 169.361L351.087 171.755L350.488 171.304L348.684 173.697L349.283 174.149L347.478 176.543L346.879 176.091L345.074 178.485L345.673 178.937L343.868 181.33L343.269 180.879L341.465 183.273L342.063 183.724L340.259 186.118L339.66 185.667L337.855 188.06L338.454 188.512L336.649 190.906L336.05 190.454L334.245 192.848L334.844 193.3L333.039 195.693L332.441 195.242L330.636 197.636L331.235 198.087L329.43 200.481L328.831 200.03L327.026 202.423L327.625 202.875L325.82 205.269L325.221 204.817L323.417 207.211L324.015 207.663L322.211 210.056L321.612 209.605L319.807 211.999L320.406 212.45L318.601 214.844L318.002 214.393L316.197 216.786L316.796 217.238L314.991 219.632L314.393 219.18L312.588 221.574L313.187 222.026L311.382 224.419L310.783 223.968L308.978 226.362L309.577 226.813L307.772 229.207L307.173 228.756L305.369 231.149L305.967 231.601L304.163 233.995L303.564 233.543L301.759 235.937L302.358 236.389L300.553 238.783L299.954 238.331L298.149 240.725L298.748 241.176L296.944 243.57L296.345 243.119L294.54 245.512L295.139 245.964L293.334 248.358L292.735 247.906L290.93 250.3L291.529 250.752L289.724 253.146L289.125 252.694L287.321 255.088L287.92 255.539L286.115 257.933L285.516 257.482L283.711 259.876L284.31 260.327L282.505 262.721L281.906 262.269L280.102 264.663L280.7 265.115L278.896 267.509L278.297 267.057L276.492 269.451L277.091 269.902L275.286 272.296L274.687 271.845L272.882 274.239L273.481 274.69L271.676 277.084L271.078 276.632L269.273 279.026L269.872 279.478L268.067 281.872L267.468 281.42L265.663 283.814L266.262 284.265L264.457 286.659L263.858 286.208L262.054 288.602L262.652 289.053L260.848 291.447L260.249 290.995L258.444 293.389L259.043 293.841L257.238 296.235L256.639 295.783L254.834 298.177L255.433 298.628L253.628 301.022L253.03 300.571L251.225 302.965L251.824 303.416L250.019 305.81L249.42 305.358L247.615 307.752L248.214 308.204L246.409 310.598L245.81 310.146L244.006 312.54L244.604 312.991L242.8 315.385L242.201 314.934L240.396 317.328L240.995 317.779L239.19 320.173L238.591 319.721L236.786 322.115L237.385 322.567L235.58 324.961L234.982 324.509L233.177 326.903L233.776 327.354L231.971 329.748L231.372 329.297L229.567 331.691L230.166 332.142L228.361 334.536L227.762 334.084L225.958 336.478L226.557 336.93L224.752 339.324L224.153 338.872L222.348 341.266L222.947 341.717L221.142 344.111L220.543 343.66L218.738 346.054L219.337 346.505L217.533 348.899L216.934 348.447L215.129 350.841L215.728 351.293L213.923 353.687L213.324 353.235L211.519 355.629L212.118 356.08L210.313 358.474L209.714 358.023L207.91 360.417L208.509 360.868L206.704 363.262L206.105 362.81L204.3 365.204L204.899 365.656L203.094 368.05L202.495 367.598L200.691 369.992L201.289 370.443L199.485 372.837L198.886 372.386L197.081 374.78L197.68 375.231L195.875 377.625L195.276 377.173L193.471 379.567L194.07 380.019L192.265 382.413L191.667 381.961L189.862 384.355L190.461 384.806L188.656 387.2L188.057 386.749L186.252 389.143L186.851 389.594L185.046 391.988L184.447 391.536L182.643 393.93L183.241 394.382L181.437 396.776L180.838 396.324L179.033 398.718L179.632 399.17L177.827 401.563L177.228 401.112L175.423 403.506L176.022 403.957L174.217 406.351L173.619 405.9L171.814 408.293L172.413 408.745L170.608 411.139L170.009 410.687L168.204 413.081L168.803 413.533L166.998 415.926L166.399 415.475L164.595 417.869L165.193 418.32L163.389 420.714L162.79 420.263L160.985 422.656L161.584 423.108L159.779 425.502L159.18 425.05L157.375 427.444L157.974 427.896L156.17 430.289L155.571 429.838L153.766 432.232L154.365 432.683L152.56 435.077L151.961 434.626L150.156 437.019L150.755 437.471L148.95 439.865L148.351 439.413L146.547 441.807L147.146 442.259L145.341 444.652L144.742 444.201L142.937 446.595L143.536 447.046L141.731 449.44L141.132 448.989L139.327 451.382L139.926 451.834L138.122 454.228L137.523 453.776L135.718 456.17L136.317 456.622L134.512 459.015L133.913 458.564L132.108 460.958L132.707 461.409L130.902 463.803L130.304 463.352L129.803 464.016L129.1 463.605L128.721 464.253L126.164 462.758L126.543 462.11L123.985 460.616L123.607 461.263L121.049 459.768L121.428 459.121L118.871 457.626L118.492 458.273L115.935 456.779L116.313 456.131L113.756 454.636L113.378 455.284L110.82 453.789L111.199 453.142L108.642 451.647L108.263 452.294L105.706 450.799L106.084 450.152L103.527 448.657L103.148 449.305L100.591 447.81L100.97 447.162L98.4123 445.668L98.0339 446.315L95.4766 444.82L95.855 444.173L93.2978 442.678L92.9193 443.326L90.362 441.831L90.7405 441.183L88.1832 439.688L87.8047 440.336L85.2474 438.841L85.6259 438.194L83.0686 436.699L82.6901 437.346L80.1328 435.852L80.5113 435.204L77.954 433.709L77.5755 434.357L75.0182 432.862L75.3967 432.214L72.8394 430.72L72.4609 431.367L69.9036 429.872L70.2821 429.225L67.7248 427.73L67.3463 428.378L64.7891 426.883L65.1675 426.235L62.6102 424.741L62.2318 425.388L59.6745 423.893L60.0529 423.246L57.4957 421.751L57.1172 422.398L54.5599 420.904L54.9384 420.256L52.3811 418.761L52.0026 419.409L49.4453 417.914L49.8238 417.267L47.2665 415.772L46.888 416.419L44.3307 414.924L44.7092 414.277L42.1519 412.782L41.7734 413.43L39.2161 411.935L39.5946 411.287L37.0373 409.793L36.6589 410.44L34.1016 408.945L34.48 408.298L31.9228 406.803L31.5443 407.451L28.987 405.956L29.3655 405.308L26.8082 403.813L26.4297 404.461L23.8724 402.966L24.2509 402.319L21.6936 400.824L21.3151 401.471L18.7578 399.977L19.1363 399.329L16.579 397.834L16.2005 398.482L13.6432 396.987L14.0217 396.339L11.4644 394.845L11.0859 395.492L8.52864 393.997L8.90712 393.35L8.35838 393.029L8.74862 392.514L8.15086 392.061L9.95185 389.685L10.5496 390.138L12.3506 387.761L11.7528 387.308L13.5538 384.931L14.1516 385.384L15.9525 383.008L15.3548 382.555L17.1558 380.178L17.7535 380.631L19.5545 378.254L18.9568 377.801L20.7577 375.425L21.3555 375.878L23.1565 373.501L22.5587 373.048L24.3597 370.671L24.9574 371.124L26.7584 368.748L26.1607 368.295L27.9617 365.918L28.5594 366.371L30.3604 363.995L29.7626 363.542L31.5636 361.165L32.1614 361.618L33.9623 359.241L33.3646 358.788L35.1656 356.412L35.7633 356.865L37.5643 354.488L36.9666 354.035L38.7675 351.658L39.3653 352.111L41.1663 349.735L40.5685 349.282L42.3695 346.905L42.9672 347.358L44.7682 344.981L44.1705 344.528L45.9715 342.152L46.5692 342.605L48.3702 340.228L47.7724 339.775L49.5734 337.399L50.1712 337.852L51.9721 335.475L51.3744 335.022L53.1754 332.645L53.7731 333.098L55.5741 330.722L54.9764 330.269L56.7773 327.892L57.3751 328.345L59.1761 325.968L58.5783 325.515L60.3793 323.139L60.977 323.592L62.778 321.215L62.1803 320.762L63.9813 318.385L64.579 318.838L66.38 316.462L65.7822 316.009L67.5832 313.632L68.181 314.085L69.9819 311.709L69.3842 311.256L71.1852 308.879L71.7829 309.332L73.5839 306.955L72.9862 306.502L74.7871 304.126L75.3849 304.579L77.1859 302.202L76.5881 301.749L78.3891 299.372L78.9868 299.825L80.7878 297.449L80.1901 296.996L81.9911 294.619L82.5888 295.072L84.3898 292.695L83.792 292.242L85.593 289.866L86.1908 290.319L87.9917 287.942L87.394 287.489L89.195 285.113L89.7927 285.566L91.5937 283.189L90.9959 282.736L92.7969 280.359L93.3947 280.812L95.1957 278.436L94.5979 277.983L96.3989 275.606L96.9966 276.059L98.7976 273.682L98.1999 273.229L100.001 270.853L100.599 271.306L102.4 268.929L101.802 268.476L103.603 266.1L104.201 266.552L106.002 264.176L105.404 263.723L107.205 261.346L107.803 261.799L109.604 259.423L109.006 258.97L110.807 256.593L111.404 257.046L113.205 254.669L112.608 254.216L114.409 251.84L115.006 252.293L116.807 249.916L116.21 249.463L118.011 247.086L118.608 247.539L120.409 245.163L119.812 244.71L121.613 242.333L122.21 242.786L124.011 240.409L123.414 239.956L125.215 237.58L125.812 238.033L127.613 235.656L127.016 235.203L128.817 232.827L129.414 233.28L131.215 230.903L130.618 230.45L132.419 228.073L133.016 228.526L134.817 226.15L134.22 225.697L136.021 223.32L136.618 223.773L138.419 221.396L137.821 220.943L139.622 218.567L140.22 219.02L142.021 216.643L141.423 216.19L143.224 213.813L143.822 214.266L145.623 211.89L145.025 211.437L146.826 209.06L147.424 209.513L149.225 207.136L148.627 206.683L150.428 204.307L151.026 204.76L152.827 202.383L152.229 201.93L154.03 199.553L154.628 200.006L156.429 197.63L155.831 197.177L157.632 194.8L158.23 195.253L160.031 192.877L159.433 192.424L161.234 190.047L161.832 190.5L163.633 188.123L163.035 187.67L164.836 185.294L165.434 185.747L167.235 183.37L166.637 182.917L168.438 180.54L169.036 180.993L170.837 178.617L170.239 178.164L172.04 175.787L172.638 176.24L174.439 173.863L173.841 173.41L175.642 171.034L176.24 171.487L178.041 169.11L177.443 168.657L179.244 166.28L179.842 166.733L181.643 164.357L181.045 163.904L182.846 161.527L183.444 161.98L185.245 159.603L184.647 159.15L186.448 156.774L187.046 157.227L188.847 154.85L188.249 154.397L190.05 152.021L190.648 152.474L192.449 150.097L191.851 149.644L193.652 147.267L194.25 147.72L196.051 145.344L195.453 144.891L197.254 142.514L197.852 142.967L199.653 140.59L199.055 140.137L200.856 137.761L201.454 138.214L203.255 135.837L202.657 135.384L204.458 133.007L205.056 133.46L206.857 131.084L206.259 130.631L208.06 128.254L208.658 128.707L210.459 126.33L209.861 125.877L211.662 123.501L212.26 123.954L214.061 121.577L213.463 121.124L215.264 118.747L215.862 119.2L217.663 116.824L217.065 116.371L218.866 113.994L219.464 114.447L221.265 112.071L220.667 111.618L222.468 109.241L223.066 109.694L224.867 107.317L224.269 106.864L226.07 104.488L226.668 104.941L228.469 102.564L227.871 102.111L229.672 99.7344L230.27 100.187L232.071 97.8107L231.473 97.3577L233.274 94.9811L233.872 95.4341L235.673 93.0574L235.075 92.6044L236.876 90.2278L237.474 90.6808L239.275 88.3041L238.677 87.8512L240.478 85.4745L241.076 85.9275L242.877 83.5508L242.279 83.0979L244.08 80.7212L244.678 81.1742L246.479 78.7976L245.881 78.3446L247.682 75.9679L248.279 76.4209L250.08 74.0443L249.483 73.5913L251.284 71.2146L251.881 71.6676L253.682 69.291L253.085 68.838L254.886 66.4613L255.483 66.9143L257.284 64.5377L256.687 64.0847L258.488 61.7081L259.085 62.161L260.886 59.7844L260.289 59.3314L262.09 56.9548L262.687 57.4077L264.488 55.0311L263.891 54.5781L265.692 52.2015L266.289 52.6545L268.09 50.2778L267.493 49.8248L269.294 47.4482L269.891 47.9012L271.692 45.5245L271.095 45.0715L272.896 42.6949L273.493 43.1479L275.294 40.7712L274.697 40.3183L276.498 37.9416L277.095 38.3946L278.896 36.0179L278.299 35.565Z" fill="#E6E6E6" stroke="#FF66D4" stroke-width="1.5" stroke-dasharray="3 3"/>
  <path d="M73.5084 356H70.5028V356.75H69.75V357.479H69V360.437H69.75V363.396H69V366.354H69.75V369.312H69V372.271H69.75V375.229H69V378.187H69.75V381.146H69V384.104H69.75V387.062H69V390.021H69.75V392.979H69V395.937H69.75V398.896H69V401.854H69.75V404.812H69V407.771H69.75V410.729H69V413.687H69.75V416.646H69V419.604H69.75V422.562H69V425.521H69.75V428.479H69V431.438H69.75V434.396H69V437.354H69.75V440.313H69V443.271H69.75V446.229H69V449.188H69.75V452.146H69V455.104H69.75V458.062H69V461.021H69.75V463.979H69V466.938H69.75V469.896H69V472.854H69.75V475.812H69V478.771H69.75V481.729H69V484.688H69.75V487.646H69V490.604H69.75V493.562H69V496.521H69.75V497.25H70.503V498H73.5085V497.25H76.5141V498H79.5197V497.25H82.5252V498H85.5308V497.25H88.5363V498H91.5419V497.25H94.5474V498H97.553V497.25H100.559V498H103.564V497.25H106.57V498H109.575V497.25H112.581V498H115.586V497.25H118.592V498H121.597V497.25H124.603V498H127.609V497.25H130.614V498H133.62V497.25H136.625V498H139.631V497.25H142.636V498H145.642V497.25H148.647V498H151.653V497.25H154.659V498H157.664V497.25H160.67V498H163.675V497.25H166.681V498H169.686V497.25H172.692V498H175.697V497.25H178.703V498H181.708V497.25H184.714V498H187.72V497.25H190.725V498H193.731V497.25H196.736V498H199.742V497.25H202.747V498H205.753V497.25H208.758V498H211.764V497.25H214.77V498H217.775V497.25H220.781V498H223.786V497.25H226.792V498H229.797V497.25H232.803V498H235.808V497.25H238.814V498H241.82V497.25H244.825V498H247.831V497.25H250.836V498H253.842V497.25H256.847V498H259.853V497.25H262.858V498H265.864V497.25H268.87V498H271.875V497.25H274.881V498H277.886V497.25H280.892V498H283.897V497.25H286.903V498H289.908V497.25H292.914V498H295.92V497.25H298.925V498H301.931V497.25H304.936V498H307.942V497.25H310.947V498H313.953V497.25H316.958V498H319.964V497.25H322.97V498H325.975V497.25H328.981V498H331.986V497.25H334.992V498H337.997V497.25H341.003V498H344.008V497.25H347.014V498H350.02V497.25H353.025V498H356.031V497.25H359.036V498H362.042V497.25H365.047V498H368.053V497.25H371.058V498H374.064V497.25H377.07V498H380.075V497.25H383.081V498H386.086V497.25H389.092V498H392.097V497.25H395.103V498H398.108V497.25H401.114V498H404.12V497.25H407.125V498H410.131V497.25H413.136V498H416.142V497.25H419.147V498H422.153V497.25H425.158V498H428.164V497.25H431.169V498H434.175V497.25H437.181V498H440.186V497.25H443.192V498H446.197V497.25H449.203V498H452.208V497.25H455.214V498H458.219V497.25H461.225V498H464.231V497.25H467.236V498H470.242V497.25H473.247V498H476.253V497.25H479.258V498H482.264V497.25H485.269V498H488.275V497.25H491.281V498H494.286V497.25H497.292V498H500.297V497.25H503.303V498H506.308V497.25H509.314V498H512.319V497.25H515.325V498H518.331V497.25H521.336V498H524.342V497.25H527.347V498H530.353V497.25H533.358V498H536.364V497.25H539.369V498H542.375V497.25H545.381V498H548.386V497.25H551.392V498H554.397V497.25H557.403V498H560.408V497.25H563.414V498H566.419V497.25H569.425V498H572.431V497.25H575.436V498H578.442V497.25H581.447V498H584.453V497.25H587.458V498H590.464V497.25H593.469V498H596.475V497.25H599.481V498H602.486V497.25H605.492V498H608.497V497.25H609.25V496.521H610V493.563H609.25V490.604H610V487.646H609.25V484.688H610V481.729H609.25V478.771H610V475.813H609.25V472.854H610V469.896H609.25V466.938H610V463.979H609.25V461.021H610V458.063H609.25V455.104H610V452.146H609.25V449.188H610V446.229H609.25V443.271H610V440.313H609.25V437.354H610V434.396H609.25V431.438H610V428.479H609.25V425.521H610V422.562H609.25V419.604H610V416.646H609.25V413.687H610V410.729H609.25V407.771H610V404.812H609.25V401.854H610V398.896H609.25V395.938H610V392.979H609.25V390.021H610V387.063H609.25V384.104H610V381.146H609.25V378.188H610V375.229H609.25V372.271H610V369.312H609.25V366.354H610V363.396H609.25V360.438H610V357.479H609.25V356.75H608.497V356H605.491V356.75H602.486V356H599.48V356.75H596.475V356H593.469V356.75H590.464V356H587.458V356.75H584.453V356H581.447V356.75H578.441V356H575.436V356.75H572.43V356H569.425V356.75H566.419V356H563.414V356.75H560.408V356H557.403V356.75H554.397V356H551.391V356.75H548.386V356H545.38V356.75H542.375V356H539.369V356.75H536.364V356H533.358V356.75H530.353V356H527.347V356.75H524.341V356H521.336V356.75H518.33V356H515.325V356.75H512.319V356H509.314V356.75H506.308V356H503.303V356.75H500.297V356H497.292V356.75H494.286V356H491.28V356.75H488.275V356H485.269V356.75H482.264V356H479.258V356.75H476.253V356H473.247V356.75H470.242V356H467.236V356.75H464.23V356H461.225V356.75H458.219V356H455.214V356.75H452.208V356H449.203V356.75H446.197V356H443.192V356.75H440.186V356H437.18V356.75H434.175V356H431.169V356.75H428.164V356H425.158V356.75H422.153V356H419.147V356.75H416.142V356H413.136V356.75H410.13V356H407.125V356.75H404.119V356H401.114V356.75H398.108V356H395.103V356.75H392.097V356H389.092V356.75H386.086V356H383.08V356.75H380.075V356H377.069V356.75H374.064V356H371.058V356.75H368.053V356H365.047V356.75H362.042V356H359.036V356.75H356.03V356H353.025V356.75H350.019V356H347.014V356.75H344.008V356H341.003V356.75H337.997V356H334.992V356.75H331.986V356H328.98V356.75H325.975V356H322.969V356.75H319.964V356H316.958V356.75H313.953V356H310.947V356.75H307.942V356H304.936V356.75H301.93V356H298.925V356.75H295.919V356H292.914V356.75H289.908V356H286.903V356.75H283.897V356H280.892V356.75H277.886V356H274.88V356.75H271.875V356H268.869V356.75H265.864V356H262.858V356.75H259.853V356H256.847V356.75H253.842V356H250.836V356.75H247.831V356H244.825V356.75H241.819V356H238.814V356.75H235.808V356H232.803V356.75H229.797V356H226.792V356.75H223.786V356H220.781V356.75H217.775V356H214.769V356.75H211.764V356H208.758V356.75H205.753V356H202.747V356.75H199.742V356H196.736V356.75H193.731V356H190.725V356.75H187.719V356H184.714V356.75H181.708V356H178.703V356.75H175.697V356H172.692V356.75H169.686V356H166.681V356.75H163.675V356H160.669V356.75H157.664V356H154.658V356.75H151.653V356H148.647V356.75H145.642V356H142.636V356.75H139.631V356H136.625V356.75H133.619V356H130.614V356.75H127.608V356H124.603V356.75H121.597V356H118.592V356.75H115.586V356H112.581V356.75H109.575V356H106.569V356.75H103.564V356H100.558V356.75H97.5528V356H94.5472V356.75H91.5417V356H88.5361V356.75H85.5306V356H82.525V356.75H79.5195V356H76.5139V356.75H73.5084V356Z" fill="#E6E6E6" stroke="#FF66D4" stroke-width="1.5" stroke-dasharray="3 3"/>
  <path d="M391.224 23.5745L389.408 21.1915L388.811 21.6461L388.413 21.1232L387.938 21.5792L387.418 21.0381L385.255 23.1142L385.775 23.6552L383.612 25.7313L383.092 25.1902L380.929 27.2663L381.449 27.8074L379.286 29.8835L378.766 29.3424L376.603 31.4185L377.123 31.9596L374.96 34.0357L374.44 33.4946L372.277 35.5707L372.797 36.1118L370.633 38.1878L370.114 37.6467L367.951 39.7228L368.47 40.2639L366.307 42.34L365.788 41.7989L363.625 43.875L364.144 44.4161L361.981 46.4922L361.462 45.9511L359.299 48.0272L359.818 48.5683L357.655 50.6444L357.136 50.1033L354.973 52.1794L355.492 52.7204L353.329 54.7965L352.81 54.2554L350.647 56.3315L351.166 56.8726L349.003 58.9487L348.484 58.4076L346.321 60.4837L346.84 61.0248L344.677 63.1009L344.158 62.5598L341.995 64.6359L342.514 65.177L340.351 67.253L339.832 66.712L337.668 68.788L338.188 69.3291L336.025 71.4052L335.505 70.8641L333.342 72.9402L333.862 73.4813L331.699 75.5574L331.179 75.0163L329.016 77.0924L329.536 77.6335L327.373 79.7096L326.853 79.1685L324.69 81.2446L325.21 81.7857L323.047 83.8617L322.527 83.3206L320.364 85.3967L320.883 85.9378L318.72 88.0139L318.201 87.4728L316.038 89.5489L316.557 90.09L314.394 92.1661L313.875 91.625L311.712 93.7011L312.231 94.2422L310.068 96.3183L309.549 95.7772L307.386 97.8533L307.905 98.3944L305.742 100.47L305.223 99.9294L303.06 102.005L303.579 102.547L301.416 104.623L300.897 104.082L298.734 106.158L299.253 106.699L297.09 108.775L296.571 108.234L294.408 110.31L294.927 110.851L292.764 112.927L292.245 112.386L290.082 114.462L290.601 115.003L289.999 115.58L290.498 116.243L289.899 116.694L291.695 119.08L292.294 118.629L294.091 121.016L293.492 121.467L295.289 123.854L295.888 123.403L297.684 125.789L297.085 126.24L298.882 128.627L299.481 128.176L301.278 130.563L300.679 131.014L302.475 133.4L303.074 132.949L304.871 135.336L304.272 135.787L306.069 138.174L306.668 137.723L308.464 140.109L307.865 140.56L309.662 142.947L310.261 142.496L312.058 144.883L311.459 145.334L313.255 147.72L313.854 147.269L315.651 149.656L315.052 150.107L316.849 152.494L317.448 152.043L319.244 154.429L318.645 154.88L320.442 157.267L321.041 156.816L322.838 159.202L322.239 159.654L324.035 162.04L324.634 161.589L326.431 163.976L325.832 164.427L327.629 166.814L328.228 166.362L330.024 168.749L329.425 169.2L331.222 171.587L331.821 171.136L333.618 173.522L333.018 173.974L334.815 176.36L335.414 175.909L337.211 178.296L336.612 178.747L338.409 181.134L339.008 180.682L340.804 183.069L340.205 183.52L342.002 185.907L342.601 185.456L344.398 187.842L343.798 188.294L345.595 190.68L346.194 190.229L347.991 192.616L347.392 193.067L349.188 195.454L349.788 195.002L351.584 197.389L350.985 197.84L352.782 200.227L353.381 199.776L355.178 202.162L354.578 202.614L356.375 205L356.974 204.549L358.771 206.936L358.172 207.387L359.968 209.774L360.568 209.322L362.364 211.709L361.765 212.16L363.562 214.547L364.161 214.096L365.958 216.482L365.358 216.934L367.155 219.32L367.754 218.869L369.551 221.256L368.952 221.707L370.748 224.094L371.348 223.642L373.144 226.029L372.545 226.48L374.342 228.867L374.941 228.416L376.738 230.802L376.138 231.253L377.935 233.64L378.534 233.189L380.331 235.576L379.732 236.027L381.528 238.413L382.128 237.962L383.924 240.349L383.325 240.8L385.122 243.187L385.721 242.736L387.518 245.122L386.918 245.573L388.715 247.96L389.314 247.509L391.111 249.896L390.512 250.347L392.308 252.733L392.908 252.282L394.704 254.669L394.105 255.12L395.902 257.507L396.501 257.056L398.298 259.442L397.698 259.893L399.495 262.28L400.094 261.829L401.891 264.216L401.292 264.667L403.088 267.053L403.688 266.602L405.484 268.989L404.885 269.44L406.682 271.827L407.281 271.376L409.078 273.762L408.478 274.213L410.275 276.6L410.874 276.149L412.671 278.536L412.072 278.987L413.868 281.373L414.468 280.922L416.264 283.309L415.665 283.76L417.462 286.147L418.061 285.696L419.858 288.082L419.258 288.533L421.055 290.92L421.654 290.469L423.451 292.856L422.852 293.307L424.648 295.693L425.248 295.242L427.044 297.629L426.445 298.08L428.242 300.467L428.841 300.016L430.638 302.402L430.038 302.853L431.835 305.24L432.434 304.789L434.231 307.176L433.632 307.627L435.428 310.013L436.028 309.562L437.824 311.949L437.225 312.4L439.022 314.787L439.621 314.336L441.418 316.722L440.818 317.173L442.615 319.56L443.214 319.109L445.011 321.496L444.412 321.947L446.208 324.333L446.808 323.882L448.604 326.269L448.005 326.72L449.802 329.107L450.401 328.656L452.198 331.042L451.598 331.493L453.395 333.88L453.994 333.429L455.791 335.816L455.192 336.267L456.988 338.653L457.588 338.202L459.384 340.589L458.785 341.04L460.582 343.427L461.181 342.976L462.978 345.362L462.378 345.813L464.175 348.2L464.774 347.749L466.571 350.136L465.972 350.587L467.768 352.973L468.368 352.522L470.164 354.909L469.565 355.36L471.362 357.747L471.961 357.296L473.758 359.682L473.158 360.133L474.955 362.52L475.554 362.069L477.351 364.456L476.752 364.907L478.548 367.293L479.148 366.842L480.944 369.229L480.345 369.68L482.142 372.067L482.741 371.616L484.538 374.002L483.938 374.453L485.735 376.84L486.334 376.389L488.131 378.776L487.532 379.227L489.328 381.613L489.928 381.162L491.724 383.549L491.125 384L492.922 386.387L493.521 385.936L495.318 388.322L494.718 388.773L496.515 391.16L497.114 390.709L498.911 393.096L498.312 393.547L500.108 395.933L500.708 395.482L502.504 397.869L501.905 398.32L503.702 400.707L504.301 400.256L506.098 402.642L505.498 403.093L507.295 405.48L507.894 405.029L509.691 407.416L509.092 407.867L510.888 410.253L511.488 409.802L513.284 412.189L512.685 412.64L514.482 415.027L515.081 414.576L516.878 416.962L516.278 417.413L518.075 419.8L518.674 419.349L520.471 421.736L519.872 422.187L521.668 424.573L522.268 424.122L524.064 426.509L523.465 426.96L525.262 429.347L525.861 428.896L527.658 431.282L527.058 431.733L528.855 434.12L529.454 433.669L531.251 436.056L530.652 436.507L532.448 438.893L533.048 438.442L534.844 440.829L534.245 441.28L536.042 443.667L536.641 443.216L538.438 445.602L537.838 446.053L539.635 448.44L540.234 447.989L542.031 450.376L541.432 450.827L543.228 453.213L543.828 452.762L545.624 455.149L545.025 455.6L546.822 457.987L547.421 457.536L549.218 459.922L548.618 460.373L550.415 462.76L551.014 462.309L552.811 464.696L552.212 465.147L554.008 467.533L554.608 467.082L556.404 469.469L555.805 469.92L557.602 472.307L558.201 471.856L558.657 472.462L559.292 472.003L559.731 472.611L562.193 470.834L561.754 470.226L564.216 468.449L564.655 469.057L567.117 467.28L566.678 466.672L569.14 464.895L569.579 465.503L572.041 463.726L571.602 463.117L574.064 461.34L574.503 461.948L576.965 460.171L576.526 459.563L578.988 457.786L579.427 458.394L581.889 456.617L581.45 456.009L583.912 454.232L584.351 454.84L586.812 453.062L586.374 452.454L588.835 450.677L589.274 451.285L591.736 449.508L591.297 448.9L593.759 447.123L594.198 447.731L596.66 445.954L596.221 445.346L598.683 443.569L599.122 444.177L601.584 442.399L601.145 441.791L603.607 440.014L604.046 440.622L606.508 438.845L606.069 438.237L608.531 436.46L608.97 437.068L611.432 435.291L610.993 434.683L613.455 432.905L613.894 433.514L616.356 431.736L615.917 431.128L618.379 429.351L618.818 429.959L621.28 428.182L620.841 427.574L623.303 425.797L623.742 426.405L626.204 424.628L625.765 424.02L628.227 422.242L628.666 422.851L631.128 421.073L630.689 420.465L633.151 418.688L633.59 419.296L636.052 417.519L635.613 416.911L638.075 415.134L638.514 415.742L640.976 413.965L640.537 413.357L642.999 411.579L643.438 412.188L645.899 410.41L645.46 409.802L647.922 408.025L648.361 408.633L650.823 406.856L650.384 406.248L652.846 404.471L653.285 405.079L655.747 403.302L655.308 402.694L657.77 400.916L658.209 401.524L660.671 399.747L660.232 399.139L662.694 397.362L663.133 397.97L665.595 396.193L665.156 395.585L667.618 393.808L668.057 394.416L670.519 392.639L670.08 392.03L670.687 391.592L670.245 391.013L670.842 390.558L669.026 388.175L668.43 388.63L666.614 386.247L667.21 385.792L665.395 383.409L664.798 383.864L662.983 381.481L663.579 381.026L661.763 378.643L661.167 379.098L659.351 376.715L659.948 376.26L658.132 373.877L657.535 374.332L655.72 371.949L656.316 371.494L654.501 369.111L653.904 369.566L652.088 367.183L652.685 366.728L650.869 364.345L650.273 364.8L648.457 362.417L649.053 361.962L647.238 359.579L646.641 360.034L644.826 357.651L645.422 357.196L643.606 354.813L643.01 355.268L641.194 352.885L641.791 352.43L639.975 350.047L639.378 350.502L637.563 348.119L638.159 347.664L636.344 345.281L635.747 345.736L633.931 343.353L634.528 342.898L632.712 340.515L632.116 340.97L630.3 338.587L630.896 338.132L629.081 335.749L628.484 336.204L626.669 333.821L627.265 333.366L625.449 330.983L624.853 331.438L623.037 329.055L623.634 328.6L621.818 326.217L621.221 326.672L619.406 324.289L620.002 323.834L618.187 321.451L617.59 321.906L615.774 319.523L616.371 319.068L614.555 316.685L613.959 317.139L612.143 314.757L612.739 314.302L610.924 311.919L610.327 312.374L608.512 309.99L609.108 309.536L607.292 307.153L606.696 307.607L604.88 305.224L605.477 304.77L603.661 302.387L603.064 302.841L601.249 300.458L601.845 300.004L600.03 297.621L599.433 298.075L597.617 295.692L598.214 295.238L596.398 292.855L595.802 293.309L593.986 290.926L594.582 290.472L592.767 288.089L592.17 288.543L590.355 286.16L590.951 285.706L589.135 283.323L588.539 283.777L586.723 281.394L587.32 280.94L585.504 278.557L584.907 279.011L583.092 276.628L583.688 276.174L581.873 273.791L581.276 274.245L579.46 271.862L580.057 271.408L578.241 269.025L577.645 269.479L575.829 267.096L576.425 266.642L574.61 264.259L574.013 264.713L572.198 262.33L572.794 261.876L570.978 259.493L570.382 259.947L568.566 257.564L569.163 257.11L567.347 254.727L566.75 255.181L564.935 252.798L565.531 252.344L563.716 249.961L563.119 250.415L561.303 248.032L561.9 247.578L560.084 245.195L559.488 245.649L557.672 243.266L558.268 242.812L556.453 240.429L555.856 240.883L554.041 238.5L554.637 238.046L552.821 235.663L552.225 236.117L550.409 233.734L551.006 233.28L549.19 230.897L548.593 231.351L546.778 228.968L547.374 228.514L545.559 226.131L544.962 226.585L543.146 224.202L543.743 223.748L541.927 221.365L541.331 221.819L539.515 219.436L540.111 218.982L538.296 216.599L537.699 217.053L535.883 214.67L536.48 214.216L534.664 211.833L534.068 212.287L532.252 209.904L532.849 209.45L531.033 207.067L530.436 207.521L528.621 205.138L529.217 204.684L527.402 202.301L526.805 202.755L524.989 200.372L525.586 199.918L523.77 197.535L523.174 197.989L521.358 195.606L521.954 195.152L520.139 192.769L519.542 193.223L517.726 190.84L518.323 190.386L516.507 188.002L515.911 188.457L514.095 186.074L514.692 185.619L512.876 183.236L512.279 183.691L510.464 181.308L511.06 180.853L509.244 178.47L508.648 178.925L506.832 176.542L507.429 176.087L505.613 173.704L505.016 174.159L503.201 171.776L503.797 171.321L501.982 168.938L501.385 169.393L499.569 167.01L500.166 166.555L498.35 164.172L497.754 164.627L495.938 162.244L496.534 161.789L494.719 159.406L494.122 159.861L492.307 157.478L492.903 157.023L491.087 154.64L490.491 155.095L488.675 152.712L489.272 152.257L487.456 149.874L486.859 150.329L485.044 147.946L485.64 147.491L483.825 145.108L483.228 145.563L481.412 143.18L482.009 142.725L480.193 140.342L479.597 140.797L477.781 138.414L478.377 137.959L476.562 135.576L475.965 136.031L474.149 133.648L474.746 133.193L472.93 130.81L472.334 131.265L470.518 128.882L471.115 128.427L469.299 126.044L468.702 126.499L466.887 124.116L467.483 123.661L465.667 121.278L465.071 121.733L463.255 119.35L463.852 118.895L462.036 116.512L461.439 116.967L459.624 114.584L460.22 114.129L458.405 111.746L457.808 112.201L455.992 109.817L456.589 109.363L454.773 106.98L454.177 107.434L452.361 105.051L452.958 104.597L451.142 102.214L450.545 102.668L448.73 100.285L449.326 99.8309L447.51 97.4479L446.914 97.9024L445.098 95.5194L445.695 95.0649L443.879 92.6819L443.282 93.1364L441.467 90.7534L442.063 90.2989L440.248 87.9158L439.651 88.3704L437.835 85.9874L438.432 85.5328L436.616 83.1498L436.02 83.6044L434.204 81.2214L434.8 80.7668L432.985 78.3838L432.388 78.8383L430.572 76.4553L431.169 76.0008L429.353 73.6178L428.757 74.0723L426.941 71.6893L427.538 71.2348L425.722 68.8518L425.125 69.3063L423.31 66.9233L423.906 66.4687L422.091 64.0857L421.494 64.5403L419.678 62.1573L420.275 61.7027L418.459 59.3197L417.863 59.7743L416.047 57.3912L416.643 56.9367L414.828 54.5537L414.231 55.0082L412.415 52.6252L413.012 52.1707L411.196 49.7877L410.6 50.2422L408.784 47.8592L409.381 47.4047L407.565 45.0216L406.968 45.4762L405.153 43.0932L405.749 42.6386L403.934 40.2556L403.337 40.7102L401.521 38.3271L402.118 37.8726L400.302 35.4896L399.706 35.9441L397.89 33.5611L398.486 33.1066L396.671 30.7236L396.074 31.1781L394.258 28.7951L394.855 28.3405L393.039 25.9575L392.443 26.4121L390.627 24.0291L391.224 23.5745Z" fill="#E6E6E6" stroke="#FF66D4" stroke-width="1.5" stroke-dasharray="3 3"/>
  <path d="M285.642 292.5V311H289.342V304.425H291.817C295.792 304.425 298.967 302.525 298.967 298.3C298.967 293.9 295.792 292.5 291.717 292.5H285.642ZM291.567 301.5H289.342V295.425H291.442C294.017 295.425 295.342 296.125 295.342 298.3C295.342 300.425 294.092 301.5 291.567 301.5ZM301.517 311H305.167V291.05H301.517V311ZM312.353 311.25C313.953 311.25 315.378 310.6 316.578 309.575H316.653L316.928 311H319.928V302.825C319.928 298.7 318.128 296.65 314.553 296.65C312.353 296.65 310.253 297.375 308.728 298.3L309.828 300.925C311.103 300.1 312.578 299.6 313.878 299.6C314.953 299.6 315.628 299.825 315.928 300.25C316.203 300.825 316.328 301.425 316.253 302.025C310.453 302.2 308.028 303.775 308.203 307.2C308.203 309.625 309.853 311.25 312.353 311.25ZM313.478 308.45C312.403 308.45 311.603 307.75 311.578 306.575C311.553 305.575 312.128 304.775 313.728 304.55C314.528 304.425 315.378 304.35 316.253 304.275V307.1C315.378 307.975 314.553 308.425 313.478 308.45ZM328.298 311.35C329.523 311.35 330.473 311.1 331.248 310.825L330.648 308.15C330.273 308.325 329.748 308.45 329.273 308.45C327.998 308.45 327.373 307.675 327.373 306.1V299.9H330.823V297H327.373V293.25H324.298L323.873 297L321.723 297.175V299.9H323.698V306.1C323.698 309.25 324.973 311.35 328.298 311.35ZM340.646 293.9L341.321 291.2C340.696 290.925 339.746 290.7 338.671 290.7C335.146 290.7 333.796 292.95 333.796 295.875V297.025L331.921 297.175V299.9H333.796V311H337.471V299.9H340.096V297H337.471V295.8C337.471 294.2 338.071 293.6 339.171 293.6C339.646 293.6 340.171 293.725 340.646 293.9ZM347.823 311.35C351.323 311.35 354.548 308.625 354.548 304.025C354.548 299.35 351.323 296.65 347.823 296.65C344.323 296.65 341.098 299.35 341.098 304.025C341.098 308.625 344.323 311.35 347.823 311.35ZM347.823 308.35C345.923 308.35 344.848 306.65 344.848 304.025C344.848 301.325 345.923 299.65 347.823 299.65C349.723 299.65 350.798 301.325 350.798 304.025C350.798 306.65 349.723 308.35 347.823 308.35ZM357.122 297V311H360.772V302.65C361.572 300.625 362.897 299.9 363.997 299.9C364.572 299.9 364.972 299.95 365.447 300.125L366.097 296.95C365.672 296.775 365.222 296.65 364.447 296.65C362.947 296.65 361.497 297.65 360.472 299.475H360.372L360.122 297H357.122ZM367.511 297V311H371.161V301.375C372.161 300.325 373.061 299.8 373.861 299.8C375.186 299.8 375.811 300.525 375.811 302.725V311H379.486V301.375C380.486 300.325 381.386 299.8 382.186 299.8C383.511 299.8 384.136 300.525 384.136 302.725V311H387.811V302.275C387.811 298.75 386.461 296.65 383.461 296.65C381.636 296.65 380.286 297.7 379.011 299.1C378.336 297.5 377.161 296.65 375.161 296.65C373.336 296.65 372.036 297.65 370.861 298.875H370.761L370.511 297H367.511Z" fill="#1A1A1A"/>
  <circle cx="340" cy="70.5" r="69.75" fill="#FFDB1E" stroke="#333333" stroke-width="1.5"/>
  <path d="M306.75 76.234C309.504 76.234 311.232 74.578 311.232 72.49C311.232 70.528 310.044 69.628 308.514 68.962L306.624 68.152C305.598 67.72 304.446 67.252 304.446 65.956C304.446 64.732 305.4 64.012 306.912 64.012C308.136 64.012 309.108 64.48 309.918 65.254L310.8 64.192C309.864 63.184 308.496 62.554 306.912 62.554C304.518 62.554 302.754 64.03 302.754 66.064C302.754 68.008 304.23 68.926 305.436 69.448L307.344 70.276C308.586 70.852 309.54 71.266 309.54 72.616C309.54 73.912 308.496 74.776 306.768 74.776C305.4 74.776 304.068 74.146 303.114 73.138L302.124 74.272C303.276 75.496 304.878 76.234 306.75 76.234ZM312.108 62.806L314.916 76H316.896L318.858 68.044C319.074 66.964 319.308 66.046 319.524 65.038H319.596C319.812 66.046 320.01 66.964 320.244 68.044L322.242 76H324.24L326.976 62.806H325.374L323.988 69.988C323.736 71.392 323.484 72.814 323.232 74.254H323.142C322.836 72.814 322.548 71.428 322.206 69.988L320.352 62.806H318.84L317.022 69.988C316.68 71.428 316.374 72.814 316.068 74.254H315.996C315.726 72.814 315.492 71.428 315.222 69.988L313.836 62.806H312.108ZM345.418 61.186H343.996V67.684H341.8V61.618H340.414V76.522H341.8V68.89H343.996V77.332H345.418V61.186ZM338.632 63.274H332.332V64.48H337.174C336.94 67.846 335.446 70.708 331.72 72.814L332.584 73.876C337.192 71.284 338.632 67.432 338.632 63.274ZM362.841 64.66H360.447V61.204H358.971V69.538H360.447V65.884H362.841V64.66ZM356.055 68.908V61.852H354.615V64.174H350.043V61.852H348.585V68.908H356.055ZM354.615 65.308V67.72H350.043V65.308H354.615ZM351.681 75.982V74.218H360.447V70.294H350.187V71.464H358.989V73.12H350.241V77.152H361.041V75.982H351.681ZM379.201 68.962V67.738H376.537V61.204H375.061V77.332H376.537V68.962H379.201ZM369.535 65.488V62.59H368.077V65.488C368.077 68.422 366.241 71.5 363.919 72.706L364.801 73.894C366.619 72.886 368.113 70.942 368.815 68.548C369.535 70.78 370.993 72.652 372.721 73.57L373.639 72.4C371.389 71.248 369.535 68.314 369.535 65.488Z" fill="black"/>
  <path d="M180.125 221.68V235H182.519V229.438C182.519 228.196 182.321 226.306 182.177 225.064H182.249L183.311 228.196L185.381 233.794H186.911L188.963 228.196L190.043 225.064H190.115C189.971 226.306 189.791 228.196 189.791 229.438V235H192.221V221.68H189.269L187.055 227.908C186.767 228.754 186.533 229.618 186.245 230.482H186.155C185.885 229.618 185.633 228.754 185.345 227.908L183.077 221.68H180.125ZM199.287 235.252C200.583 235.252 201.807 234.838 202.815 234.136L201.915 232.516C201.195 232.966 200.493 233.218 199.647 233.218C198.135 233.218 197.073 232.354 196.857 230.698H203.067C203.139 230.464 203.193 229.978 203.193 229.492C203.193 226.702 201.753 224.668 198.981 224.668C196.587 224.668 194.283 226.72 194.283 229.978C194.283 233.29 196.479 235.252 199.287 235.252ZM200.925 228.952H196.821C197.019 227.494 197.955 226.72 199.017 226.72C200.313 226.72 200.925 227.584 200.925 228.952ZM208.557 235.252C209.637 235.252 210.609 234.676 211.347 233.956H211.401L211.617 235H213.759V220.636H211.113V224.182L211.221 225.766C210.501 225.1 209.817 224.668 208.665 224.668C206.487 224.668 204.435 226.684 204.435 229.978C204.435 233.272 206.037 235.252 208.557 235.252ZM209.241 233.074C207.855 233.074 207.153 232.03 207.153 229.942C207.153 227.926 208.107 226.846 209.241 226.846C209.871 226.846 210.483 227.044 211.113 227.602V232.03C210.537 232.804 209.943 233.074 209.241 233.074ZM218.629 223.3V220.744H216.001V223.3H218.629ZM215.983 235H218.611V224.92H215.983V235ZM225.134 235.252C226.286 235.252 227.474 234.874 228.428 234.028L227.384 232.282C226.826 232.768 226.142 233.092 225.422 233.092C223.676 233.092 222.92 231.508 222.92 229.978C222.92 228.034 223.964 226.828 225.494 226.828C226.07 226.828 226.538 227.062 227.042 227.494L228.302 225.784C227.564 225.154 226.61 224.668 225.368 224.668C222.632 224.668 220.22 226.612 220.22 229.978C220.22 233.29 222.344 235.252 225.134 235.252ZM232.466 235.18C233.618 235.18 234.644 234.712 235.508 233.974H235.562L235.76 235H237.92V229.114C237.92 226.144 236.624 224.668 234.05 224.668C232.466 224.668 230.954 225.19 229.856 225.856L230.648 227.746C231.566 227.152 232.628 226.792 233.564 226.792C234.338 226.792 234.824 226.954 235.04 227.26C235.238 227.674 235.328 228.106 235.274 228.538C231.098 228.664 229.352 229.798 229.478 232.264C229.478 234.01 230.666 235.18 232.466 235.18ZM233.276 233.164C232.502 233.164 231.926 232.66 231.908 231.814C231.89 231.094 232.304 230.518 233.456 230.356C234.032 230.266 234.644 230.212 235.274 230.158V232.192C234.644 232.822 234.05 233.146 233.276 233.164ZM240.257 235H242.885V220.636H240.257V235ZM192.536 246.68V260H195.2V246.68H192.536ZM197.901 249.92V260H200.529V253.07C201.303 252.332 201.789 251.936 202.635 251.936C203.643 251.936 204.057 252.476 204.057 254.042V260H206.703V253.718C206.703 251.18 205.767 249.668 203.589 249.668C202.221 249.668 201.195 250.388 200.313 251.252H200.241L200.061 249.92H197.901ZM214.454 247.688L214.94 245.744C214.49 245.546 213.806 245.384 213.032 245.384C210.494 245.384 209.522 247.004 209.522 249.11V249.938L208.172 250.046V252.008H209.522V260H212.168V252.008H214.058V249.92H212.168V249.056C212.168 247.904 212.6 247.472 213.392 247.472C213.734 247.472 214.112 247.562 214.454 247.688ZM215.41 249.92V260H218.038V253.988C218.614 252.53 219.568 252.008 220.36 252.008C220.774 252.008 221.062 252.044 221.404 252.17L221.872 249.884C221.566 249.758 221.242 249.668 220.684 249.668C219.604 249.668 218.56 250.388 217.822 251.702H217.75L217.57 249.92H215.41ZM225.373 260.18C226.525 260.18 227.551 259.712 228.415 258.974H228.469L228.667 260H230.827V254.114C230.827 251.144 229.531 249.668 226.957 249.668C225.373 249.668 223.861 250.19 222.763 250.856L223.555 252.746C224.473 252.152 225.535 251.792 226.471 251.792C227.245 251.792 227.731 251.954 227.947 252.26C228.145 252.674 228.235 253.106 228.181 253.538C224.005 253.664 222.259 254.798 222.385 257.264C222.385 259.01 223.573 260.18 225.373 260.18ZM226.183 258.164C225.409 258.164 224.833 257.66 224.815 256.814C224.797 256.094 225.211 255.518 226.363 255.356C226.939 255.266 227.551 255.212 228.181 255.158V257.192C227.551 257.822 226.957 258.146 226.183 258.164Z" fill="black"/>
  <path d="M297.587 422.752C299.333 422.752 300.737 422.104 301.835 420.79L300.431 419.134C299.711 419.908 298.829 420.448 297.677 420.448C295.571 420.448 294.203 418.702 294.203 415.804C294.203 412.942 295.715 411.214 297.731 411.214C298.739 411.214 299.513 411.682 300.179 412.33L301.583 410.638C300.719 409.72 299.405 408.928 297.677 408.928C294.311 408.928 291.485 411.502 291.485 415.894C291.485 420.34 294.203 422.752 297.587 422.752ZM303.405 422.5H306.033V408.136H303.405V422.5ZM311.117 410.8V408.244H308.489V410.8H311.117ZM308.471 422.5H311.099V412.42H308.471V422.5ZM313.337 412.42V422.5H315.965V415.57C316.739 414.832 317.225 414.436 318.071 414.436C319.079 414.436 319.493 414.976 319.493 416.542V422.5H322.139V416.218C322.139 413.68 321.203 412.168 319.025 412.168C317.657 412.168 316.631 412.888 315.749 413.752H315.677L315.497 412.42H313.337ZM326.903 410.8V408.244H324.275V410.8H326.903ZM324.257 422.5H326.885V412.42H324.257V422.5ZM333.407 422.752C334.559 422.752 335.747 422.374 336.701 421.528L335.657 419.782C335.099 420.268 334.415 420.592 333.695 420.592C331.949 420.592 331.193 419.008 331.193 417.478C331.193 415.534 332.237 414.328 333.767 414.328C334.343 414.328 334.811 414.562 335.315 414.994L336.575 413.284C335.837 412.654 334.883 412.168 333.641 412.168C330.905 412.168 328.493 414.112 328.493 417.478C328.493 420.79 330.617 422.752 333.407 422.752ZM340.739 422.68C341.891 422.68 342.917 422.212 343.781 421.474H343.835L344.033 422.5H346.193V416.614C346.193 413.644 344.897 412.168 342.323 412.168C340.739 412.168 339.227 412.69 338.129 413.356L338.921 415.246C339.839 414.652 340.901 414.292 341.837 414.292C342.611 414.292 343.097 414.454 343.313 414.76C343.511 415.174 343.601 415.606 343.547 416.038C339.371 416.164 337.625 417.298 337.751 419.764C337.751 421.51 338.939 422.68 340.739 422.68ZM341.549 420.664C340.775 420.664 340.199 420.16 340.181 419.314C340.163 418.594 340.577 418.018 341.729 417.856C342.305 417.766 342.917 417.712 343.547 417.658V419.692C342.917 420.322 342.323 420.646 341.549 420.664ZM348.53 422.5H351.158V408.136H348.53V422.5ZM361.76 422.752C364.838 422.752 366.656 420.898 366.656 418.72C366.656 416.776 365.63 415.768 363.974 415.102L362.228 414.364C361.094 413.932 360.14 413.518 360.14 412.618C360.14 411.736 360.896 411.214 362.066 411.214C363.164 411.214 364.046 411.61 364.892 412.312L366.242 410.638C365.162 409.54 363.65 408.928 362.066 408.928C359.384 408.928 357.458 410.602 357.458 412.78C357.458 414.724 358.808 415.786 360.158 416.362L361.94 417.118C363.146 417.64 363.938 417.91 363.938 418.918C363.938 419.854 363.2 420.448 361.814 420.448C360.644 420.448 359.384 419.854 358.43 418.972L356.9 420.808C358.196 422.05 359.96 422.752 361.76 422.752ZM367.34 409.18L369.914 422.5H373.172L374.63 415.912C374.846 414.832 375.008 413.842 375.206 412.834H375.278C375.44 413.842 375.638 414.832 375.854 415.912L377.348 422.5H380.66L383.126 409.18H380.588L379.544 415.678C379.346 417.064 379.148 418.486 378.95 419.926H378.86C378.572 418.486 378.302 417.046 378.014 415.678L376.466 409.18H374.198L372.65 415.678C372.362 417.064 372.074 418.486 371.804 419.926H371.732C371.534 418.486 371.318 417.118 371.12 415.678L370.058 409.18H367.34ZM302.499 447.5H305.469L302.355 442.046C303.885 441.452 304.893 440.246 304.893 438.212C304.893 435.134 302.697 434.18 299.889 434.18H295.245V447.5H297.909V442.46H299.763L302.499 447.5ZM297.909 440.354V436.286H299.637C301.365 436.286 302.283 436.772 302.283 438.212C302.283 439.652 301.365 440.354 299.637 440.354H297.909ZM311.313 447.752C312.609 447.752 313.833 447.338 314.841 446.636L313.941 445.016C313.221 445.466 312.519 445.718 311.673 445.718C310.161 445.718 309.099 444.854 308.883 443.198H315.093C315.165 442.964 315.219 442.478 315.219 441.992C315.219 439.202 313.779 437.168 311.007 437.168C308.613 437.168 306.309 439.22 306.309 442.478C306.309 445.79 308.505 447.752 311.313 447.752ZM312.951 441.452H308.847C309.045 439.994 309.981 439.22 311.043 439.22C312.339 439.22 312.951 440.084 312.951 441.452ZM322.42 435.188L322.906 433.244C322.456 433.046 321.772 432.884 320.998 432.884C318.46 432.884 317.488 434.504 317.488 436.61V437.438L316.138 437.546V439.508H317.488V447.5H320.134V439.508H322.024V437.42H320.134V436.556C320.134 435.404 320.566 434.972 321.358 434.972C321.7 434.972 322.078 435.062 322.42 435.188ZM327.749 447.752C329.045 447.752 330.269 447.338 331.277 446.636L330.377 445.016C329.657 445.466 328.955 445.718 328.109 445.718C326.597 445.718 325.535 444.854 325.319 443.198H331.529C331.601 442.964 331.655 442.478 331.655 441.992C331.655 439.202 330.215 437.168 327.443 437.168C325.049 437.168 322.745 439.22 322.745 442.478C322.745 445.79 324.941 447.752 327.749 447.752ZM329.387 441.452H325.283C325.481 439.994 326.417 439.22 327.479 439.22C328.775 439.22 329.387 440.084 329.387 441.452ZM333.474 437.42V447.5H336.102V441.488C336.678 440.03 337.632 439.508 338.424 439.508C338.838 439.508 339.126 439.544 339.468 439.67L339.936 437.384C339.63 437.258 339.306 437.168 338.748 437.168C337.668 437.168 336.624 437.888 335.886 439.202H335.814L335.634 437.42H333.474ZM345.328 447.752C346.624 447.752 347.848 447.338 348.856 446.636L347.956 445.016C347.236 445.466 346.534 445.718 345.688 445.718C344.176 445.718 343.114 444.854 342.898 443.198H349.108C349.18 442.964 349.234 442.478 349.234 441.992C349.234 439.202 347.794 437.168 345.022 437.168C342.628 437.168 340.324 439.22 340.324 442.478C340.324 445.79 342.52 447.752 345.328 447.752ZM346.966 441.452H342.862C343.06 439.994 343.996 439.22 345.058 439.22C346.354 439.22 346.966 440.084 346.966 441.452ZM351.053 437.42V447.5H353.681V440.57C354.455 439.832 354.941 439.436 355.787 439.436C356.795 439.436 357.209 439.976 357.209 441.542V447.5H359.855V441.218C359.855 438.68 358.919 437.168 356.741 437.168C355.373 437.168 354.347 437.888 353.465 438.752H353.393L353.213 437.42H351.053ZM366.508 447.752C367.66 447.752 368.848 447.374 369.802 446.528L368.758 444.782C368.2 445.268 367.516 445.592 366.796 445.592C365.05 445.592 364.294 444.008 364.294 442.478C364.294 440.534 365.338 439.328 366.868 439.328C367.444 439.328 367.912 439.562 368.416 439.994L369.676 438.284C368.938 437.654 367.984 437.168 366.742 437.168C364.006 437.168 361.594 439.112 361.594 442.478C361.594 445.79 363.718 447.752 366.508 447.752ZM375.73 447.752C377.026 447.752 378.25 447.338 379.258 446.636L378.358 445.016C377.638 445.466 376.936 445.718 376.09 445.718C374.578 445.718 373.516 444.854 373.3 443.198H379.51C379.582 442.964 379.636 442.478 379.636 441.992C379.636 439.202 378.196 437.168 375.424 437.168C373.03 437.168 370.726 439.22 370.726 442.478C370.726 445.79 372.922 447.752 375.73 447.752ZM377.368 441.452H373.264C373.462 439.994 374.398 439.22 375.46 439.22C376.756 439.22 377.368 440.084 377.368 441.452Z" fill="black"/>
  <path d="M435.125 233.68V247H437.519V241.438C437.519 240.196 437.321 238.306 437.177 237.064H437.249L438.311 240.196L440.381 245.794H441.911L443.963 240.196L445.043 237.064H445.115C444.971 238.306 444.791 240.196 444.791 241.438V247H447.221V233.68H444.269L442.055 239.908C441.767 240.754 441.533 241.618 441.245 242.482H441.155C440.885 241.618 440.633 240.754 440.345 239.908L438.077 233.68H435.125ZM454.287 247.252C455.583 247.252 456.807 246.838 457.815 246.136L456.915 244.516C456.195 244.966 455.493 245.218 454.647 245.218C453.135 245.218 452.073 244.354 451.857 242.698H458.067C458.139 242.464 458.193 241.978 458.193 241.492C458.193 238.702 456.753 236.668 453.981 236.668C451.587 236.668 449.283 238.72 449.283 241.978C449.283 245.29 451.479 247.252 454.287 247.252ZM455.925 240.952H451.821C452.019 239.494 452.955 238.72 454.017 238.72C455.313 238.72 455.925 239.584 455.925 240.952ZM463.557 247.252C464.637 247.252 465.609 246.676 466.347 245.956H466.401L466.617 247H468.759V232.636H466.113V236.182L466.221 237.766C465.501 237.1 464.817 236.668 463.665 236.668C461.487 236.668 459.435 238.684 459.435 241.978C459.435 245.272 461.037 247.252 463.557 247.252ZM464.241 245.074C462.855 245.074 462.153 244.03 462.153 241.942C462.153 239.926 463.107 238.846 464.241 238.846C464.871 238.846 465.483 239.044 466.113 239.602V244.03C465.537 244.804 464.943 245.074 464.241 245.074ZM473.629 235.3V232.744H471.001V235.3H473.629ZM470.983 247H473.611V236.92H470.983V247ZM480.134 247.252C481.286 247.252 482.474 246.874 483.428 246.028L482.384 244.282C481.826 244.768 481.142 245.092 480.422 245.092C478.676 245.092 477.92 243.508 477.92 241.978C477.92 240.034 478.964 238.828 480.494 238.828C481.07 238.828 481.538 239.062 482.042 239.494L483.302 237.784C482.564 237.154 481.61 236.668 480.368 236.668C477.632 236.668 475.22 238.612 475.22 241.978C475.22 245.29 477.344 247.252 480.134 247.252ZM487.466 247.18C488.618 247.18 489.644 246.712 490.508 245.974H490.562L490.76 247H492.92V241.114C492.92 238.144 491.624 236.668 489.05 236.668C487.466 236.668 485.954 237.19 484.856 237.856L485.648 239.746C486.566 239.152 487.628 238.792 488.564 238.792C489.338 238.792 489.824 238.954 490.04 239.26C490.238 239.674 490.328 240.106 490.274 240.538C486.098 240.664 484.352 241.798 484.478 244.264C484.478 246.01 485.666 247.18 487.466 247.18ZM488.276 245.164C487.502 245.164 486.926 244.66 486.908 243.814C486.89 243.094 487.304 242.518 488.456 242.356C489.032 242.266 489.644 242.212 490.274 242.158V244.192C489.644 244.822 489.05 245.146 488.276 245.164ZM495.257 247H497.885V232.636H495.257V247ZM440.782 272.252C443.86 272.252 445.678 270.398 445.678 268.22C445.678 266.276 444.652 265.268 442.996 264.602L441.25 263.864C440.116 263.432 439.162 263.018 439.162 262.118C439.162 261.236 439.918 260.714 441.088 260.714C442.186 260.714 443.068 261.11 443.914 261.812L445.264 260.138C444.184 259.04 442.672 258.428 441.088 258.428C438.406 258.428 436.48 260.102 436.48 262.28C436.48 264.224 437.83 265.286 439.18 265.862L440.962 266.618C442.168 267.14 442.96 267.41 442.96 268.418C442.96 269.354 442.222 269.948 440.836 269.948C439.666 269.948 438.406 269.354 437.452 268.472L435.922 270.308C437.218 271.55 438.982 272.252 440.782 272.252ZM451.834 272.252C453.13 272.252 454.354 271.838 455.362 271.136L454.462 269.516C453.742 269.966 453.04 270.218 452.194 270.218C450.682 270.218 449.62 269.354 449.404 267.698H455.614C455.686 267.464 455.74 266.978 455.74 266.492C455.74 263.702 454.3 261.668 451.528 261.668C449.134 261.668 446.83 263.72 446.83 266.978C446.83 270.29 449.026 272.252 451.834 272.252ZM453.472 265.952H449.368C449.566 264.494 450.502 263.72 451.564 263.72C452.86 263.72 453.472 264.584 453.472 265.952ZM457.559 261.92V272H460.187V265.988C460.763 264.53 461.717 264.008 462.509 264.008C462.923 264.008 463.211 264.044 463.553 264.17L464.021 261.884C463.715 261.758 463.391 261.668 462.833 261.668C461.753 261.668 460.709 262.388 459.971 263.702H459.899L459.719 261.92H457.559ZM463.869 261.92L467.307 272H470.367L473.733 261.92H471.195L469.719 266.942C469.449 267.95 469.179 268.976 468.909 270.002H468.819C468.549 268.976 468.279 267.95 468.009 266.942L466.533 261.92H463.869ZM477.444 260.3V257.744H474.816V260.3H477.444ZM474.798 272H477.426V261.92H474.798V272ZM483.949 272.252C485.101 272.252 486.289 271.874 487.243 271.028L486.199 269.282C485.641 269.768 484.957 270.092 484.237 270.092C482.491 270.092 481.735 268.508 481.735 266.978C481.735 265.034 482.779 263.828 484.309 263.828C484.885 263.828 485.353 264.062 485.857 264.494L487.117 262.784C486.379 262.154 485.425 261.668 484.183 261.668C481.447 261.668 479.035 263.612 479.035 266.978C479.035 270.29 481.159 272.252 483.949 272.252ZM493.171 272.252C494.467 272.252 495.691 271.838 496.699 271.136L495.799 269.516C495.079 269.966 494.377 270.218 493.531 270.218C492.019 270.218 490.957 269.354 490.741 267.698H496.951C497.023 267.464 497.077 266.978 497.077 266.492C497.077 263.702 495.637 261.668 492.865 261.668C490.471 261.668 488.167 263.72 488.167 266.978C488.167 270.29 490.363 272.252 493.171 272.252ZM494.809 265.952H490.705C490.903 264.494 491.839 263.72 492.901 263.72C494.197 263.72 494.809 264.584 494.809 265.952Z" fill="black"/>
  <path d="M245.975 189.71C245.932 189.298 245.563 188.999 245.151 189.043L238.438 189.749C238.026 189.792 237.727 190.162 237.77 190.574C237.814 190.985 238.183 191.284 238.595 191.241L244.562 190.613L245.19 196.58C245.233 196.992 245.602 197.291 246.014 197.247C246.426 197.204 246.725 196.835 246.682 196.423L245.975 189.71ZM231.655 207.748L245.812 190.26L244.646 189.317L230.489 206.804L231.655 207.748Z" fill="black"/>
  <path d="M434.172 194.669C433.766 194.588 433.371 194.852 433.29 195.258L431.967 201.877C431.886 202.283 432.149 202.678 432.555 202.759C432.962 202.84 433.357 202.577 433.438 202.171L434.614 196.287L440.497 197.463C440.904 197.544 441.299 197.281 441.38 196.875C441.461 196.468 441.198 196.073 440.791 195.992L434.172 194.669ZM447.133 213.708L434.649 194.989L433.401 195.821L445.885 214.54L447.133 213.708Z" fill="black"/>
  <path d="M509.328 305.25C509.737 305.32 510.125 305.047 510.195 304.639L511.345 297.987C511.416 297.579 511.142 297.191 510.734 297.12C510.326 297.05 509.938 297.323 509.867 297.732L508.845 303.644L502.933 302.622C502.525 302.551 502.136 302.825 502.066 303.233C501.995 303.641 502.269 304.029 502.677 304.1L509.328 305.25ZM495.876 286.555L508.843 304.943L510.069 304.079L497.102 285.691L495.876 286.555Z" fill="black"/>
  <path d="M164.258 293.56C164.337 293.966 164.73 294.232 165.137 294.153L171.764 292.868C172.17 292.79 172.436 292.396 172.357 291.989C172.278 291.583 171.885 291.317 171.478 291.396L165.588 292.538L164.446 286.648C164.367 286.241 163.973 285.975 163.567 286.054C163.16 286.133 162.894 286.526 162.973 286.933L164.258 293.56ZM176.963 274.35L164.373 292.997L165.616 293.837L178.207 275.189L176.963 274.35Z" fill="black"/>
  <path d="M252.47 431.47C252.177 431.763 252.177 432.237 252.47 432.53L257.243 437.303C257.536 437.596 258.01 437.596 258.303 437.303C258.596 437.01 258.596 436.536 258.303 436.243L254.061 432L258.303 427.757C258.596 427.464 258.596 426.99 258.303 426.697C258.01 426.404 257.536 426.404 257.243 426.697L252.47 431.47ZM275.5 431.25L253 431.25L253 432.75L275.5 432.75L275.5 431.25Z" fill="black"/>
  <path d="M423.03 432.53C423.323 432.237 423.323 431.763 423.03 431.47L418.257 426.697C417.964 426.404 417.49 426.404 417.197 426.697C416.904 426.99 416.904 427.464 417.197 427.757L421.439 432L417.197 436.243C416.904 436.536 416.904 437.01 417.197 437.303C417.49 437.596 417.964 437.596 418.257 437.303L423.03 432.53ZM400 432.75L422.5 432.75L422.5 431.25L400 431.25L400 432.75Z" fill="black"/>
  <circle cx="70.5" cy="427.5" r="69.75" fill="#FFDB1E" stroke="#333333" stroke-width="1.5"/>
  <path d="M51.9661 422.362H49.5721V418.204H48.0961V427.978H49.5721V423.586H51.9661V422.362ZM45.5941 426.934L46.3681 425.782C44.0641 425.008 42.4621 422.956 42.4621 420.796V419.014H40.9861V420.67C40.9861 423.1 39.4201 425.35 36.9721 426.214L37.7461 427.384C39.6361 426.664 41.0761 425.188 41.7421 423.298C42.4621 424.954 43.8481 426.286 45.5941 426.934ZM44.4421 428.428C41.1481 428.428 39.1141 429.508 39.1141 431.38C39.1141 433.252 41.1481 434.314 44.4421 434.314C47.7001 434.314 49.7521 433.252 49.7521 431.38C49.7521 429.508 47.7001 428.428 44.4421 428.428ZM44.4421 433.162C42.0481 433.162 40.5901 432.532 40.5901 431.38C40.5901 430.228 42.0481 429.58 44.4421 429.58C46.8361 429.58 48.2761 430.228 48.2761 431.38C48.2761 432.532 46.8361 433.162 44.4421 433.162ZM67.8947 424.774H65.5727C66.0047 422.758 66.0047 421.336 66.0047 420.094V418.924H55.0967V420.13H64.5467C64.5467 421.354 64.5467 422.776 64.0967 424.774H53.2247V425.98H67.8947V424.774ZM64.5287 427.438V429.562H56.5907V427.438H55.1327V434.116H65.9867V427.438H64.5287ZM64.5287 430.714V432.928H56.5907V430.714H64.5287ZM81.1887 426.772V425.332H84.9147V427.978H86.4087V418.204H84.9147V420.832H81.1887V419.194H79.7307V421.768H75.3747V419.194H73.9167V426.772H81.1887ZM81.1887 422.02H84.9147V424.126H81.1887V422.02ZM79.7307 422.938V425.584H75.3747V422.938H79.7307ZM81.0627 428.302C77.7507 428.302 75.6987 429.382 75.6987 431.308C75.6987 433.234 77.7507 434.314 81.0627 434.314C84.3927 434.314 86.4447 433.234 86.4447 431.308C86.4447 429.382 84.3927 428.302 81.0627 428.302ZM81.0627 433.162C78.5967 433.162 77.1747 432.478 77.1747 431.308C77.1747 430.138 78.5967 429.436 81.0627 429.436C83.5287 429.436 84.9867 430.138 84.9867 431.308C84.9867 432.478 83.5287 433.162 81.0627 433.162ZM101.041 427.726H97.7653V428.824H101.041V430.48H102.517V418.186H101.041V427.726ZM94.4713 424.468C96.8293 424.468 98.4493 423.37 98.4493 421.642C98.4493 419.95 96.8293 418.834 94.4713 418.834C92.1133 418.834 90.4933 419.95 90.4933 421.642C90.4933 423.37 92.1133 424.468 94.4713 424.468ZM94.4713 419.932C96.0013 419.932 97.0453 420.616 97.0453 421.642C97.0453 422.722 96.0013 423.37 94.4713 423.37C92.9413 423.37 91.8973 422.722 91.8973 421.642C91.8973 420.616 92.9413 419.932 94.4713 419.932ZM93.8953 426.79V429.904H95.3713V426.718C96.8293 426.628 98.3053 426.466 99.7453 426.25L99.6193 425.188C96.1993 425.62 92.2033 425.656 89.2153 425.656L89.4133 426.88C90.7813 426.88 92.2933 426.862 93.8953 426.79ZM102.931 432.766H92.9953V429.274H91.5193V433.972H102.931V432.766Z" fill="black"/>
  <circle cx="609.5" cy="427.5" r="69.75" fill="#FFDB1E" stroke="#333333" stroke-width="1.5"/>
  <path d="M577.483 432.668H574.891V420.734H573.577L570.031 423.794L570.913 424.856L573.307 422.714C573.289 422.84 573.289 423.002 573.289 423.164V432.668H570.355V434H577.483V432.668ZM585.145 428.834C586.009 428.834 586.909 428.33 587.647 427.034L586.711 426.368C586.261 427.232 585.757 427.592 585.181 427.592C584.029 427.592 583.201 425.9 581.617 425.9C580.735 425.9 579.835 426.404 579.097 427.7L580.015 428.348C580.501 427.484 580.987 427.124 581.563 427.124C582.715 427.124 583.543 428.834 585.145 428.834ZM597.812 432.542H592.61C592.16 432.542 591.62 432.614 591.116 432.758L594.806 429.104C596.3 427.61 597.56 426.242 597.56 424.28C597.56 421.94 595.814 420.572 593.564 420.572C591.314 420.572 589.568 421.886 589.226 424.316L590.846 424.586C590.846 423.074 591.962 421.994 593.474 421.994C594.842 421.994 595.85 422.732 595.904 424.316C595.904 425.864 594.896 426.998 593.51 428.474L588.956 432.848V434H597.812V432.542ZM614.402 427.052V425.828H611.738V419.186H610.262V435.332H611.738V427.052H614.402ZM604.718 424.424V423.164H608.3V421.976H604.718V419.474H603.242V421.976H599.606V423.164H603.26V424.424C603.26 427.232 601.532 429.95 599.174 431.102L600.002 432.218C601.874 431.3 603.296 429.482 603.998 427.232C604.7 429.338 606.014 431.066 607.814 431.93L608.642 430.778C606.32 429.662 604.718 426.998 604.718 424.424ZM627.264 427.772V426.332H630.99V428.978H632.484V419.204H630.99V421.832H627.264V420.194H625.806V422.768H621.45V420.194H619.992V427.772H627.264ZM627.264 423.02H630.99V425.126H627.264V423.02ZM625.806 423.938V426.584H621.45V423.938H625.806ZM627.138 429.302C623.826 429.302 621.774 430.382 621.774 432.308C621.774 434.234 623.826 435.314 627.138 435.314C630.468 435.314 632.52 434.234 632.52 432.308C632.52 430.382 630.468 429.302 627.138 429.302ZM627.138 434.162C624.672 434.162 623.25 433.478 623.25 432.308C623.25 431.138 624.672 430.436 627.138 430.436C629.604 430.436 631.062 431.138 631.062 432.308C631.062 433.478 629.604 434.162 627.138 434.162ZM647.117 428.726H643.841V429.824H647.117V431.48H648.593V419.186H647.117V428.726ZM640.547 425.468C642.905 425.468 644.525 424.37 644.525 422.642C644.525 420.95 642.905 419.834 640.547 419.834C638.189 419.834 636.569 420.95 636.569 422.642C636.569 424.37 638.189 425.468 640.547 425.468ZM640.547 420.932C642.077 420.932 643.121 421.616 643.121 422.642C643.121 423.722 642.077 424.37 640.547 424.37C639.017 424.37 637.973 423.722 637.973 422.642C637.973 421.616 639.017 420.932 640.547 420.932ZM639.971 427.79V430.904H641.447V427.718C642.905 427.628 644.381 427.466 645.821 427.25L645.695 426.188C642.275 426.62 638.279 426.656 635.291 426.656L635.489 427.88C636.857 427.88 638.369 427.862 639.971 427.79ZM649.007 433.766H639.071V430.274H637.595V434.972H649.007V433.766Z" fill="black"/>
</svg>