<svg width="680" height="498" viewBox="0 0 680 498" fill="none" xmlns="http://www.w3.org/2000/svg">
  <path d="M282.295 31.0625L284.098 28.6875L284.695 29.1411L285.149 28.5443L285.776 29.0098L286.223 28.4076L288.668 30.2228L288.221 30.8251L290.667 32.6403L291.114 32.038L293.56 33.8532L293.113 34.4555L295.558 36.2707L296.005 35.6685L298.451 37.4837L298.004 38.0859L300.45 39.9011L300.897 39.2989L303.342 41.1141L302.895 41.7164L305.341 43.5316L305.788 42.9293L308.234 44.7445L307.787 45.3468L310.232 47.162L310.679 46.5598L313.125 48.375L312.678 48.9772L315.124 50.7925L315.571 50.1902L318.016 52.0054L317.569 52.6077L320.015 54.4229L320.462 53.8206L322.908 55.6359L322.461 56.2381L324.906 58.0533L325.353 57.4511L327.799 59.2663L327.352 59.8685L329.798 61.6838L330.245 61.0815L332.69 62.8967L332.243 63.499L334.689 65.3142L335.136 64.712L337.582 66.5272L337.135 67.1294L339.58 68.9446L340.027 68.3424L342.473 70.1576L342.026 70.7599L344.471 72.5751L344.918 71.9728L347.364 73.788L346.917 74.3903L349.363 76.2055L349.81 75.6033L352.255 77.4185L351.808 78.0207L354.254 79.8359L354.701 79.2337L357.147 81.0489L356.7 81.6512L359.145 83.4664L359.592 82.8641L362.038 84.6794L361.591 85.2816L364.037 87.0968L364.484 86.4946L366.929 88.3098L366.482 88.912L368.928 90.7272L369.375 90.125L371.821 91.9402L371.374 92.5425L373.819 94.3577L374.266 93.7554L376.712 95.5707L376.265 96.1729L378.711 97.9881L379.158 97.3859L381.603 99.2011L381.156 99.8033L383.602 101.619L384.049 101.016L386.495 102.832L386.048 103.434L388.493 105.249L388.94 104.647L391.386 106.462L390.939 107.064L393.385 108.879L393.832 108.277L396.277 110.092L395.83 110.695L396.446 111.151L395.998 111.744L396.596 112.196L394.788 114.588L394.19 114.136L392.383 116.528L392.981 116.98L391.174 119.372L390.575 118.92L388.768 121.312L389.366 121.764L387.559 124.156L386.96 123.704L385.153 126.096L385.751 126.548L383.944 128.94L383.346 128.487L381.538 130.879L382.136 131.332L380.329 133.723L379.731 133.271L377.923 135.663L378.522 136.115L376.714 138.507L376.116 138.055L374.308 140.447L374.907 140.899L373.099 143.291L372.501 142.839L370.694 145.231L371.292 145.683L369.484 148.075L368.886 147.623L367.079 150.014L367.677 150.467L365.87 152.859L365.271 152.406L363.464 154.798L364.062 155.25L362.255 157.642L361.656 157.19L359.849 159.582L360.447 160.034L358.64 162.426L358.042 161.974L356.234 164.366L356.832 164.818L355.025 167.21L354.427 166.758L352.619 169.15L353.218 169.602L351.41 171.994L350.812 171.541L349.004 173.933L349.603 174.385L347.795 176.777L347.197 176.325L345.39 178.717L345.988 179.169L344.18 181.561L343.582 181.109L341.775 183.501L342.373 183.953L340.566 186.345L339.967 185.893L338.16 188.285L338.758 188.737L336.951 191.129L336.352 190.677L334.545 193.068L335.143 193.521L333.336 195.912L332.738 195.46L330.93 197.852L331.528 198.304L329.721 200.696L329.123 200.244L327.315 202.636L327.914 203.088L326.106 205.48L325.508 205.028L323.7 207.42L324.299 207.872L322.491 210.264L321.893 209.812L320.086 212.204L320.684 212.656L318.876 215.048L318.278 214.595L316.471 216.987L317.069 217.439L315.262 219.831L314.663 219.379L312.856 221.771L313.454 222.223L311.647 224.615L311.048 224.163L309.241 226.555L309.839 227.007L308.032 229.399L307.434 228.947L305.626 231.339L306.224 231.791L304.417 234.183L303.819 233.731L302.011 236.122L302.61 236.575L300.802 238.966L300.204 238.514L298.396 240.906L298.995 241.358L297.187 243.75L296.589 243.298L294.782 245.69L295.38 246.142L293.572 248.534L292.974 248.082L291.167 250.474L291.765 250.926L289.958 253.318L289.359 252.866L287.552 255.257L288.15 255.71L286.343 258.102L285.744 257.649L283.937 260.041L284.535 260.493L282.728 262.885L282.13 262.433L280.322 264.825L280.92 265.277L279.113 267.669L278.515 267.217L276.707 269.609L277.306 270.061L275.498 272.453L274.9 272.001L273.092 274.393L273.691 274.845L271.883 277.237L271.285 276.784L269.478 279.176L270.076 279.629L268.268 282.02L267.67 281.568L265.863 283.96L266.461 284.412L264.654 286.804L264.055 286.352L262.248 288.744L262.846 289.196L261.039 291.588L260.44 291.136L258.633 293.528L259.231 293.98L257.424 296.372L256.826 295.92L255.018 298.311L255.616 298.764L253.809 301.156L253.211 300.703L251.403 303.095L252.002 303.547L250.194 305.939L249.596 305.487L247.788 307.879L248.387 308.331L246.579 310.723L245.981 310.271L244.174 312.663L244.772 313.115L242.964 315.507L242.366 315.055L240.559 317.447L241.157 317.899L239.35 320.291L238.751 319.838L236.944 322.23L237.542 322.682L235.735 325.074L235.136 324.622L233.329 327.014L233.927 327.466L232.12 329.858L231.522 329.406L229.714 331.798L230.312 332.25L228.505 334.642L227.907 334.19L226.099 336.582L226.698 337.034L224.89 339.426L224.292 338.974L222.484 341.365L223.083 341.818L221.275 344.209L220.677 343.757L218.87 346.149L219.468 346.601L217.66 348.993L217.062 348.541L215.255 350.933L215.853 351.385L214.046 353.777L213.447 353.325L211.64 355.717L212.238 356.169L210.431 358.561L209.832 358.109L208.025 360.501L208.623 360.953L206.816 363.345L206.218 362.892L204.41 365.284L205.008 365.736L203.201 368.128L202.603 367.676L200.795 370.068L201.394 370.52L199.586 372.912L198.988 372.46L197.18 374.852L197.779 375.304L195.971 377.696L195.373 377.244L193.565 379.636L194.164 380.088L192.356 382.48L191.758 382.028L189.951 384.419L190.549 384.872L188.742 387.263L188.143 386.811L186.336 389.203L186.934 389.655L185.127 392.047L184.528 391.595L182.721 393.987L183.319 394.439L181.512 396.831L180.913 396.379L179.106 398.771L179.704 399.223L177.897 401.615L177.299 401.163L175.491 403.555L176.09 404.007L174.282 406.399L173.684 405.946L171.876 408.338L172.475 408.791L170.667 411.182L170.069 410.73L168.261 413.122L168.86 413.574L167.052 415.966L166.454 415.514L164.647 417.906L165.245 418.358L163.438 420.75L162.839 420.298L161.032 422.69L161.63 423.142L159.823 425.534L159.224 425.082L157.417 427.474L158.015 427.926L156.208 430.318L155.609 429.865L153.802 432.257L154.4 432.709L152.593 435.101L151.995 434.649L150.187 437.041L150.785 437.493L148.978 439.885L148.38 439.433L146.572 441.825L147.171 442.277L145.363 444.669L144.765 444.217L142.957 446.609L143.556 447.061L141.748 449.453L141.15 449.001L139.342 451.392L139.941 451.845L138.133 454.236L137.535 453.784L135.728 456.176L136.326 456.628L134.519 459.02L133.92 458.568L132.113 460.96L132.711 461.412L130.904 463.804L130.305 463.352L129.803 464.016L129.1 463.605L128.721 464.253L126.164 462.758L126.543 462.11L123.985 460.616L123.607 461.263L121.049 459.768L121.428 459.121L118.871 457.626L118.492 458.273L115.935 456.779L116.313 456.131L113.756 454.636L113.378 455.284L110.82 453.789L111.199 453.142L108.642 451.647L108.263 452.294L105.706 450.799L106.084 450.152L103.527 448.657L103.148 449.305L100.591 447.81L100.97 447.162L98.4123 445.668L98.0339 446.315L95.4766 444.82L95.855 444.173L93.2978 442.678L92.9193 443.326L90.362 441.831L90.7405 441.183L88.1832 439.688L87.8047 440.336L85.2474 438.841L85.6259 438.194L83.0686 436.699L82.6901 437.346L80.1328 435.852L80.5113 435.204L77.954 433.709L77.5755 434.357L75.0182 432.862L75.3967 432.214L72.8394 430.72L72.4609 431.367L69.9036 429.872L70.2821 429.225L67.7248 427.73L67.3463 428.378L64.7891 426.883L65.1675 426.235L62.6102 424.741L62.2318 425.388L59.6745 423.893L60.0529 423.246L57.4957 421.751L57.1172 422.398L54.5599 420.904L54.9384 420.256L52.3811 418.761L52.0026 419.409L49.4453 417.914L49.8238 417.267L47.2665 415.772L46.888 416.419L44.3307 414.924L44.7092 414.277L42.1519 412.782L41.7734 413.43L39.2161 411.935L39.5946 411.287L37.0373 409.793L36.6589 410.44L34.1016 408.945L34.48 408.298L31.9228 406.803L31.5443 407.451L28.987 405.956L29.3655 405.308L26.8082 403.813L26.4297 404.461L23.8724 402.966L24.2509 402.319L21.6936 400.824L21.3151 401.471L18.7578 399.977L19.1363 399.329L16.579 397.834L16.2005 398.482L13.6432 396.987L14.0217 396.339L11.4644 394.845L11.0859 395.492L8.52864 393.997L8.90712 393.35L8.35913 393.03L8.74872 392.517L8.15144 392.063L9.95501 389.688L10.5523 390.142L12.3559 387.767L11.7586 387.313L13.5622 384.938L14.1595 385.392L15.963 383.017L15.3657 382.563L17.1693 380.188L17.7666 380.642L19.5702 378.267L18.9729 377.813L20.7765 375.438L21.3738 375.891L23.1774 373.516L22.5801 373.063L24.3836 370.688L24.9809 371.141L26.7845 368.766L26.1872 368.313L27.9908 365.938L28.5881 366.391L30.3917 364.016L29.7944 363.563L31.598 361.188L32.1952 361.641L33.9988 359.266L33.4015 358.813L35.2051 356.438L35.8024 356.891L37.606 354.516L37.0087 354.063L38.8123 351.688L39.4096 352.141L41.2131 349.766L40.6158 349.313L42.4194 346.938L43.0167 347.391L44.8203 345.016L44.223 344.563L46.0266 342.188L46.6239 342.641L48.4275 340.266L47.8302 339.813L49.6337 337.438L50.231 337.891L52.0346 335.516L51.4373 335.063L53.2409 332.688L53.8382 333.141L55.6418 330.766L55.0445 330.313L56.8481 327.938L57.4454 328.391L59.2489 326.016L58.6516 325.563L60.4552 323.188L61.0525 323.641L62.8561 321.266L62.2588 320.813L64.0624 318.438L64.6597 318.891L66.4632 316.516L65.866 316.063L67.6695 313.688L68.2668 314.141L70.0704 311.766L69.4731 311.313L71.2767 308.938L71.874 309.391L73.6776 307.016L73.0803 306.563L74.8838 304.188L75.4811 304.641L77.2847 302.266L76.6874 301.813L78.491 299.438L79.0883 299.891L80.8919 297.516L80.2946 297.063L82.0981 294.688L82.6954 295.141L84.499 292.766L83.9017 292.313L85.7053 289.938L86.3026 290.391L88.1062 288.016L87.5089 287.563L89.3125 285.188L89.9098 285.641L91.7133 283.266L91.116 282.813L92.9196 280.438L93.5169 280.891L95.3205 278.516L94.7232 278.063L96.5268 275.688L97.1241 276.141L98.9277 273.766L98.3304 273.312L100.134 270.937L100.731 271.391L102.535 269.016L101.938 268.562L103.741 266.187L104.338 266.641L106.142 264.266L105.545 263.812L107.348 261.437L107.946 261.891L109.749 259.516L109.152 259.062L110.955 256.687L111.553 257.141L113.356 254.766L112.759 254.312L114.563 251.937L115.16 252.391L116.963 250.016L116.366 249.562L118.17 247.187L118.767 247.641L120.571 245.266L119.973 244.812L121.777 242.437L122.374 242.891L124.178 240.516L123.58 240.062L125.384 237.687L125.981 238.141L127.785 235.766L127.188 235.312L128.991 232.937L129.588 233.391L131.392 231.016L130.795 230.562L132.598 228.187L133.196 228.641L134.999 226.266L134.402 225.812L136.205 223.437L136.803 223.891L138.606 221.516L138.009 221.062L139.813 218.687L140.41 219.141L142.213 216.766L141.616 216.312L143.42 213.937L144.017 214.391L145.821 212.016L145.223 211.562L147.027 209.187L147.624 209.641L149.428 207.266L148.83 206.812L150.634 204.437L151.231 204.891L153.035 202.516L152.438 202.062L154.241 199.687L154.838 200.141L156.642 197.766L156.045 197.312L157.848 194.937L158.446 195.391L160.249 193.016L159.652 192.562L161.455 190.187L162.053 190.641L163.856 188.266L163.259 187.812L165.063 185.437L165.66 185.891L167.463 183.516L166.866 183.062L168.67 180.687L169.267 181.141L171.071 178.766L170.473 178.312L172.277 175.937L172.874 176.391L174.678 174.016L174.08 173.562L175.884 171.187L176.481 171.641L178.285 169.266L177.688 168.812L179.491 166.437L180.088 166.891L181.892 164.516L181.295 164.062L183.098 161.687L183.696 162.141L185.499 159.766L184.902 159.312L186.705 156.937L187.303 157.391L189.106 155.016L188.509 154.562L190.313 152.187L190.91 152.641L192.713 150.266L192.116 149.812L193.92 147.437L194.517 147.891L196.321 145.516L195.723 145.062L197.527 142.687L198.124 143.141L199.928 140.766L199.33 140.312L201.134 137.937L201.731 138.391L203.535 136.016L202.938 135.562L204.741 133.187L205.338 133.641L207.142 131.266L206.545 130.812L208.348 128.437L208.946 128.891L210.749 126.516L210.152 126.062L211.955 123.687L212.553 124.141L214.356 121.766L213.759 121.312L215.563 118.937L216.16 119.391L217.963 117.016L217.366 116.562L219.17 114.187L219.767 114.641L221.571 112.266L220.973 111.812L222.777 109.437L223.374 109.891L225.178 107.516L224.58 107.062L226.384 104.687L226.981 105.141L228.785 102.766L228.188 102.312L229.991 99.9375L230.588 100.391L232.392 98.0161L231.795 97.5625L233.598 95.1875L234.196 95.6411L235.999 93.2661L235.402 92.8125L237.205 90.4375L237.803 90.8911L239.606 88.5161L239.009 88.0625L240.812 85.6875L241.41 86.1411L243.213 83.7661L242.616 83.3125L244.42 80.9375L245.017 81.3911L246.821 79.0161L246.223 78.5625L248.027 76.1875L248.624 76.6411L250.428 74.2661L249.83 73.8125L251.634 71.4375L252.231 71.8911L254.035 69.5161L253.438 69.0625L255.241 66.6875L255.838 67.1411L257.642 64.7661L257.045 64.3125L258.848 61.9375L259.446 62.3911L261.249 60.0161L260.652 59.5625L262.455 57.1875L263.053 57.6411L264.856 55.2661L264.259 54.8125L266.062 52.4375L266.66 52.8911L268.463 50.5161L267.866 50.0625L269.67 47.6875L270.267 48.1411L272.07 45.7661L271.473 45.3125L273.277 42.9375L273.874 43.3911L275.678 41.0161L275.08 40.5625L276.884 38.1875L277.481 38.6411L279.285 36.2661L278.688 35.8125L280.491 33.4375L281.088 33.8911L282.892 31.5161L282.295 31.0625Z" fill="#1A487F" stroke="#999999" stroke-width="1.5" stroke-dasharray="3 3"/>
  <path d="M73.5084 356H70.5028V356.75H69.75V357.479H69V360.437H69.75V363.396H69V366.354H69.75V369.312H69V372.271H69.75V375.229H69V378.187H69.75V381.146H69V384.104H69.75V387.062H69V390.021H69.75V392.979H69V395.937H69.75V398.896H69V401.854H69.75V404.812H69V407.771H69.75V410.729H69V413.687H69.75V416.646H69V419.604H69.75V422.562H69V425.521H69.75V428.479H69V431.438H69.75V434.396H69V437.354H69.75V440.313H69V443.271H69.75V446.229H69V449.188H69.75V452.146H69V455.104H69.75V458.062H69V461.021H69.75V463.979H69V466.938H69.75V469.896H69V472.854H69.75V475.812H69V478.771H69.75V481.729H69V484.688H69.75V487.646H69V490.604H69.75V493.562H69V496.521H69.75V497.25H70.503V498H73.5085V497.25H76.5141V498H79.5197V497.25H82.5252V498H85.5308V497.25H88.5363V498H91.5419V497.25H94.5474V498H97.553V497.25H100.559V498H103.564V497.25H106.57V498H109.575V497.25H112.581V498H115.586V497.25H118.592V498H121.597V497.25H124.603V498H127.609V497.25H130.614V498H133.62V497.25H136.625V498H139.631V497.25H142.636V498H145.642V497.25H148.647V498H151.653V497.25H154.659V498H157.664V497.25H160.67V498H163.675V497.25H166.681V498H169.686V497.25H172.692V498H175.697V497.25H178.703V498H181.708V497.25H184.714V498H187.72V497.25H190.725V498H193.731V497.25H196.736V498H199.742V497.25H202.747V498H205.753V497.25H208.758V498H211.764V497.25H214.77V498H217.775V497.25H220.781V498H223.786V497.25H226.792V498H229.797V497.25H232.803V498H235.808V497.25H238.814V498H241.82V497.25H244.825V498H247.831V497.25H250.836V498H253.842V497.25H256.847V498H259.853V497.25H262.858V498H265.864V497.25H268.87V498H271.875V497.25H274.881V498H277.886V497.25H280.892V498H283.897V497.25H286.903V498H289.908V497.25H292.914V498H295.92V497.25H298.925V498H301.931V497.25H304.936V498H307.942V497.25H310.947V498H313.953V497.25H316.958V498H319.964V497.25H322.97V498H325.975V497.25H328.981V498H331.986V497.25H334.992V498H337.997V497.25H341.003V498H344.008V497.25H347.014V498H350.02V497.25H353.025V498H356.031V497.25H359.036V498H362.042V497.25H365.047V498H368.053V497.25H371.058V498H374.064V497.25H377.07V498H380.075V497.25H383.081V498H386.086V497.25H389.092V498H392.097V497.25H395.103V498H398.108V497.25H401.114V498H404.12V497.25H407.125V498H410.131V497.25H413.136V498H416.142V497.25H419.147V498H422.153V497.25H425.158V498H428.164V497.25H431.169V498H434.175V497.25H437.181V498H440.186V497.25H443.192V498H446.197V497.25H449.203V498H452.208V497.25H455.214V498H458.219V497.25H461.225V498H464.231V497.25H467.236V498H470.242V497.25H473.247V498H476.253V497.25H479.258V498H482.264V497.25H485.269V498H488.275V497.25H491.281V498H494.286V497.25H497.292V498H500.297V497.25H503.303V498H506.308V497.25H509.314V498H512.319V497.25H515.325V498H518.331V497.25H521.336V498H524.342V497.25H527.347V498H530.353V497.25H533.358V498H536.364V497.25H539.369V498H542.375V497.25H545.381V498H548.386V497.25H551.392V498H554.397V497.25H557.403V498H560.408V497.25H563.414V498H566.419V497.25H569.425V498H572.431V497.25H575.436V498H578.442V497.25H581.447V498H584.453V497.25H587.458V498H590.464V497.25H593.469V498H596.475V497.25H599.481V498H602.486V497.25H605.492V498H608.497V497.25H609.25V496.521H610V493.563H609.25V490.604H610V487.646H609.25V484.688H610V481.729H609.25V478.771H610V475.813H609.25V472.854H610V469.896H609.25V466.938H610V463.979H609.25V461.021H610V458.063H609.25V455.104H610V452.146H609.25V449.188H610V446.229H609.25V443.271H610V440.313H609.25V437.354H610V434.396H609.25V431.438H610V428.479H609.25V425.521H610V422.562H609.25V419.604H610V416.646H609.25V413.687H610V410.729H609.25V407.771H610V404.812H609.25V401.854H610V398.896H609.25V395.938H610V392.979H609.25V390.021H610V387.063H609.25V384.104H610V381.146H609.25V378.188H610V375.229H609.25V372.271H610V369.312H609.25V366.354H610V363.396H609.25V360.438H610V357.479H609.25V356.75H608.497V356H605.491V356.75H602.486V356H599.48V356.75H596.475V356H593.469V356.75H590.464V356H587.458V356.75H584.453V356H581.447V356.75H578.441V356H575.436V356.75H572.43V356H569.425V356.75H566.419V356H563.414V356.75H560.408V356H557.403V356.75H554.397V356H551.391V356.75H548.386V356H545.38V356.75H542.375V356H539.369V356.75H536.364V356H533.358V356.75H530.353V356H527.347V356.75H524.341V356H521.336V356.75H518.33V356H515.325V356.75H512.319V356H509.314V356.75H506.308V356H503.303V356.75H500.297V356H497.292V356.75H494.286V356H491.28V356.75H488.275V356H485.269V356.75H482.264V356H479.258V356.75H476.253V356H473.247V356.75H470.242V356H467.236V356.75H464.23V356H461.225V356.75H458.219V356H455.214V356.75H452.208V356H449.203V356.75H446.197V356H443.192V356.75H440.186V356H437.18V356.75H434.175V356H431.169V356.75H428.164V356H425.158V356.75H422.153V356H419.147V356.75H416.142V356H413.136V356.75H410.13V356H407.125V356.75H404.119V356H401.114V356.75H398.108V356H395.103V356.75H392.097V356H389.092V356.75H386.086V356H383.08V356.75H380.075V356H377.069V356.75H374.064V356H371.058V356.75H368.053V356H365.047V356.75H362.042V356H359.036V356.75H356.03V356H353.025V356.75H350.019V356H347.014V356.75H344.008V356H341.003V356.75H337.997V356H334.992V356.75H331.986V356H328.98V356.75H325.975V356H322.969V356.75H319.964V356H316.958V356.75H313.953V356H310.947V356.75H307.942V356H304.936V356.75H301.93V356H298.925V356.75H295.919V356H292.914V356.75H289.908V356H286.903V356.75H283.897V356H280.892V356.75H277.886V356H274.88V356.75H271.875V356H268.869V356.75H265.864V356H262.858V356.75H259.853V356H256.847V356.75H253.842V356H250.836V356.75H247.831V356H244.825V356.75H241.819V356H238.814V356.75H235.808V356H232.803V356.75H229.797V356H226.792V356.75H223.786V356H220.781V356.75H217.775V356H214.769V356.75H211.764V356H208.758V356.75H205.753V356H202.747V356.75H199.742V356H196.736V356.75H193.731V356H190.725V356.75H187.719V356H184.714V356.75H181.708V356H178.703V356.75H175.697V356H172.692V356.75H169.686V356H166.681V356.75H163.675V356H160.669V356.75H157.664V356H154.658V356.75H151.653V356H148.647V356.75H145.642V356H142.636V356.75H139.631V356H136.625V356.75H133.619V356H130.614V356.75H127.608V356H124.603V356.75H121.597V356H118.592V356.75H115.586V356H112.581V356.75H109.575V356H106.569V356.75H103.564V356H100.558V356.75H97.5528V356H94.5472V356.75H91.5417V356H88.5361V356.75H85.5306V356H82.525V356.75H79.5195V356H76.5139V356.75H73.5084V356Z" fill="#1A487F" stroke="#999999" stroke-width="1.5" stroke-dasharray="3 3"/>
  <path d="M390.728 21.5937L388.909 19.1979L388.312 19.6514L387.912 19.1242L387.438 19.5792L386.918 19.0381L384.755 21.1142L385.275 21.6552L383.112 23.7313L382.592 23.1902L380.429 25.2663L380.949 25.8074L378.786 27.8835L378.266 27.3424L376.103 29.4185L376.623 29.9596L374.46 32.0357L373.94 31.4946L371.777 33.5707L372.297 34.1118L370.133 36.1878L369.614 35.6467L367.451 37.7228L367.97 38.2639L365.807 40.34L365.288 39.7989L363.125 41.875L363.644 42.4161L361.481 44.4922L360.962 43.9511L358.799 46.0272L359.318 46.5683L357.155 48.6444L356.636 48.1033L354.473 50.1794L354.992 50.7204L352.829 52.7965L352.31 52.2554L350.147 54.3315L350.666 54.8726L348.503 56.9487L347.984 56.4076L345.821 58.4837L346.34 59.0248L344.177 61.1009L343.658 60.5598L341.495 62.6359L342.014 63.177L339.851 65.253L339.332 64.712L337.168 66.788L337.688 67.3291L335.525 69.4052L335.005 68.8641L332.842 70.9402L333.362 71.4813L331.199 73.5574L330.679 73.0163L328.516 75.0924L329.036 75.6335L326.873 77.7096L326.353 77.1685L324.19 79.2446L324.71 79.7857L322.547 81.8617L322.027 81.3206L319.864 83.3967L320.383 83.9378L318.22 86.0139L317.701 85.4728L315.538 87.5489L316.057 88.09L313.894 90.1661L313.375 89.625L311.212 91.7011L311.731 92.2422L309.568 94.3183L309.049 93.7772L306.886 95.8533L307.405 96.3944L305.242 98.4704L304.723 97.9294L302.56 100.005L303.079 100.547L300.916 102.623L300.397 102.082L298.234 104.158L298.753 104.699L296.59 106.775L296.071 106.234L293.908 108.31L294.427 108.851L292.264 110.927L291.745 110.386L289.582 112.462L290.101 113.003L289.498 113.581L290 114.25L289.4 114.7L291.2 117.1L291.8 116.65L293.6 119.05L293 119.5L294.8 121.9L295.4 121.45L297.2 123.85L296.6 124.3L298.4 126.7L299 126.25L300.8 128.65L300.2 129.1L302 131.5L302.6 131.05L304.4 133.45L303.8 133.9L305.6 136.3L306.2 135.85L308 138.25L307.4 138.7L309.2 141.1L309.8 140.65L311.6 143.05L311 143.5L312.8 145.9L313.4 145.45L315.2 147.85L314.6 148.3L316.4 150.7L317 150.25L318.8 152.65L318.2 153.1L320 155.5L320.6 155.05L322.4 157.45L321.8 157.9L323.6 160.3L324.2 159.85L326 162.25L325.4 162.7L327.2 165.1L327.8 164.65L329.6 167.05L329 167.5L330.8 169.9L331.4 169.45L333.2 171.85L332.6 172.3L334.4 174.7L335 174.25L336.8 176.65L336.2 177.1L338 179.5L338.6 179.05L340.4 181.45L339.8 181.9L341.6 184.3L342.2 183.85L344 186.25L343.4 186.7L345.2 189.1L345.8 188.65L347.6 191.05L347 191.5L348.8 193.9L349.4 193.45L351.2 195.85L350.6 196.3L352.4 198.7L353 198.25L354.8 200.65L354.2 201.1L356 203.5L356.6 203.05L358.4 205.45L357.8 205.9L359.6 208.3L360.2 207.85L362 210.25L361.4 210.7L363.2 213.1L363.8 212.65L365.6 215.05L365 215.5L366.8 217.9L367.4 217.45L369.2 219.85L368.6 220.3L370.4 222.7L371 222.25L372.8 224.65L372.2 225.1L374 227.5L374.6 227.05L376.4 229.45L375.8 229.9L377.6 232.3L378.2 231.85L380 234.25L379.4 234.7L381.2 237.1L381.8 236.65L383.6 239.05L383 239.5L384.8 241.9L385.4 241.45L387.2 243.85L386.6 244.3L388.4 246.7L389 246.25L390.8 248.65L390.2 249.1L392 251.5L392.6 251.05L394.4 253.45L393.8 253.9L395.6 256.3L396.2 255.85L398 258.25L397.4 258.7L399.2 261.1L399.8 260.65L401.6 263.05L401 263.5L402.8 265.9L403.4 265.45L405.2 267.85L404.6 268.3L406.4 270.7L407 270.25L408.8 272.65L408.2 273.1L410 275.5L410.6 275.05L412.4 277.45L411.8 277.9L413.6 280.3L414.2 279.85L416 282.25L415.4 282.7L417.2 285.1L417.8 284.65L419.6 287.05L419 287.5L420.8 289.9L421.4 289.45L423.2 291.85L422.6 292.3L424.4 294.7L425 294.25L426.8 296.65L426.2 297.1L428 299.5L428.6 299.05L430.4 301.45L429.8 301.9L431.6 304.3L432.2 303.85L434 306.25L433.4 306.7L435.2 309.1L435.8 308.65L437.6 311.05L437 311.5L438.8 313.9L439.4 313.45L441.2 315.85L440.6 316.3L442.4 318.7L443 318.25L444.8 320.65L444.2 321.1L446 323.5L446.6 323.05L448.4 325.45L447.8 325.9L449.6 328.3L450.2 327.85L452 330.25L451.4 330.7L453.2 333.1L453.8 332.65L455.6 335.05L455 335.5L456.8 337.9L457.4 337.45L459.2 339.85L458.6 340.3L460.4 342.7L461 342.25L462.8 344.65L462.2 345.1L464 347.5L464.6 347.05L466.4 349.45L465.8 349.9L467.6 352.3L468.2 351.85L470 354.25L469.4 354.7L471.2 357.1L471.8 356.65L473.6 359.05L473 359.5L474.8 361.9L475.4 361.45L477.2 363.85L476.6 364.3L478.4 366.7L479 366.25L480.8 368.65L480.2 369.1L482 371.5L482.6 371.05L484.4 373.45L483.8 373.9L485.6 376.3L486.2 375.85L488 378.25L487.4 378.7L489.2 381.1L489.8 380.65L491.6 383.05L491 383.5L492.8 385.9L493.4 385.45L495.2 387.85L494.6 388.3L496.4 390.7L497 390.25L498.8 392.65L498.2 393.1L500 395.5L500.6 395.05L502.4 397.45L501.8 397.9L503.6 400.3L504.2 399.85L506 402.25L505.4 402.7L507.2 405.1L507.8 404.65L509.6 407.05L509 407.5L510.8 409.9L511.4 409.45L513.2 411.85L512.6 412.3L514.4 414.7L515 414.25L516.8 416.65L516.2 417.1L518 419.5L518.6 419.05L520.4 421.45L519.8 421.9L521.6 424.3L522.2 423.85L524 426.25L523.4 426.7L525.2 429.1L525.8 428.65L527.6 431.05L527 431.5L528.8 433.9L529.4 433.45L531.2 435.85L530.6 436.3L532.4 438.7L533 438.25L534.8 440.65L534.2 441.1L536 443.5L536.6 443.05L538.4 445.45L537.8 445.9L539.6 448.3L540.2 447.85L542 450.25L541.4 450.7L543.2 453.1L543.8 452.65L545.6 455.05L545 455.5L546.8 457.9L547.4 457.45L549.2 459.85L548.6 460.3L550.4 462.7L551 462.25L552.8 464.65L552.2 465.1L554 467.5L554.6 467.05L556.4 469.45L555.8 469.9L557.6 472.3L558.2 471.85L558.658 472.461L559.292 472.003L559.731 472.611L562.193 470.834L561.754 470.226L564.216 468.449L564.655 469.057L567.117 467.28L566.678 466.672L569.14 464.895L569.579 465.503L572.041 463.726L571.602 463.117L574.064 461.34L574.503 461.948L576.965 460.171L576.526 459.563L578.988 457.786L579.427 458.394L581.889 456.617L581.45 456.009L583.912 454.232L584.351 454.84L586.812 453.062L586.374 452.454L588.835 450.677L589.274 451.285L591.736 449.508L591.297 448.9L593.759 447.123L594.198 447.731L596.66 445.954L596.221 445.346L598.683 443.569L599.122 444.177L601.584 442.399L601.145 441.791L603.607 440.014L604.046 440.622L606.508 438.845L606.069 438.237L608.531 436.46L608.97 437.068L611.432 435.291L610.993 434.683L613.455 432.905L613.894 433.514L616.356 431.736L615.917 431.128L618.379 429.351L618.818 429.959L621.28 428.182L620.841 427.574L623.303 425.797L623.742 426.405L626.204 424.628L625.765 424.02L628.227 422.242L628.666 422.851L631.128 421.073L630.689 420.465L633.151 418.688L633.59 419.296L636.052 417.519L635.613 416.911L638.075 415.134L638.514 415.742L640.976 413.965L640.537 413.357L642.999 411.579L643.438 412.188L645.899 410.41L645.46 409.802L647.922 408.025L648.361 408.633L650.823 406.856L650.384 406.248L652.846 404.471L653.285 405.079L655.747 403.302L655.308 402.694L657.77 400.916L658.209 401.524L660.671 399.747L660.232 399.139L662.694 397.362L663.133 397.97L665.595 396.193L665.156 395.585L667.618 393.808L668.057 394.416L670.519 392.639L670.08 392.03L670.688 391.592L670.243 391.005L670.84 390.552L669.021 388.156L668.424 388.61L666.605 386.214L667.203 385.76L665.384 383.364L664.786 383.818L662.967 381.422L663.565 380.969L661.746 378.573L661.149 379.026L659.33 376.63L659.927 376.177L658.108 373.781L657.511 374.235L655.692 371.839L656.289 371.385L654.47 368.989L653.873 369.443L652.054 367.047L652.651 366.594L650.832 364.198L650.235 364.651L648.416 362.255L649.014 361.802L647.195 359.406L646.597 359.86L644.778 357.464L645.376 357.01L643.557 354.615L642.959 355.068L641.141 352.672L641.738 352.219L639.919 349.823L639.322 350.276L637.503 347.881L638.1 347.427L636.281 345.031L635.684 345.485L633.865 343.089L634.462 342.635L632.643 340.24L632.046 340.693L630.227 338.297L630.824 337.844L629.006 335.448L628.408 335.901L626.589 333.506L627.187 333.052L625.368 330.656L624.77 331.11L622.952 328.714L623.549 328.26L621.73 325.865L621.133 326.318L619.314 323.922L619.911 323.469L618.092 321.073L617.495 321.526L615.676 319.131L616.273 318.677L614.454 316.281L613.857 316.735L612.038 314.339L612.635 313.885L610.817 311.49L610.219 311.943L608.4 309.547L608.998 309.094L607.179 306.698L606.581 307.151L604.762 304.756L605.36 304.302L603.541 301.906L602.944 302.36L601.125 299.964L601.722 299.51L599.903 297.115L599.306 297.568L597.487 295.172L598.084 294.719L596.265 292.323L595.668 292.776L593.849 290.381L594.446 289.927L592.627 287.531L592.03 287.985L590.211 285.589L590.809 285.135L588.99 282.74L588.392 283.193L586.573 280.797L587.171 280.344L585.352 277.948L584.754 278.402L582.936 276.006L583.533 275.552L581.714 273.156L581.117 273.61L579.298 271.214L579.895 270.761L578.076 268.365L577.479 268.818L575.66 266.422L576.257 265.969L574.438 263.573L573.841 264.027L572.022 261.631L572.62 261.177L570.801 258.781L570.203 259.235L568.384 256.839L568.982 256.386L567.163 253.99L566.565 254.443L564.747 252.047L565.344 251.594L563.525 249.198L562.928 249.652L561.109 247.256L561.706 246.802L559.887 244.406L559.29 244.86L557.471 242.464L558.068 242.011L556.249 239.615L555.652 240.068L553.833 237.672L554.43 237.219L552.612 234.823L552.014 235.277L550.195 232.881L550.793 232.427L548.974 230.031L548.376 230.485L546.557 228.089L547.155 227.636L545.336 225.24L544.739 225.693L542.92 223.298L543.517 222.844L541.698 220.448L541.101 220.902L539.282 218.506L539.879 218.052L538.06 215.656L537.463 216.11L535.644 213.714L536.241 213.261L534.422 210.865L533.825 211.318L532.006 208.922L532.604 208.469L530.785 206.073L530.187 206.527L528.368 204.131L528.966 203.677L527.147 201.281L526.549 201.735L524.731 199.339L525.328 198.886L523.509 196.49L522.912 196.943L521.093 194.547L521.69 194.094L519.871 191.698L519.274 192.152L517.455 189.756L518.052 189.302L516.233 186.906L515.636 187.36L513.817 184.964L514.414 184.511L512.595 182.115L511.998 182.568L510.179 180.172L510.777 179.719L508.958 177.323L508.36 177.777L506.541 175.381L507.139 174.927L505.32 172.531L504.722 172.985L502.904 170.589L503.501 170.136L501.682 167.74L501.085 168.193L499.266 165.797L499.863 165.344L498.044 162.948L497.447 163.402L495.628 161.006L496.225 160.552L494.406 158.156L493.809 158.61L491.99 156.214L492.587 155.76L490.768 153.365L490.171 153.818L488.352 151.422L488.95 150.969L487.131 148.573L486.533 149.026L484.714 146.631L485.312 146.177L483.493 143.781L482.895 144.235L481.077 141.839L481.674 141.385L479.855 138.99L479.258 139.443L477.439 137.047L478.036 136.594L476.217 134.198L475.62 134.651L473.801 132.256L474.398 131.802L472.579 129.406L471.982 129.86L470.163 127.464L470.76 127.01L468.942 124.615L468.344 125.068L466.525 122.672L467.123 122.219L465.304 119.823L464.706 120.276L462.887 117.881L463.485 117.427L461.666 115.031L461.069 115.485L459.25 113.089L459.847 112.635L458.028 110.24L457.431 110.693L455.612 108.297L456.209 107.844L454.39 105.448L453.793 105.901L451.974 103.506L452.571 103.052L450.752 100.656L450.155 101.11L448.336 98.7139L448.933 98.2604L447.115 95.8646L446.517 96.3181L444.698 93.9223L445.296 93.4688L443.477 91.0729L442.879 91.5264L441.061 89.1306L441.658 88.6771L439.839 86.2812L439.242 86.7348L437.423 84.3389L438.02 83.8854L436.201 81.4896L435.604 81.9431L433.785 79.5473L434.382 79.0937L432.563 76.6979L431.966 77.1514L430.147 74.7556L430.744 74.3021L428.925 71.9062L428.328 72.3598L426.509 69.9639L427.107 69.5104L425.288 67.1146L424.69 67.5681L422.871 65.1723L423.469 64.7188L421.65 62.3229L421.052 62.7764L419.234 60.3806L419.831 59.9271L418.012 57.5313L417.415 57.9848L415.596 55.5889L416.193 55.1354L414.374 52.7396L413.777 53.1931L411.958 50.7973L412.555 50.3438L410.736 47.9479L410.139 48.4014L408.32 46.0056L408.917 45.5521L407.099 43.1562L406.501 43.6098L404.682 41.2139L405.28 40.7604L403.461 38.3646L402.863 38.8181L401.044 36.4223L401.642 35.9687L399.823 33.5729L399.226 34.0264L397.407 31.6306L398.004 31.1771L396.185 28.7812L395.588 29.2348L393.769 26.8389L394.366 26.3854L392.547 23.9896L391.95 24.4431L390.131 22.0473L390.728 21.5937Z" fill="#1A487F" stroke="#999999" stroke-width="1.5" stroke-dasharray="3 3"/>
  <path d="M291.449 292.5H285.374V311H289.074V304.425H291.549C295.524 304.425 298.699 302.525 298.699 298.3C298.699 293.9 295.524 292.5 291.449 292.5ZM291.299 301.5H289.074V295.425H291.174C293.749 295.425 295.074 296.125 295.074 298.3C295.074 300.425 293.824 301.5 291.299 301.5ZM301.249 291.05V311H304.899V291.05H301.249ZM312.085 311.25C313.685 311.25 315.11 310.6 316.31 309.575H316.385L316.66 311H319.66V302.825C319.66 298.7 317.86 296.65 314.285 296.65C312.085 296.65 309.985 297.375 308.46 298.3L309.56 300.925C310.835 300.1 312.31 299.6 313.61 299.6C314.685 299.6 315.36 299.825 315.66 300.25C315.935 300.825 316.06 301.425 315.985 302.025C310.185 302.2 307.76 303.775 307.935 307.2C307.935 309.625 309.585 311.25 312.085 311.25ZM313.21 308.45C312.135 308.45 311.335 307.75 311.31 306.575C311.285 305.575 311.86 304.775 313.46 304.55C314.26 304.425 315.11 304.35 315.985 304.275V307.1C315.11 307.975 314.285 308.425 313.21 308.45ZM327.566 311.35C328.791 311.35 329.741 311.1 330.516 310.825L329.916 308.15C329.541 308.325 329.016 308.45 328.541 308.45C327.266 308.45 326.641 307.675 326.641 306.1V299.9H330.091V297H326.641V293.25H323.566L323.141 297L320.991 297.175V299.9H322.966V306.1C322.966 309.25 324.241 311.35 327.566 311.35ZM339.914 293.9L340.589 291.2C339.964 290.925 339.014 290.7 337.939 290.7C334.414 290.7 333.064 292.95 333.064 295.875V297.025L331.189 297.175V299.9H333.064V311H336.739V299.9H339.364V297H336.739V295.8C336.739 294.2 337.339 293.6 338.439 293.6C338.914 293.6 339.439 293.725 339.914 293.9ZM347.091 311.35C350.591 311.35 353.816 308.625 353.816 304.025C353.816 299.35 350.591 296.65 347.091 296.65C343.591 296.65 340.366 299.35 340.366 304.025C340.366 308.625 343.591 311.35 347.091 311.35ZM347.091 308.35C345.191 308.35 344.116 306.65 344.116 304.025C344.116 301.325 345.191 299.65 347.091 299.65C348.991 299.65 350.066 301.325 350.066 304.025C350.066 306.65 348.991 308.35 347.091 308.35ZM359.391 297H356.391V311H360.041V302.65C360.841 300.625 362.166 299.9 363.266 299.9C363.841 299.9 364.241 299.95 364.716 300.125L365.366 296.95C364.941 296.775 364.491 296.65 363.716 296.65C362.216 296.65 360.766 297.65 359.741 299.475H359.641L359.391 297ZM369.779 297H366.779V311H370.429V301.375C371.429 300.325 372.329 299.8 373.129 299.8C374.454 299.8 375.079 300.525 375.079 302.725V311H378.754V301.375C379.754 300.325 380.654 299.8 381.454 299.8C382.779 299.8 383.404 300.525 383.404 302.725V311H387.079V302.275C387.079 298.75 385.729 296.65 382.729 296.65C380.904 296.65 379.554 297.7 378.279 299.1C377.604 297.5 376.429 296.65 374.429 296.65C372.604 296.65 371.304 297.65 370.129 298.875H370.029L369.779 297Z" fill="white"/>
  <circle cx="340" cy="70.5" r="69.75" fill="white" stroke="#333333" stroke-width="1.5"/>
  <path d="M306.75 76.234C309.504 76.234 311.232 74.578 311.232 72.49C311.232 70.528 310.044 69.628 308.514 68.962L306.624 68.152C305.598 67.72 304.446 67.252 304.446 65.956C304.446 64.732 305.4 64.012 306.912 64.012C308.136 64.012 309.108 64.48 309.918 65.254L310.8 64.192C309.864 63.184 308.496 62.554 306.912 62.554C304.518 62.554 302.754 64.03 302.754 66.064C302.754 68.008 304.23 68.926 305.436 69.448L307.344 70.276C308.586 70.852 309.54 71.266 309.54 72.616C309.54 73.912 308.496 74.776 306.768 74.776C305.4 74.776 304.068 74.146 303.114 73.138L302.124 74.272C303.276 75.496 304.878 76.234 306.75 76.234ZM313.836 62.806H312.108L314.916 76H316.896L318.858 68.044C319.074 66.964 319.308 66.046 319.524 65.038H319.596C319.812 66.046 320.01 66.964 320.244 68.044L322.242 76H324.24L326.976 62.806H325.374L323.988 69.988C323.736 71.392 323.484 72.814 323.232 74.254H323.142C322.836 72.814 322.548 71.428 322.206 69.988L320.352 62.806H318.84L317.022 69.988C316.68 71.428 316.374 72.814 316.068 74.254H315.996C315.726 72.814 315.492 71.428 315.222 69.988L313.836 62.806ZM345.418 77.332V61.186H343.996V67.684H341.8V61.618H340.414V76.522H341.8V68.89H343.996V77.332H345.418ZM338.632 63.274H332.332V64.48H337.174C336.94 67.846 335.446 70.708 331.72 72.814L332.584 73.876C337.192 71.284 338.632 67.432 338.632 63.274ZM362.841 65.884V64.66H360.447V61.204H358.971V69.538H360.447V65.884H362.841ZM348.585 68.908H356.055V61.852H354.615V64.174H350.043V61.852H348.585V68.908ZM350.043 65.308H354.615V67.72H350.043V65.308ZM361.041 75.982H351.681V74.218H360.447V70.294H350.187V71.464H358.989V73.12H350.241V77.152H361.041V75.982ZM376.537 68.962H379.201V67.738H376.537V61.204H375.061V77.332H376.537V68.962ZM369.535 65.488V62.59H368.077V65.488C368.077 68.422 366.241 71.5 363.919 72.706L364.801 73.894C366.619 72.886 368.113 70.942 368.815 68.548C369.535 70.78 370.993 72.652 372.721 73.57L373.639 72.4C371.389 71.248 369.535 68.314 369.535 65.488Z" fill="#333333"/>
  <path d="M173.125 219.68V233H175.519V227.438C175.519 226.196 175.321 224.306 175.177 223.064H175.249L176.311 226.196L178.381 231.794H179.911L181.963 226.196L183.043 223.064H183.115C182.971 224.306 182.791 226.196 182.791 227.438V233H185.221V219.68H182.269L180.055 225.908C179.767 226.754 179.533 227.618 179.245 228.482H179.155C178.885 227.618 178.633 226.754 178.345 225.908L176.077 219.68H173.125ZM192.287 233.252C193.583 233.252 194.807 232.838 195.815 232.136L194.915 230.516C194.195 230.966 193.493 231.218 192.647 231.218C191.135 231.218 190.073 230.354 189.857 228.698H196.067C196.139 228.464 196.193 227.978 196.193 227.492C196.193 224.702 194.753 222.668 191.981 222.668C189.587 222.668 187.283 224.72 187.283 227.978C187.283 231.29 189.479 233.252 192.287 233.252ZM193.925 226.952H189.821C190.019 225.494 190.955 224.72 192.017 224.72C193.313 224.72 193.925 225.584 193.925 226.952ZM201.557 233.252C202.637 233.252 203.609 232.676 204.347 231.956H204.401L204.617 233H206.759V218.636H204.113V222.182L204.221 223.766C203.501 223.1 202.817 222.668 201.665 222.668C199.487 222.668 197.435 224.684 197.435 227.978C197.435 231.272 199.037 233.252 201.557 233.252ZM202.241 231.074C200.855 231.074 200.153 230.03 200.153 227.942C200.153 225.926 201.107 224.846 202.241 224.846C202.871 224.846 203.483 225.044 204.113 225.602V230.03C203.537 230.804 202.943 231.074 202.241 231.074ZM211.629 221.3V218.744H209.001V221.3H211.629ZM208.983 233H211.611V222.92H208.983V233ZM218.134 233.252C219.286 233.252 220.474 232.874 221.428 232.028L220.384 230.282C219.826 230.768 219.142 231.092 218.422 231.092C216.676 231.092 215.92 229.508 215.92 227.978C215.92 226.034 216.964 224.828 218.494 224.828C219.07 224.828 219.538 225.062 220.042 225.494L221.302 223.784C220.564 223.154 219.61 222.668 218.368 222.668C215.632 222.668 213.22 224.612 213.22 227.978C213.22 231.29 215.344 233.252 218.134 233.252ZM225.466 233.18C226.618 233.18 227.644 232.712 228.508 231.974H228.562L228.76 233H230.92V227.114C230.92 224.144 229.624 222.668 227.05 222.668C225.466 222.668 223.954 223.19 222.856 223.856L223.648 225.746C224.566 225.152 225.628 224.792 226.564 224.792C227.338 224.792 227.824 224.954 228.04 225.26C228.238 225.674 228.328 226.106 228.274 226.538C224.098 226.664 222.352 227.798 222.478 230.264C222.478 232.01 223.666 233.18 225.466 233.18ZM226.276 231.164C225.502 231.164 224.926 230.66 224.908 229.814C224.89 229.094 225.304 228.518 226.456 228.356C227.032 228.266 227.644 228.212 228.274 228.158V230.192C227.644 230.822 227.05 231.146 226.276 231.164ZM233.257 233H235.885V218.636H233.257V233ZM185.536 244.68V258H188.2V244.68H185.536ZM190.901 247.92V258H193.529V251.07C194.303 250.332 194.789 249.936 195.635 249.936C196.643 249.936 197.057 250.476 197.057 252.042V258H199.703V251.718C199.703 249.18 198.767 247.668 196.589 247.668C195.221 247.668 194.195 248.388 193.313 249.252H193.241L193.061 247.92H190.901ZM207.454 245.688L207.94 243.744C207.49 243.546 206.806 243.384 206.032 243.384C203.494 243.384 202.522 245.004 202.522 247.11V247.938L201.172 248.046V250.008H202.522V258H205.168V250.008H207.058V247.92H205.168V247.056C205.168 245.904 205.6 245.472 206.392 245.472C206.734 245.472 207.112 245.562 207.454 245.688ZM208.41 247.92V258H211.038V251.988C211.614 250.53 212.568 250.008 213.36 250.008C213.774 250.008 214.062 250.044 214.404 250.17L214.872 247.884C214.566 247.758 214.242 247.668 213.684 247.668C212.604 247.668 211.56 248.388 210.822 249.702H210.75L210.57 247.92H208.41ZM218.373 258.18C219.525 258.18 220.551 257.712 221.415 256.974H221.469L221.667 258H223.827V252.114C223.827 249.144 222.531 247.668 219.957 247.668C218.373 247.668 216.861 248.19 215.763 248.856L216.555 250.746C217.473 250.152 218.535 249.792 219.471 249.792C220.245 249.792 220.731 249.954 220.947 250.26C221.145 250.674 221.235 251.106 221.181 251.538C217.005 251.664 215.259 252.798 215.385 255.264C215.385 257.01 216.573 258.18 218.373 258.18ZM219.183 256.164C218.409 256.164 217.833 255.66 217.815 254.814C217.797 254.094 218.211 253.518 219.363 253.356C219.939 253.266 220.551 253.212 221.181 253.158V255.192C220.551 255.822 219.957 256.146 219.183 256.164Z" fill="white"/>
  <path d="M297.587 422.752C299.333 422.752 300.737 422.104 301.835 420.79L300.431 419.134C299.711 419.908 298.829 420.448 297.677 420.448C295.571 420.448 294.203 418.702 294.203 415.804C294.203 412.942 295.715 411.214 297.731 411.214C298.739 411.214 299.513 411.682 300.179 412.33L301.583 410.638C300.719 409.72 299.405 408.928 297.677 408.928C294.311 408.928 291.485 411.502 291.485 415.894C291.485 420.34 294.203 422.752 297.587 422.752ZM303.405 422.5H306.033V408.136H303.405V422.5ZM311.117 410.8V408.244H308.489V410.8H311.117ZM308.471 422.5H311.099V412.42H308.471V422.5ZM313.337 412.42V422.5H315.965V415.57C316.739 414.832 317.225 414.436 318.071 414.436C319.079 414.436 319.493 414.976 319.493 416.542V422.5H322.139V416.218C322.139 413.68 321.203 412.168 319.025 412.168C317.657 412.168 316.631 412.888 315.749 413.752H315.677L315.497 412.42H313.337ZM326.903 410.8V408.244H324.275V410.8H326.903ZM324.257 422.5H326.885V412.42H324.257V422.5ZM333.407 422.752C334.559 422.752 335.747 422.374 336.701 421.528L335.657 419.782C335.099 420.268 334.415 420.592 333.695 420.592C331.949 420.592 331.193 419.008 331.193 417.478C331.193 415.534 332.237 414.328 333.767 414.328C334.343 414.328 334.811 414.562 335.315 414.994L336.575 413.284C335.837 412.654 334.883 412.168 333.641 412.168C330.905 412.168 328.493 414.112 328.493 417.478C328.493 420.79 330.617 422.752 333.407 422.752ZM340.739 422.68C341.891 422.68 342.917 422.212 343.781 421.474H343.835L344.033 422.5H346.193V416.614C346.193 413.644 344.897 412.168 342.323 412.168C340.739 412.168 339.227 412.69 338.129 413.356L338.921 415.246C339.839 414.652 340.901 414.292 341.837 414.292C342.611 414.292 343.097 414.454 343.313 414.76C343.511 415.174 343.601 415.606 343.547 416.038C339.371 416.164 337.625 417.298 337.751 419.764C337.751 421.51 338.939 422.68 340.739 422.68ZM341.549 420.664C340.775 420.664 340.199 420.16 340.181 419.314C340.163 418.594 340.577 418.018 341.729 417.856C342.305 417.766 342.917 417.712 343.547 417.658V419.692C342.917 420.322 342.323 420.646 341.549 420.664ZM348.53 422.5H351.158V408.136H348.53V422.5ZM361.76 422.752C364.838 422.752 366.656 420.898 366.656 418.72C366.656 416.776 365.63 415.768 363.974 415.102L362.228 414.364C361.094 413.932 360.14 413.518 360.14 412.618C360.14 411.736 360.896 411.214 362.066 411.214C363.164 411.214 364.046 411.61 364.892 412.312L366.242 410.638C365.162 409.54 363.65 408.928 362.066 408.928C359.384 408.928 357.458 410.602 357.458 412.78C357.458 414.724 358.808 415.786 360.158 416.362L361.94 417.118C363.146 417.64 363.938 417.91 363.938 418.918C363.938 419.854 363.2 420.448 361.814 420.448C360.644 420.448 359.384 419.854 358.43 418.972L356.9 420.808C358.196 422.05 359.96 422.752 361.76 422.752ZM367.34 409.18L369.914 422.5H373.172L374.63 415.912C374.846 414.832 375.008 413.842 375.206 412.834H375.278C375.44 413.842 375.638 414.832 375.854 415.912L377.348 422.5H380.66L383.126 409.18H380.588L379.544 415.678C379.346 417.064 379.148 418.486 378.95 419.926H378.86C378.572 418.486 378.302 417.046 378.014 415.678L376.466 409.18H374.198L372.65 415.678C372.362 417.064 372.074 418.486 371.804 419.926H371.732C371.534 418.486 371.318 417.118 371.12 415.678L370.058 409.18H367.34ZM302.499 447.5H305.469L302.355 442.046C303.885 441.452 304.893 440.246 304.893 438.212C304.893 435.134 302.697 434.18 299.889 434.18H295.245V447.5H297.909V442.46H299.763L302.499 447.5ZM297.909 440.354V436.286H299.637C301.365 436.286 302.283 436.772 302.283 438.212C302.283 439.652 301.365 440.354 299.637 440.354H297.909ZM311.313 447.752C312.609 447.752 313.833 447.338 314.841 446.636L313.941 445.016C313.221 445.466 312.519 445.718 311.673 445.718C310.161 445.718 309.099 444.854 308.883 443.198H315.093C315.165 442.964 315.219 442.478 315.219 441.992C315.219 439.202 313.779 437.168 311.007 437.168C308.613 437.168 306.309 439.22 306.309 442.478C306.309 445.79 308.505 447.752 311.313 447.752ZM312.951 441.452H308.847C309.045 439.994 309.981 439.22 311.043 439.22C312.339 439.22 312.951 440.084 312.951 441.452ZM322.42 435.188L322.906 433.244C322.456 433.046 321.772 432.884 320.998 432.884C318.46 432.884 317.488 434.504 317.488 436.61V437.438L316.138 437.546V439.508H317.488V447.5H320.134V439.508H322.024V437.42H320.134V436.556C320.134 435.404 320.566 434.972 321.358 434.972C321.7 434.972 322.078 435.062 322.42 435.188ZM327.749 447.752C329.045 447.752 330.269 447.338 331.277 446.636L330.377 445.016C329.657 445.466 328.955 445.718 328.109 445.718C326.597 445.718 325.535 444.854 325.319 443.198H331.529C331.601 442.964 331.655 442.478 331.655 441.992C331.655 439.202 330.215 437.168 327.443 437.168C325.049 437.168 322.745 439.22 322.745 442.478C322.745 445.79 324.941 447.752 327.749 447.752ZM329.387 441.452H325.283C325.481 439.994 326.417 439.22 327.479 439.22C328.775 439.22 329.387 440.084 329.387 441.452ZM333.474 437.42V447.5H336.102V441.488C336.678 440.03 337.632 439.508 338.424 439.508C338.838 439.508 339.126 439.544 339.468 439.67L339.936 437.384C339.63 437.258 339.306 437.168 338.748 437.168C337.668 437.168 336.624 437.888 335.886 439.202H335.814L335.634 437.42H333.474ZM345.328 447.752C346.624 447.752 347.848 447.338 348.856 446.636L347.956 445.016C347.236 445.466 346.534 445.718 345.688 445.718C344.176 445.718 343.114 444.854 342.898 443.198H349.108C349.18 442.964 349.234 442.478 349.234 441.992C349.234 439.202 347.794 437.168 345.022 437.168C342.628 437.168 340.324 439.22 340.324 442.478C340.324 445.79 342.52 447.752 345.328 447.752ZM346.966 441.452H342.862C343.06 439.994 343.996 439.22 345.058 439.22C346.354 439.22 346.966 440.084 346.966 441.452ZM351.053 437.42V447.5H353.681V440.57C354.455 439.832 354.941 439.436 355.787 439.436C356.795 439.436 357.209 439.976 357.209 441.542V447.5H359.855V441.218C359.855 438.68 358.919 437.168 356.741 437.168C355.373 437.168 354.347 437.888 353.465 438.752H353.393L353.213 437.42H351.053ZM366.508 447.752C367.66 447.752 368.848 447.374 369.802 446.528L368.758 444.782C368.2 445.268 367.516 445.592 366.796 445.592C365.05 445.592 364.294 444.008 364.294 442.478C364.294 440.534 365.338 439.328 366.868 439.328C367.444 439.328 367.912 439.562 368.416 439.994L369.676 438.284C368.938 437.654 367.984 437.168 366.742 437.168C364.006 437.168 361.594 439.112 361.594 442.478C361.594 445.79 363.718 447.752 366.508 447.752ZM375.73 447.752C377.026 447.752 378.25 447.338 379.258 446.636L378.358 445.016C377.638 445.466 376.936 445.718 376.09 445.718C374.578 445.718 373.516 444.854 373.3 443.198H379.51C379.582 442.964 379.636 442.478 379.636 441.992C379.636 439.202 378.196 437.168 375.424 437.168C373.03 437.168 370.726 439.22 370.726 442.478C370.726 445.79 372.922 447.752 375.73 447.752ZM377.368 441.452H373.264C373.462 439.994 374.398 439.22 375.46 439.22C376.756 439.22 377.368 440.084 377.368 441.452Z" fill="white"/>
  <path d="M446.125 225.68V239H448.519V233.438C448.519 232.196 448.321 230.306 448.177 229.064H448.249L449.311 232.196L451.381 237.794H452.911L454.963 232.196L456.043 229.064H456.115C455.971 230.306 455.791 232.196 455.791 233.438V239H458.221V225.68H455.269L453.055 231.908C452.767 232.754 452.533 233.618 452.245 234.482H452.155C451.885 233.618 451.633 232.754 451.345 231.908L449.077 225.68H446.125ZM465.287 239.252C466.583 239.252 467.807 238.838 468.815 238.136L467.915 236.516C467.195 236.966 466.493 237.218 465.647 237.218C464.135 237.218 463.073 236.354 462.857 234.698H469.067C469.139 234.464 469.193 233.978 469.193 233.492C469.193 230.702 467.753 228.668 464.981 228.668C462.587 228.668 460.283 230.72 460.283 233.978C460.283 237.29 462.479 239.252 465.287 239.252ZM466.925 232.952H462.821C463.019 231.494 463.955 230.72 465.017 230.72C466.313 230.72 466.925 231.584 466.925 232.952ZM474.557 239.252C475.637 239.252 476.609 238.676 477.347 237.956H477.401L477.617 239H479.759V224.636H477.113V228.182L477.221 229.766C476.501 229.1 475.817 228.668 474.665 228.668C472.487 228.668 470.435 230.684 470.435 233.978C470.435 237.272 472.037 239.252 474.557 239.252ZM475.241 237.074C473.855 237.074 473.153 236.03 473.153 233.942C473.153 231.926 474.107 230.846 475.241 230.846C475.871 230.846 476.483 231.044 477.113 231.602V236.03C476.537 236.804 475.943 237.074 475.241 237.074ZM484.629 227.3V224.744H482.001V227.3H484.629ZM481.983 239H484.611V228.92H481.983V239ZM491.134 239.252C492.286 239.252 493.474 238.874 494.428 238.028L493.384 236.282C492.826 236.768 492.142 237.092 491.422 237.092C489.676 237.092 488.92 235.508 488.92 233.978C488.92 232.034 489.964 230.828 491.494 230.828C492.07 230.828 492.538 231.062 493.042 231.494L494.302 229.784C493.564 229.154 492.61 228.668 491.368 228.668C488.632 228.668 486.22 230.612 486.22 233.978C486.22 237.29 488.344 239.252 491.134 239.252ZM498.466 239.18C499.618 239.18 500.644 238.712 501.508 237.974H501.562L501.76 239H503.92V233.114C503.92 230.144 502.624 228.668 500.05 228.668C498.466 228.668 496.954 229.19 495.856 229.856L496.648 231.746C497.566 231.152 498.628 230.792 499.564 230.792C500.338 230.792 500.824 230.954 501.04 231.26C501.238 231.674 501.328 232.106 501.274 232.538C497.098 232.664 495.352 233.798 495.478 236.264C495.478 238.01 496.666 239.18 498.466 239.18ZM499.276 237.164C498.502 237.164 497.926 236.66 497.908 235.814C497.89 235.094 498.304 234.518 499.456 234.356C500.032 234.266 500.644 234.212 501.274 234.158V236.192C500.644 236.822 500.05 237.146 499.276 237.164ZM506.257 239H508.885V224.636H506.257V239ZM451.782 264.252C454.86 264.252 456.678 262.398 456.678 260.22C456.678 258.276 455.652 257.268 453.996 256.602L452.25 255.864C451.116 255.432 450.162 255.018 450.162 254.118C450.162 253.236 450.918 252.714 452.088 252.714C453.186 252.714 454.068 253.11 454.914 253.812L456.264 252.138C455.184 251.04 453.672 250.428 452.088 250.428C449.406 250.428 447.48 252.102 447.48 254.28C447.48 256.224 448.83 257.286 450.18 257.862L451.962 258.618C453.168 259.14 453.96 259.41 453.96 260.418C453.96 261.354 453.222 261.948 451.836 261.948C450.666 261.948 449.406 261.354 448.452 260.472L446.922 262.308C448.218 263.55 449.982 264.252 451.782 264.252ZM462.834 264.252C464.13 264.252 465.354 263.838 466.362 263.136L465.462 261.516C464.742 261.966 464.04 262.218 463.194 262.218C461.682 262.218 460.62 261.354 460.404 259.698H466.614C466.686 259.464 466.74 258.978 466.74 258.492C466.74 255.702 465.3 253.668 462.528 253.668C460.134 253.668 457.83 255.72 457.83 258.978C457.83 262.29 460.026 264.252 462.834 264.252ZM464.472 257.952H460.368C460.566 256.494 461.502 255.72 462.564 255.72C463.86 255.72 464.472 256.584 464.472 257.952ZM468.559 253.92V264H471.187V257.988C471.763 256.53 472.717 256.008 473.509 256.008C473.923 256.008 474.211 256.044 474.553 256.17L475.021 253.884C474.715 253.758 474.391 253.668 473.833 253.668C472.753 253.668 471.709 254.388 470.971 255.702H470.899L470.719 253.92H468.559ZM474.869 253.92L478.307 264H481.367L484.733 253.92H482.195L480.719 258.942C480.449 259.95 480.179 260.976 479.909 262.002H479.819C479.549 260.976 479.279 259.95 479.009 258.942L477.533 253.92H474.869ZM488.444 252.3V249.744H485.816V252.3H488.444ZM485.798 264H488.426V253.92H485.798V264ZM494.949 264.252C496.101 264.252 497.289 263.874 498.243 263.028L497.199 261.282C496.641 261.768 495.957 262.092 495.237 262.092C493.491 262.092 492.735 260.508 492.735 258.978C492.735 257.034 493.779 255.828 495.309 255.828C495.885 255.828 496.353 256.062 496.857 256.494L498.117 254.784C497.379 254.154 496.425 253.668 495.183 253.668C492.447 253.668 490.035 255.612 490.035 258.978C490.035 262.29 492.159 264.252 494.949 264.252ZM504.171 264.252C505.467 264.252 506.691 263.838 507.699 263.136L506.799 261.516C506.079 261.966 505.377 262.218 504.531 262.218C503.019 262.218 501.957 261.354 501.741 259.698H507.951C508.023 259.464 508.077 258.978 508.077 258.492C508.077 255.702 506.637 253.668 503.865 253.668C501.471 253.668 499.167 255.72 499.167 258.978C499.167 262.29 501.363 264.252 504.171 264.252ZM505.809 257.952H501.705C501.903 256.494 502.839 255.72 503.901 255.72C505.197 255.72 505.809 256.584 505.809 257.952Z" fill="white"/>
  <path d="M245.666 190.254C245.628 189.842 245.263 189.538 244.851 189.575L238.129 190.187C237.716 190.225 237.412 190.59 237.45 191.002C237.487 191.415 237.852 191.719 238.265 191.681L244.24 191.137L244.784 197.112C244.822 197.525 245.187 197.829 245.599 197.791C246.012 197.754 246.316 197.389 246.278 196.976L245.666 190.254ZM231.094 208.089L245.495 190.802L244.343 189.842L229.941 207.129L231.094 208.089Z" fill="white"/>
  <path d="M435.363 192.459C434.952 192.407 434.576 192.697 434.524 193.108L433.672 199.804C433.62 200.215 433.91 200.591 434.321 200.643C434.732 200.695 435.108 200.405 435.16 199.994L435.917 194.042L441.869 194.799C442.28 194.851 442.656 194.561 442.708 194.15C442.76 193.739 442.47 193.363 442.059 193.311L435.363 192.459ZM449.635 210.535L435.861 192.744L434.675 193.662L448.449 211.453L449.635 210.535Z" fill="white"/>
  <path d="M520.138 299.458C520.55 299.499 520.918 299.199 520.96 298.787L521.637 292.071C521.679 291.659 521.378 291.291 520.966 291.249C520.554 291.208 520.186 291.508 520.145 291.92L519.542 297.89L513.573 297.288C513.161 297.246 512.793 297.547 512.751 297.959C512.71 298.371 513.01 298.739 513.422 298.78L520.138 299.458ZM505.4 281.76L519.632 299.186L520.794 298.237L506.561 280.811L505.4 281.76Z" fill="white"/>
  <path d="M164.566 296.016C164.64 296.424 165.029 296.695 165.437 296.622L172.081 295.43C172.489 295.357 172.76 294.967 172.687 294.56C172.614 294.152 172.224 293.881 171.816 293.954L165.91 295.013L164.851 289.107C164.778 288.699 164.388 288.428 163.981 288.501C163.573 288.574 163.302 288.964 163.375 289.372L164.566 296.016ZM177.541 276.987L164.689 295.455L165.92 296.312L178.772 277.843L177.541 276.987Z" fill="white"/>
  <path d="M252.47 431.47C252.177 431.763 252.177 432.237 252.47 432.53L257.243 437.303C257.536 437.596 258.01 437.596 258.303 437.303C258.596 437.01 258.596 436.536 258.303 436.243L254.061 432L258.303 427.757C258.596 427.464 258.596 426.99 258.303 426.697C258.01 426.404 257.536 426.404 257.243 426.697L252.47 431.47ZM275.5 431.25L253 431.25L253 432.75L275.5 432.75L275.5 431.25Z" fill="white"/>
  <path d="M423.03 432.53C423.323 432.237 423.323 431.763 423.03 431.47L418.257 426.697C417.964 426.404 417.49 426.404 417.197 426.697C416.904 426.99 416.904 427.464 417.197 427.757L421.439 432L417.197 436.243C416.904 436.536 416.904 437.01 417.197 437.303C417.49 437.596 417.964 437.596 418.257 437.303L423.03 432.53ZM400 432.75L422.5 432.75L422.5 431.25L400 431.25L400 432.75Z" fill="white"/>
  <circle cx="70.5" cy="427.5" r="69.75" fill="white" stroke="#333333" stroke-width="1.5"/>
  <path d="M51.9661 423.586V422.362H49.5721V418.204H48.0961V427.978H49.5721V423.586H51.9661ZM45.5941 426.934L46.3681 425.782C44.0641 425.008 42.4621 422.956 42.4621 420.796V419.014H40.9861V420.67C40.9861 423.1 39.4201 425.35 36.9721 426.214L37.7461 427.384C39.6361 426.664 41.0761 425.188 41.7421 423.298C42.4621 424.954 43.8481 426.286 45.5941 426.934ZM44.4421 428.428C41.1481 428.428 39.1141 429.508 39.1141 431.38C39.1141 433.252 41.1481 434.314 44.4421 434.314C47.7001 434.314 49.7521 433.252 49.7521 431.38C49.7521 429.508 47.7001 428.428 44.4421 428.428ZM44.4421 433.162C42.0481 433.162 40.5901 432.532 40.5901 431.38C40.5901 430.228 42.0481 429.58 44.4421 429.58C46.8361 429.58 48.2761 430.228 48.2761 431.38C48.2761 432.532 46.8361 433.162 44.4421 433.162ZM67.8947 425.98V424.774H65.5727C66.0047 422.758 66.0047 421.336 66.0047 420.094V418.924H55.0967V420.13H64.5467C64.5467 421.354 64.5467 422.776 64.0967 424.774H53.2247V425.98H67.8947ZM65.9867 427.438H64.5287V429.562H56.5907V427.438H55.1327V434.116H65.9867V427.438ZM56.5907 430.714H64.5287V432.928H56.5907V430.714ZM73.9167 426.772H81.1887V425.332H84.9147V427.978H86.4087V418.204H84.9147V420.832H81.1887V419.194H79.7307V421.768H75.3747V419.194H73.9167V426.772ZM81.1887 424.126V422.02H84.9147V424.126H81.1887ZM75.3747 422.938H79.7307V425.584H75.3747V422.938ZM81.0627 428.302C77.7507 428.302 75.6987 429.382 75.6987 431.308C75.6987 433.234 77.7507 434.314 81.0627 434.314C84.3927 434.314 86.4447 433.234 86.4447 431.308C86.4447 429.382 84.3927 428.302 81.0627 428.302ZM81.0627 433.162C78.5967 433.162 77.1747 432.478 77.1747 431.308C77.1747 430.138 78.5967 429.436 81.0627 429.436C83.5287 429.436 84.9867 430.138 84.9867 431.308C84.9867 432.478 83.5287 433.162 81.0627 433.162ZM101.041 418.186V427.726H97.7653V428.824H101.041V430.48H102.517V418.186H101.041ZM94.4713 424.468C96.8293 424.468 98.4493 423.37 98.4493 421.642C98.4493 419.95 96.8293 418.834 94.4713 418.834C92.1133 418.834 90.4933 419.95 90.4933 421.642C90.4933 423.37 92.1133 424.468 94.4713 424.468ZM94.4713 419.932C96.0013 419.932 97.0453 420.616 97.0453 421.642C97.0453 422.722 96.0013 423.37 94.4713 423.37C92.9413 423.37 91.8973 422.722 91.8973 421.642C91.8973 420.616 92.9413 419.932 94.4713 419.932ZM93.8953 426.79V429.904H95.3713V426.718C96.8293 426.628 98.3053 426.466 99.7453 426.25L99.6193 425.188C96.1993 425.62 92.2033 425.656 89.2153 425.656L89.4133 426.88C90.7813 426.88 92.2933 426.862 93.8953 426.79ZM102.931 433.972V432.766H92.9953V429.274H91.5193V433.972H102.931Z" fill="#333333"/>
  <circle cx="609.5" cy="427.5" r="69.75" fill="white" stroke="#333333" stroke-width="1.5"/>
  <path d="M577.483 434V432.668H574.891V420.734H573.577L570.031 423.794L570.913 424.856L573.307 422.714C573.289 422.84 573.289 423.002 573.289 423.164V432.668H570.355V434H577.483ZM585.145 428.834C586.009 428.834 586.909 428.33 587.647 427.034L586.711 426.368C586.261 427.232 585.757 427.592 585.181 427.592C584.029 427.592 583.201 425.9 581.617 425.9C580.735 425.9 579.835 426.404 579.097 427.7L580.015 428.348C580.501 427.484 580.987 427.124 581.563 427.124C582.715 427.124 583.543 428.834 585.145 428.834ZM597.812 434V432.542H592.61C592.16 432.542 591.62 432.614 591.116 432.758L594.806 429.104C596.3 427.61 597.56 426.242 597.56 424.28C597.56 421.94 595.814 420.572 593.564 420.572C591.314 420.572 589.568 421.886 589.226 424.316L590.846 424.586C590.846 423.074 591.962 421.994 593.474 421.994C594.842 421.994 595.85 422.732 595.904 424.316C595.904 425.864 594.896 426.998 593.51 428.474L588.956 432.848V434H597.812ZM611.738 427.052H614.402V425.828H611.738V419.186H610.262V435.332H611.738V427.052ZM604.718 424.424V423.164H608.3V421.976H604.718V419.474H603.242V421.976H599.606V423.164H603.26V424.424C603.26 427.232 601.532 429.95 599.174 431.102L600.002 432.218C601.874 431.3 603.296 429.482 603.998 427.232C604.7 429.338 606.014 431.066 607.814 431.93L608.642 430.778C606.32 429.662 604.718 426.998 604.718 424.424ZM619.992 427.772H627.264V426.332H630.99V428.978H632.484V419.204H630.99V421.832H627.264V420.194H625.806V422.768H621.45V420.194H619.992V427.772ZM627.264 425.126V423.02H630.99V425.126H627.264ZM621.45 423.938H625.806V426.584H621.45V423.938ZM627.138 429.302C623.826 429.302 621.774 430.382 621.774 432.308C621.774 434.234 623.826 435.314 627.138 435.314C630.468 435.314 632.52 434.234 632.52 432.308C632.52 430.382 630.468 429.302 627.138 429.302ZM627.138 434.162C624.672 434.162 623.25 433.478 623.25 432.308C623.25 431.138 624.672 430.436 627.138 430.436C629.604 430.436 631.062 431.138 631.062 432.308C631.062 433.478 629.604 434.162 627.138 434.162ZM647.117 419.186V428.726H643.841V429.824H647.117V431.48H648.593V419.186H647.117ZM640.547 425.468C642.905 425.468 644.525 424.37 644.525 422.642C644.525 420.95 642.905 419.834 640.547 419.834C638.189 419.834 636.569 420.95 636.569 422.642C636.569 424.37 638.189 425.468 640.547 425.468ZM640.547 420.932C642.077 420.932 643.121 421.616 643.121 422.642C643.121 423.722 642.077 424.37 640.547 424.37C639.017 424.37 637.973 423.722 637.973 422.642C637.973 421.616 639.017 420.932 640.547 420.932ZM639.971 427.79V430.904H641.447V427.718C642.905 427.628 644.381 427.466 645.821 427.25L645.695 426.188C642.275 426.62 638.279 426.656 635.291 426.656L635.489 427.88C636.857 427.88 638.369 427.862 639.971 427.79ZM649.007 434.972V433.766H639.071V430.274H637.595V434.972H649.007Z" fill="#333333"/>
</svg>