<svg width="680" height="498" viewBox="0 0 680 498" fill="none" xmlns="http://www.w3.org/2000/svg">
  <path d="M279.289 33.5847L281.096 31.1949L281.694 31.6473L282.15 31.0452L282.776 31.5098L283.223 30.9076L285.668 32.7228L285.221 33.3251L287.667 35.1403L288.114 34.538L290.56 36.3532L290.113 36.9555L292.558 38.7707L293.005 38.1685L295.451 39.9837L295.004 40.5859L297.45 42.4011L297.897 41.7989L300.342 43.6141L299.895 44.2164L302.341 46.0316L302.788 45.4293L305.234 47.2445L304.787 47.8468L307.232 49.662L307.679 49.0598L310.125 50.875L309.678 51.4772L312.124 53.2925L312.571 52.6902L315.016 54.5054L314.569 55.1077L317.015 56.9229L317.462 56.3206L319.908 58.1359L319.461 58.7381L321.906 60.5533L322.353 59.9511L324.799 61.7663L324.352 62.3685L326.798 64.1838L327.245 63.5815L329.69 65.3967L329.243 65.999L331.689 67.8142L332.136 67.212L334.582 69.0272L334.135 69.6294L336.58 71.4446L337.027 70.8424L339.473 72.6576L339.026 73.2599L341.471 75.0751L341.918 74.4728L344.364 76.288L343.917 76.8903L346.363 78.7055L346.81 78.1033L349.255 79.9185L348.808 80.5207L351.254 82.3359L351.701 81.7337L354.147 83.5489L353.7 84.1512L356.145 85.9664L356.592 85.3641L359.038 87.1794L358.591 87.7816L361.037 89.5968L361.484 88.9946L363.929 90.8098L363.482 91.412L365.928 93.2272L366.375 92.625L368.821 94.4402L368.374 95.0425L370.819 96.8577L371.266 96.2554L373.712 98.0707L373.265 98.6729L375.711 100.488L376.158 99.8859L378.603 101.701L378.156 102.303L380.602 104.119L381.049 103.516L383.495 105.332L383.048 105.934L385.493 107.749L385.94 107.147L388.386 108.962L387.939 109.564L390.385 111.379L390.832 110.777L393.277 112.592L392.83 113.195L393.447 113.652L392.995 114.252L393.595 114.703L391.783 117.111L391.184 116.66L389.372 119.067L389.971 119.518L388.16 121.926L387.56 121.475L385.749 123.882L386.348 124.333L384.536 126.741L383.937 126.29L382.125 128.698L382.725 129.148L380.913 131.556L380.314 131.105L378.502 133.513L379.101 133.964L377.29 136.371L376.69 135.92L374.879 138.328L375.478 138.779L373.666 141.186L373.067 140.735L371.255 143.143L371.855 143.594L370.043 146.001L369.444 145.55L367.632 147.958L368.231 148.409L366.42 150.816L365.821 150.365L364.009 152.773L364.608 153.224L362.797 155.631L362.197 155.181L360.386 157.588L360.985 158.039L359.173 160.447L358.574 159.996L356.762 162.403L357.362 162.854L355.55 165.262L354.951 164.811L353.139 167.218L353.738 167.669L351.927 170.077L351.327 169.626L349.516 172.033L350.115 172.484L348.303 174.892L347.704 174.441L345.892 176.848L346.492 177.299L344.68 179.707L344.081 179.256L342.269 181.664L342.868 182.114L341.057 184.522L340.457 184.071L338.646 186.479L339.245 186.93L337.433 189.337L336.834 188.886L335.022 191.294L335.622 191.745L333.81 194.152L333.211 193.701L331.399 196.109L331.998 196.56L330.187 198.967L329.587 198.516L327.776 200.924L328.375 201.375L326.563 203.782L325.964 203.331L324.153 205.739L324.752 206.19L322.94 208.597L322.341 208.146L320.529 210.554L321.129 211.005L319.317 213.413L318.718 212.962L316.906 215.369L317.505 215.82L315.694 218.228L315.094 217.777L313.283 220.184L313.882 220.635L312.07 223.043L311.471 222.592L309.659 224.999L310.259 225.45L308.447 227.858L307.848 227.407L306.036 229.814L306.635 230.265L304.824 232.673L304.224 232.222L302.413 234.63L303.012 235.08L301.2 237.488L300.601 237.037L298.789 239.445L299.389 239.896L297.577 242.303L296.978 241.852L295.166 244.26L295.765 244.711L293.954 247.118L293.354 246.667L291.543 249.075L292.142 249.526L290.33 251.933L289.731 251.482L287.919 253.89L288.519 254.341L286.707 256.748L286.108 256.297L284.296 258.705L284.895 259.156L283.084 261.563L282.485 261.112L280.673 263.52L281.272 263.971L279.461 266.379L278.861 265.928L277.05 268.335L277.649 268.786L275.837 271.194L275.238 270.743L273.426 273.15L274.026 273.601L272.214 276.009L271.615 275.558L269.803 277.965L270.402 278.416L268.591 280.824L267.991 280.373L266.18 282.78L266.779 283.231L264.967 285.639L264.368 285.188L262.556 287.595L263.156 288.046L261.344 290.454L260.745 290.003L258.933 292.41L259.532 292.861L257.721 295.269L257.122 294.818L255.31 297.225L255.909 297.676L254.098 300.084L253.498 299.633L251.687 302.041L252.286 302.492L250.474 304.899L249.875 304.448L248.063 306.856L248.663 307.307L246.851 309.714L246.252 309.263L244.44 311.671L245.039 312.122L243.228 314.529L242.628 314.078L240.817 316.486L241.416 316.937L239.604 319.344L239.005 318.893L237.193 321.301L237.793 321.752L235.981 324.159L235.382 323.708L233.57 326.116L234.169 326.567L232.358 328.974L231.759 328.523L229.947 330.931L230.546 331.382L228.735 333.789L228.135 333.338L226.324 335.746L226.923 336.197L225.111 338.605L224.512 338.154L222.7 340.561L223.3 341.012L221.488 343.42L220.889 342.969L219.077 345.376L219.676 345.827L217.865 348.235L217.265 347.784L215.454 350.191L216.053 350.642L214.241 353.05L213.642 352.599L211.83 355.006L212.43 355.457L210.618 357.865L210.019 357.414L208.207 359.821L208.806 360.272L206.995 362.68L206.396 362.229L204.584 364.636L205.183 365.087L203.372 367.495L202.772 367.044L200.961 369.451L201.56 369.902L199.748 372.31L199.149 371.859L197.337 374.267L197.937 374.717L196.125 377.125L195.526 376.674L193.714 379.082L194.313 379.533L192.502 381.94L191.902 381.489L190.091 383.897L190.69 384.348L188.878 386.755L188.279 386.304L186.467 388.712L187.067 389.163L185.255 391.57L184.656 391.119L182.844 393.527L183.443 393.978L181.632 396.385L181.033 395.934L179.221 398.342L179.82 398.793L178.009 401.2L177.409 400.749L175.598 403.157L176.197 403.608L174.385 406.015L173.786 405.564L171.974 407.972L172.574 408.423L170.762 410.831L170.163 410.38L168.351 412.787L168.95 413.238L167.139 415.646L166.539 415.195L164.728 417.602L165.327 418.053L163.515 420.461L162.916 420.01L161.104 422.417L161.704 422.868L159.892 425.276L159.293 424.825L157.481 427.232L158.08 427.683L156.269 430.091L155.67 429.64L153.858 432.047L154.457 432.498L152.646 434.906L152.046 434.455L150.235 436.862L150.834 437.313L149.022 439.721L148.423 439.27L146.611 441.677L147.211 442.128L145.399 444.536L144.8 444.085L142.988 446.493L143.587 446.943L141.776 449.351L141.176 448.9L139.365 451.308L139.964 451.759L138.152 454.166L137.553 453.715L135.741 456.123L136.341 456.574L134.529 458.981L133.93 458.53L132.118 460.938L132.717 461.389L130.906 463.796L130.307 463.345L129.802 464.016L129.1 463.605L128.721 464.253L126.164 462.758L126.543 462.11L123.985 460.616L123.607 461.263L121.049 459.768L121.428 459.121L118.871 457.626L118.492 458.273L115.935 456.779L116.313 456.131L113.756 454.636L113.378 455.284L110.82 453.789L111.199 453.142L108.642 451.647L108.263 452.294L105.706 450.799L106.084 450.152L103.527 448.657L103.148 449.305L100.591 447.81L100.97 447.162L98.4123 445.668L98.0339 446.315L95.4766 444.82L95.855 444.173L93.2978 442.678L92.9193 443.326L90.362 441.831L90.7405 441.183L88.1832 439.688L87.8047 440.336L85.2474 438.841L85.6259 438.194L83.0686 436.699L82.6901 437.346L80.1328 435.852L80.5113 435.204L77.954 433.709L77.5755 434.357L75.0182 432.862L75.3967 432.214L72.8394 430.72L72.4609 431.367L69.9036 429.872L70.2821 429.225L67.7248 427.73L67.3463 428.378L64.7891 426.883L65.1675 426.235L62.6102 424.741L62.2318 425.388L59.6745 423.893L60.0529 423.246L57.4957 421.751L57.1172 422.398L54.5599 420.904L54.9384 420.256L52.3811 418.761L52.0026 419.409L49.4453 417.914L49.8238 417.267L47.2665 415.772L46.888 416.419L44.3307 414.924L44.7092 414.277L42.1519 412.782L41.7734 413.43L39.2161 411.935L39.5946 411.287L37.0373 409.793L36.6589 410.44L34.1016 408.945L34.48 408.298L31.9228 406.803L31.5443 407.451L28.987 405.956L29.3655 405.308L26.8082 403.813L26.4297 404.461L23.8724 402.966L24.2509 402.319L21.6936 400.824L21.3151 401.471L18.7578 399.977L19.1363 399.329L16.579 397.834L16.2005 398.482L13.6432 396.987L14.0217 396.339L11.4644 394.845L11.0859 395.492L8.52864 393.997L8.90712 393.35L8.35771 393.029L8.75242 392.507L8.15426 392.054L9.96181 389.665L10.56 390.117L12.3676 387.727L11.7694 387.275L13.5769 384.885L14.1751 385.337L15.9827 382.948L15.3845 382.495L17.1921 380.105L17.7902 380.558L19.5978 378.168L18.9996 377.716L20.8072 375.326L21.4053 375.778L23.2129 373.389L22.6147 372.936L24.4223 370.546L25.0205 370.999L26.828 368.609L26.2299 368.156L28.0374 365.767L28.6356 366.219L30.4432 363.829L29.845 363.377L31.6526 360.987L32.2507 361.44L34.0583 359.05L33.4601 358.597L35.2677 356.208L35.8659 356.66L37.6734 354.27L37.0752 353.818L38.8828 351.428L39.481 351.88L41.2885 349.491L40.6904 349.038L42.4979 346.648L43.0961 347.101L44.9036 344.711L44.3055 344.259L46.113 341.869L46.7112 342.321L48.5188 339.931L47.9206 339.479L49.7282 337.089L50.3263 337.542L52.1339 335.152L51.5357 334.699L53.3433 332.31L53.9415 332.762L55.749 330.372L55.1509 329.92L56.9584 327.53L57.5566 327.982L59.3641 325.593L58.766 325.14L60.5735 322.75L61.1717 323.203L62.9793 320.813L62.3811 320.361L64.1887 317.971L64.7868 318.423L66.5944 316.033L65.9962 315.581L67.8038 313.191L68.4019 313.644L70.2095 311.254L69.6113 310.801L71.4189 308.412L72.0171 308.864L73.8246 306.474L73.2265 306.022L75.034 303.632L75.6322 304.084L77.4398 301.695L76.8416 301.242L78.6491 298.852L79.2473 299.305L81.0549 296.915L80.4567 296.463L82.2643 294.073L82.8624 294.525L84.67 292.135L84.0718 291.683L85.8794 289.293L86.4776 289.746L88.2851 287.356L87.687 286.903L89.4945 284.514L90.0927 284.966L91.9002 282.576L91.3021 282.124L93.1096 279.734L93.7078 280.186L95.5154 277.797L94.9172 277.344L96.7248 274.954L97.3229 275.407L99.1305 273.017L98.5323 272.565L100.34 270.175L100.938 270.627L102.746 268.237L102.147 267.785L103.955 265.395L104.553 265.848L106.361 263.458L105.763 263.005L107.57 260.616L108.168 261.068L109.976 258.678L109.378 258.226L111.185 255.836L111.783 256.288L113.591 253.899L112.993 253.446L114.8 251.056L115.399 251.509L117.206 249.119L116.608 248.667L118.415 246.277L119.014 246.729L120.821 244.34L120.223 243.887L122.031 241.497L122.629 241.95L124.436 239.56L123.838 239.107L125.646 236.718L126.244 237.17L128.051 234.78L127.453 234.328L129.261 231.938L129.859 232.391L131.667 230.001L131.068 229.548L132.876 227.158L133.474 227.611L135.282 225.221L134.684 224.769L136.491 222.379L137.089 222.831L138.897 220.442L138.299 219.989L140.106 217.599L140.704 218.052L142.512 215.662L141.914 215.209L143.721 212.82L144.32 213.272L146.127 210.882L145.529 210.43L147.336 208.04L147.935 208.493L149.742 206.103L149.144 205.65L150.952 203.261L151.55 203.713L153.357 201.323L152.759 200.871L154.567 198.481L155.165 198.933L156.972 196.544L156.374 196.091L158.182 193.701L158.78 194.154L160.588 191.764L159.989 191.312L161.797 188.922L162.395 189.374L164.203 186.984L163.605 186.532L165.412 184.142L166.01 184.595L167.818 182.205L167.22 181.752L169.027 179.363L169.625 179.815L171.433 177.425L170.835 176.973L172.642 174.583L173.241 175.035L175.048 172.646L174.45 172.193L176.257 169.803L176.856 170.256L178.663 167.866L178.065 167.414L179.873 165.024L180.471 165.476L182.278 163.086L181.68 162.634L183.488 160.244L184.086 160.697L185.893 158.307L185.295 157.854L187.103 155.465L187.701 155.917L189.509 153.527L188.91 153.075L190.718 150.685L191.316 151.137L193.124 148.748L192.526 148.295L194.333 145.905L194.931 146.358L196.739 143.968L196.141 143.516L197.948 141.126L198.546 141.578L200.354 139.188L199.756 138.736L201.563 136.346L202.161 136.799L203.969 134.409L203.371 133.956L205.178 131.567L205.777 132.019L207.584 129.629L206.986 129.177L208.794 126.787L209.392 127.239L211.199 124.85L210.601 124.397L212.409 122.007L213.007 122.46L214.814 120.07L214.216 119.618L216.024 117.228L216.622 117.68L218.43 115.29L217.831 114.838L219.639 112.448L220.237 112.901L222.045 110.511L221.447 110.058L223.254 107.669L223.852 108.121L225.66 105.731L225.062 105.279L226.869 102.889L227.467 103.341L229.275 100.952L228.677 100.499L230.484 98.1094L231.083 98.5618L232.89 96.172L232.292 95.7196L234.1 93.3298L234.698 93.7822L236.505 91.3924L235.907 90.94L237.715 88.5502L238.313 89.0026L240.12 86.6128L239.522 86.1604L241.33 83.7706L241.928 84.223L243.736 81.8332L243.137 81.3808L244.945 78.991L245.543 79.4434L247.351 77.0536L246.752 76.6012L248.56 74.2113L249.158 74.6638L250.966 72.274L250.368 71.8215L252.175 69.4317L252.773 69.8842L254.581 67.4944L253.983 67.0419L255.79 64.6521L256.388 65.1046L258.196 62.7148L257.598 62.2623L259.405 59.8725L260.004 60.325L261.811 57.9352L261.213 57.4827L263.021 55.0929L263.619 55.5454L265.426 53.1556L264.828 52.7031L266.636 50.3133L267.234 50.7658L269.041 48.376L268.443 47.9235L270.251 45.5337L270.849 45.9861L272.657 43.5963L272.058 43.1439L273.866 40.7541L274.464 41.2065L276.272 38.8167L275.674 38.3643L277.481 35.9745L278.079 36.4269L279.887 34.0371L279.289 33.5847Z" fill="#EDFBFF" stroke="#999999" stroke-width="1.5" stroke-dasharray="3 3"/>
  <path d="M73.5084 356H70.5028V356.75H69.75V357.479H69V360.437H69.75V363.396H69V366.354H69.75V369.312H69V372.271H69.75V375.229H69V378.187H69.75V381.146H69V384.104H69.75V387.062H69V390.021H69.75V392.979H69V395.937H69.75V398.896H69V401.854H69.75V404.812H69V407.771H69.75V410.729H69V413.687H69.75V416.646H69V419.604H69.75V422.562H69V425.521H69.75V428.479H69V431.438H69.75V434.396H69V437.354H69.75V440.313H69V443.271H69.75V446.229H69V449.188H69.75V452.146H69V455.104H69.75V458.062H69V461.021H69.75V463.979H69V466.938H69.75V469.896H69V472.854H69.75V475.812H69V478.771H69.75V481.729H69V484.688H69.75V487.646H69V490.604H69.75V493.562H69V496.521H69.75V497.25H70.503V498H73.5085V497.25H76.5141V498H79.5197V497.25H82.5252V498H85.5308V497.25H88.5363V498H91.5419V497.25H94.5474V498H97.553V497.25H100.559V498H103.564V497.25H106.57V498H109.575V497.25H112.581V498H115.586V497.25H118.592V498H121.597V497.25H124.603V498H127.609V497.25H130.614V498H133.62V497.25H136.625V498H139.631V497.25H142.636V498H145.642V497.25H148.647V498H151.653V497.25H154.659V498H157.664V497.25H160.67V498H163.675V497.25H166.681V498H169.686V497.25H172.692V498H175.697V497.25H178.703V498H181.708V497.25H184.714V498H187.72V497.25H190.725V498H193.731V497.25H196.736V498H199.742V497.25H202.747V498H205.753V497.25H208.759V498H211.764V497.25H214.77V498H217.775V497.25H220.781V498H223.786V497.25H226.792V498H229.797V497.25H232.803V498H235.808V497.25H238.814V498H241.82V497.25H244.825V498H247.831V497.25H250.836V498H253.842V497.25H256.847V498H259.853V497.25H262.858V498H265.864V497.25H268.87V498H271.875V497.25H274.881V498H277.886V497.25H280.892V498H283.897V497.25H286.903V498H289.908V497.25H292.914V498H295.92V497.25H298.925V498H301.931V497.25H304.936V498H307.942V497.25H310.947V498H313.953V497.25H316.958V498H319.964V497.25H322.97V498H325.975V497.25H328.981V498H331.986V497.25H334.992V498H337.997V497.25H341.003V498H344.008V497.25H347.014V498H350.02V497.25H353.025V498H356.031V497.25H359.036V498H362.042V497.25H365.047V498H368.053V497.25H371.058V498H374.064V497.25H377.07V498H380.075V497.25H383.081V498H386.086V497.25H389.092V498H392.097V497.25H395.103V498H398.108V497.25H401.114V498H404.12V497.25H407.125V498H410.131V497.25H413.136V498H416.142V497.25H419.147V498H422.153V497.25H425.158V498H428.164V497.25H431.169V498H434.175V497.25H437.181V498H440.186V497.25H443.192V498H446.197V497.25H449.203V498H452.208V497.25H455.214V498H458.219V497.25H461.225V498H464.231V497.25H467.236V498H470.242V497.25H473.247V498H476.253V497.25H479.258V498H482.264V497.25H485.269V498H488.275V497.25H491.281V498H494.286V497.25H497.292V498H500.297V497.25H503.303V498H506.308V497.25H509.314V498H512.319V497.25H515.325V498H518.331V497.25H521.336V498H524.342V497.25H527.347V498H530.353V497.25H533.358V498H536.364V497.25H539.369V498H542.375V497.25H545.381V498H548.386V497.25H551.392V498H554.397V497.25H557.403V498H560.408V497.25H563.414V498H566.419V497.25H569.425V498H572.431V497.25H575.436V498H578.442V497.25H581.447V498H584.453V497.25H587.458V498H590.464V497.25H593.469V498H596.475V497.25H599.481V498H602.486V497.25H605.492V498H608.497V497.25H609.25V496.521H610V493.563H609.25V490.604H610V487.646H609.25V484.688H610V481.729H609.25V478.771H610V475.813H609.25V472.854H610V469.896H609.25V466.938H610V463.979H609.25V461.021H610V458.063H609.25V455.104H610V452.146H609.25V449.188H610V446.229H609.25V443.271H610V440.313H609.25V437.354H610V434.396H609.25V431.438H610V428.479H609.25V425.521H610V422.562H609.25V419.604H610V416.646H609.25V413.687H610V410.729H609.25V407.771H610V404.812H609.25V401.854H610V398.896H609.25V395.938H610V392.979H609.25V390.021H610V387.063H609.25V384.104H610V381.146H609.25V378.188H610V375.229H609.25V372.271H610V369.312H609.25V366.354H610V363.396H609.25V360.438H610V357.479H609.25V356.75H608.497V356H605.491V356.75H602.486V356H599.48V356.75H596.475V356H593.469V356.75H590.464V356H587.458V356.75H584.453V356H581.447V356.75H578.441V356H575.436V356.75H572.43V356H569.425V356.75H566.419V356H563.414V356.75H560.408V356H557.403V356.75H554.397V356H551.391V356.75H548.386V356H545.38V356.75H542.375V356H539.369V356.75H536.364V356H533.358V356.75H530.353V356H527.347V356.75H524.341V356H521.336V356.75H518.33V356H515.325V356.75H512.319V356H509.314V356.75H506.308V356H503.303V356.75H500.297V356H497.292V356.75H494.286V356H491.28V356.75H488.275V356H485.269V356.75H482.264V356H479.258V356.75H476.253V356H473.247V356.75H470.242V356H467.236V356.75H464.23V356H461.225V356.75H458.219V356H455.214V356.75H452.208V356H449.203V356.75H446.197V356H443.192V356.75H440.186V356H437.18V356.75H434.175V356H431.169V356.75H428.164V356H425.158V356.75H422.153V356H419.147V356.75H416.142V356H413.136V356.75H410.13V356H407.125V356.75H404.119V356H401.114V356.75H398.108V356H395.103V356.75H392.097V356H389.092V356.75H386.086V356H383.08V356.75H380.075V356H377.069V356.75H374.064V356H371.058V356.75H368.053V356H365.047V356.75H362.042V356H359.036V356.75H356.03V356H353.025V356.75H350.019V356H347.014V356.75H344.008V356H341.003V356.75H337.997V356H334.992V356.75H331.986V356H328.98V356.75H325.975V356H322.969V356.75H319.964V356H316.958V356.75H313.953V356H310.947V356.75H307.942V356H304.936V356.75H301.93V356H298.925V356.75H295.919V356H292.914V356.75H289.908V356H286.903V356.75H283.897V356H280.892V356.75H277.886V356H274.881V356.75H271.875V356H268.869V356.75H265.864V356H262.858V356.75H259.853V356H256.847V356.75H253.842V356H250.836V356.75H247.831V356H244.825V356.75H241.819V356H238.814V356.75H235.808V356H232.803V356.75H229.797V356H226.792V356.75H223.786V356H220.781V356.75H217.775V356H214.769V356.75H211.764V356H208.758V356.75H205.753V356H202.747V356.75H199.742V356H196.736V356.75H193.731V356H190.725V356.75H187.719V356H184.714V356.75H181.708V356H178.703V356.75H175.697V356H172.692V356.75H169.686V356H166.681V356.75H163.675V356H160.669V356.75H157.664V356H154.658V356.75H151.653V356H148.647V356.75H145.642V356H142.636V356.75H139.631V356H136.625V356.75H133.619V356H130.614V356.75H127.608V356H124.603V356.75H121.597V356H118.592V356.75H115.586V356H112.581V356.75H109.575V356H106.569V356.75H103.564V356H100.558V356.75H97.5528V356H94.5472V356.75H91.5417V356H88.5361V356.75H85.5306V356H82.525V356.75H79.5195V356H76.5139V356.75H73.5084V356Z" fill="#EDFBFF" stroke="#999999" stroke-width="1.5" stroke-dasharray="3 3"/>
  <path d="M386.732 19.072L384.911 16.6907L384.315 17.1463L383.914 16.6221L383.438 17.0792L382.918 16.5381L380.755 18.6142L381.275 19.1552L379.112 21.2313L378.592 20.6902L376.429 22.7663L376.949 23.3074L374.786 25.3835L374.266 24.8424L372.103 26.9185L372.623 27.4596L370.46 29.5357L369.94 28.9946L367.777 31.0707L368.297 31.6118L366.133 33.6878L365.614 33.1467L363.451 35.2228L363.97 35.7639L361.807 37.84L361.288 37.2989L359.125 39.375L359.644 39.9161L357.481 41.9922L356.962 41.4511L354.799 43.5272L355.318 44.0683L353.155 46.1444L352.636 45.6033L350.473 47.6794L350.992 48.2204L348.829 50.2965L348.31 49.7554L346.147 51.8315L346.666 52.3726L344.503 54.4487L343.984 53.9076L341.821 55.9837L342.34 56.5248L340.177 58.6009L339.658 58.0598L337.495 60.1359L338.014 60.677L335.851 62.753L335.332 62.212L333.168 64.288L333.688 64.8291L331.525 66.9052L331.005 66.3641L328.842 68.4402L329.362 68.9813L327.199 71.0574L326.679 70.5163L324.516 72.5924L325.036 73.1335L322.873 75.2096L322.353 74.6685L320.19 76.7446L320.71 77.2857L318.547 79.3617L318.027 78.8206L315.864 80.8967L316.383 81.4378L314.22 83.5139L313.701 82.9728L311.538 85.0489L312.057 85.59L309.894 87.6661L309.375 87.125L307.212 89.2011L307.731 89.7422L305.568 91.8183L305.049 91.2772L302.886 93.3533L303.405 93.8944L301.242 95.9704L300.723 95.4294L298.56 97.5054L299.079 98.0465L296.916 100.123L296.397 99.5815L294.234 101.658L294.753 102.199L292.59 104.275L292.071 103.734L289.908 105.81L290.427 106.351L288.264 108.427L287.745 107.886L285.582 109.962L286.101 110.503L285.5 111.08L285.999 111.74L285.401 112.192L287.203 114.577L287.802 114.124L289.604 116.509L289.006 116.962L290.809 119.346L291.407 118.894L293.21 121.279L292.611 121.731L294.414 124.116L295.012 123.664L296.815 126.049L296.217 126.501L298.019 128.886L298.618 128.434L300.42 130.819L299.822 131.271L301.625 133.656L302.223 133.203L304.026 135.588L303.427 136.041L305.23 138.425L305.828 137.973L307.631 140.358L307.032 140.81L308.835 143.195L309.433 142.743L311.236 145.128L310.638 145.58L312.44 147.965L313.039 147.513L314.841 149.898L314.243 150.35L316.046 152.735L316.644 152.282L318.447 154.667L317.848 155.12L319.651 157.504L320.249 157.052L322.052 159.437L321.454 159.889L323.256 162.274L323.855 161.822L325.657 164.207L325.059 164.659L326.861 167.044L327.46 166.592L329.262 168.977L328.664 169.429L330.467 171.814L331.065 171.361L332.868 173.746L332.269 174.199L334.072 176.583L334.67 176.131L336.473 178.516L335.875 178.968L337.677 181.353L338.276 180.901L340.078 183.286L339.48 183.738L341.283 186.123L341.881 185.671L343.684 188.056L343.085 188.508L344.888 190.893L345.486 190.44L347.289 192.825L346.69 193.278L348.493 195.662L349.091 195.21L350.894 197.595L350.296 198.047L352.098 200.432L352.697 199.98L354.499 202.365L353.901 202.817L355.704 205.202L356.302 204.75L358.105 207.135L357.506 207.587L359.309 209.972L359.907 209.519L361.71 211.904L361.112 212.357L362.914 214.741L363.513 214.289L365.315 216.674L364.717 217.126L366.519 219.511L367.118 219.059L368.92 221.444L368.322 221.896L370.125 224.281L370.723 223.829L372.526 226.214L371.927 226.666L373.73 229.051L374.328 228.598L376.131 230.983L375.533 231.436L377.335 233.82L377.934 233.368L379.736 235.753L379.138 236.205L380.941 238.59L381.539 238.138L383.341 240.523L382.743 240.975L384.546 243.36L385.144 242.908L386.947 245.293L386.348 245.745L388.151 248.13L388.749 247.677L390.552 250.062L389.954 250.515L391.756 252.899L392.355 252.447L394.157 254.832L393.559 255.284L395.362 257.669L395.96 257.217L397.763 259.602L397.164 260.054L398.967 262.439L399.565 261.987L401.368 264.372L400.77 264.824L402.572 267.209L403.171 266.756L404.973 269.141L404.375 269.593L406.177 271.978L406.776 271.526L408.578 273.911L407.98 274.363L409.783 276.748L410.381 276.296L412.184 278.681L411.585 279.133L413.388 281.518L413.986 281.066L415.789 283.451L415.191 283.903L416.993 286.288L417.592 285.835L419.394 288.22L418.796 288.672L420.599 291.057L421.197 290.605L422.999 292.99L422.401 293.442L424.204 295.827L424.802 295.375L426.605 297.76L426.006 298.212L427.809 300.597L428.407 300.145L430.21 302.53L429.612 302.982L431.414 305.367L432.013 304.914L433.815 307.299L433.217 307.751L435.02 310.136L435.618 309.684L437.421 312.069L436.822 312.521L438.625 314.906L439.223 314.454L441.026 316.839L440.428 317.291L442.23 319.676L442.828 319.224L444.631 321.608L444.033 322.061L445.835 324.446L446.434 323.993L448.236 326.378L447.638 326.83L449.441 329.215L450.039 328.763L451.842 331.148L451.243 331.6L453.046 333.985L453.644 333.533L455.447 335.918L454.849 336.37L456.651 338.755L457.25 338.303L459.052 340.687L458.454 341.14L460.257 343.525L460.855 343.072L462.657 345.457L462.059 345.909L463.862 348.294L464.46 347.842L466.263 350.227L465.664 350.679L467.467 353.064L468.065 352.612L469.868 354.997L469.27 355.449L471.072 357.834L471.671 357.382L473.473 359.766L472.875 360.219L474.678 362.604L475.276 362.151L477.079 364.536L476.48 364.988L478.283 367.373L478.881 366.921L480.684 369.306L480.086 369.758L481.888 372.143L482.486 371.691L484.289 374.076L483.691 374.528L485.493 376.913L486.092 376.461L487.894 378.845L487.296 379.298L489.099 381.683L489.697 381.23L491.5 383.615L490.901 384.067L492.704 386.452L493.302 386L495.105 388.385L494.507 388.837L496.309 391.222L496.908 390.77L498.71 393.155L498.112 393.607L499.914 395.992L500.513 395.54L502.315 397.924L501.717 398.377L503.52 400.762L504.118 400.309L505.921 402.694L505.322 403.146L507.125 405.531L507.723 405.079L509.526 407.464L508.928 407.916L510.73 410.301L511.329 409.849L513.131 412.234L512.533 412.686L514.336 415.071L514.934 414.618L516.736 417.003L516.138 417.456L517.941 419.84L518.539 419.388L520.342 421.773L519.743 422.225L521.546 424.61L522.144 424.158L523.947 426.543L523.349 426.995L525.151 429.38L525.75 428.928L527.552 431.313L526.954 431.765L528.757 434.15L529.355 433.697L531.158 436.082L530.559 436.535L532.362 438.919L532.96 438.467L534.763 440.852L534.164 441.304L535.967 443.689L536.565 443.237L538.368 445.622L537.77 446.074L539.572 448.459L540.171 448.007L541.973 450.392L541.375 450.844L543.178 453.229L543.776 452.776L545.579 455.161L544.98 455.613L546.783 457.998L547.381 457.546L549.184 459.931L548.586 460.383L550.388 462.768L550.986 462.316L552.789 464.701L552.191 465.153L553.993 467.538L554.592 467.086L556.394 469.47L555.796 469.923L557.599 472.308L558.197 471.855L558.656 472.462L559.292 472.003L559.731 472.611L562.193 470.834L561.754 470.226L564.216 468.449L564.655 469.057L567.117 467.28L566.678 466.672L569.14 464.895L569.579 465.503L572.041 463.726L571.602 463.117L574.064 461.34L574.503 461.948L576.965 460.171L576.526 459.563L578.988 457.786L579.427 458.394L581.889 456.617L581.45 456.009L583.912 454.232L584.351 454.84L586.812 453.062L586.374 452.454L588.835 450.677L589.274 451.285L591.736 449.508L591.297 448.9L593.759 447.123L594.198 447.731L596.66 445.954L596.221 445.346L598.683 443.569L599.122 444.177L601.584 442.399L601.145 441.791L603.607 440.014L604.046 440.622L606.508 438.845L606.069 438.237L608.531 436.46L608.97 437.068L611.432 435.291L610.993 434.683L613.455 432.905L613.894 433.514L616.356 431.736L615.917 431.128L618.379 429.351L618.818 429.959L621.28 428.182L620.841 427.574L623.303 425.797L623.742 426.405L626.204 424.628L625.765 424.02L628.227 422.242L628.666 422.851L631.128 421.073L630.689 420.465L633.151 418.688L633.59 419.296L636.052 417.519L635.613 416.911L638.075 415.134L638.514 415.742L640.976 413.965L640.537 413.357L642.999 411.579L643.438 412.188L645.899 410.41L645.46 409.802L647.922 408.025L648.361 408.633L650.823 406.856L650.384 406.248L652.846 404.471L653.285 405.079L655.747 403.302L655.308 402.694L657.77 400.916L658.209 401.524L660.671 399.747L660.232 399.139L662.694 397.362L663.133 397.97L665.595 396.193L665.156 395.585L667.618 393.808L668.057 394.416L670.519 392.639L670.08 392.03L670.686 391.593L670.244 391.016L670.84 390.56L669.019 388.179L668.423 388.634L666.602 386.253L667.198 385.797L665.376 383.416L664.781 383.872L662.959 381.49L663.555 381.035L661.734 378.653L661.138 379.109L659.317 376.728L659.913 376.272L658.091 373.891L657.496 374.346L655.675 371.965L656.27 371.509L654.449 369.128L653.853 369.584L652.032 367.202L652.628 366.747L650.807 364.365L650.211 364.821L648.39 362.44L648.985 361.984L647.164 359.603L646.568 360.058L644.747 357.677L645.343 357.221L643.522 354.84L642.926 355.296L641.105 352.914L641.701 352.459L639.879 350.077L639.284 350.533L637.462 348.152L638.058 347.696L636.237 345.315L635.641 345.77L633.82 343.389L634.416 342.933L632.595 340.552L631.999 341.008L630.178 338.626L630.773 338.171L628.952 335.789L628.356 336.245L626.535 333.864L627.131 333.408L625.31 331.027L624.714 331.482L622.893 329.101L623.489 328.645L621.667 326.264L621.072 326.72L619.25 324.338L619.846 323.883L618.025 321.501L617.429 321.957L615.608 319.576L616.204 319.12L614.383 316.739L613.787 317.194L611.966 314.813L612.561 314.357L610.74 311.976L610.144 312.432L608.323 310.05L608.919 309.595L607.098 307.213L606.502 307.669L604.681 305.288L605.276 304.832L603.455 302.451L602.86 302.906L601.038 300.525L601.634 300.069L599.813 297.688L599.217 298.144L597.396 295.762L597.992 295.307L596.17 292.925L595.575 293.381L593.753 291L594.349 290.544L592.528 288.163L591.932 288.618L590.111 286.237L590.707 285.781L588.886 283.4L588.29 283.856L586.469 281.474L587.064 281.019L585.243 278.637L584.647 279.093L582.826 276.712L583.422 276.256L581.601 273.875L581.005 274.33L579.184 271.949L579.78 271.493L577.958 269.112L577.363 269.568L575.541 267.186L576.137 266.731L574.316 264.349L573.72 264.805L571.899 262.424L572.495 261.968L570.674 259.587L570.078 260.042L568.257 257.661L568.852 257.205L567.031 254.824L566.435 255.28L564.614 252.898L565.21 252.443L563.389 250.061L562.793 250.517L560.972 248.136L561.568 247.68L559.746 245.299L559.151 245.754L557.329 243.373L557.925 242.917L556.104 240.536L555.508 240.992L553.687 238.61L554.283 238.155L552.461 235.773L551.866 236.229L550.045 233.848L550.64 233.392L548.819 231.011L548.223 231.466L546.402 229.085L546.998 228.629L545.177 226.248L544.581 226.704L542.76 224.322L543.355 223.867L541.534 221.485L540.938 221.941L539.117 219.56L539.713 219.104L537.892 216.723L537.296 217.178L535.475 214.797L536.071 214.341L534.249 211.96L533.654 212.416L531.832 210.034L532.428 209.579L530.607 207.197L530.011 207.653L528.19 205.271L528.786 204.816L526.965 202.435L526.369 202.89L524.548 200.509L525.143 200.053L523.322 197.672L522.726 198.128L520.905 195.746L521.501 195.291L519.68 192.909L519.084 193.365L517.263 190.983L517.859 190.528L516.037 188.147L515.442 188.602L513.62 186.221L514.216 185.765L512.395 183.384L511.799 183.839L509.978 181.458L510.574 181.003L508.752 178.621L508.157 179.077L506.336 176.695L506.931 176.24L505.11 173.859L504.514 174.314L502.693 171.933L503.289 171.477L501.468 169.096L500.872 169.551L499.051 167.17L499.646 166.715L497.825 164.333L497.229 164.789L495.408 162.407L496.004 161.952L494.183 159.571L493.587 160.026L491.766 157.645L492.362 157.189L490.54 154.808L489.945 155.263L488.123 152.882L488.719 152.426L486.898 150.045L486.302 150.501L484.481 148.119L485.077 147.664L483.256 145.283L482.66 145.738L480.839 143.357L481.434 142.901L479.613 140.52L479.017 140.975L477.196 138.594L477.792 138.138L475.971 135.757L475.375 136.213L473.554 133.831L474.15 133.376L472.328 130.994L471.733 131.45L469.911 129.069L470.507 128.613L468.686 126.232L468.09 126.687L466.269 124.306L466.865 123.85L465.044 121.469L464.448 121.925L462.627 119.543L463.222 119.088L461.401 116.706L460.805 117.162L458.984 114.781L459.58 114.325L457.759 111.944L457.163 112.399L455.342 110.018L455.938 109.562L454.116 107.181L453.521 107.637L451.699 105.255L452.295 104.8L450.474 102.419L449.878 102.874L448.057 100.493L448.653 100.037L446.831 97.6559L446.236 98.1115L444.415 95.7301L445.01 95.2745L443.189 92.8932L442.593 93.3488L440.772 90.9675L441.368 90.5119L439.547 88.1305L438.951 88.5862L437.13 86.2048L437.725 85.7492L435.904 83.3679L435.309 83.8235L433.487 81.4422L434.083 80.9865L432.262 78.6052L431.666 79.0608L429.845 76.6795L430.441 76.2239L428.619 73.8426L428.024 74.2982L426.203 71.9168L426.798 71.4612L424.977 69.0799L424.381 69.5355L422.56 67.1542L423.156 66.6986L421.335 64.3172L420.739 64.7729L418.918 62.3915L419.513 61.9359L417.692 59.5546L417.096 60.0102L415.275 57.6289L415.871 57.1733L414.05 54.7919L413.454 55.2476L411.633 52.8662L412.229 52.4106L410.407 50.0293L409.812 50.4849L407.99 48.1036L408.586 47.6479L406.765 45.2666L406.169 45.7222L404.348 43.3409L404.944 42.8853L403.123 40.504L402.527 40.9596L400.706 38.5782L401.301 38.1226L399.48 35.7413L398.884 36.1969L397.063 33.8156L397.659 33.36L395.838 30.9786L395.242 31.4343L393.421 29.0529L394.017 28.5973L392.195 26.216L391.6 26.6716L389.778 24.2903L390.374 23.8347L388.553 21.4533L387.957 21.9089L386.136 19.5276L386.732 19.072Z" fill="#EDFBFF" stroke="#999999" stroke-width="1.5" stroke-dasharray="3 3"/>
  <path d="M291.449 292.5H285.374V311H289.074V304.425H291.549C295.524 304.425 298.699 302.525 298.699 298.3C298.699 293.9 295.524 292.5 291.449 292.5ZM291.299 301.5H289.074V295.425H291.174C293.749 295.425 295.074 296.125 295.074 298.3C295.074 300.425 293.824 301.5 291.299 301.5ZM301.249 291.05V311H304.899V291.05H301.249ZM312.085 311.25C313.685 311.25 315.11 310.6 316.31 309.575H316.385L316.66 311H319.66V302.825C319.66 298.7 317.86 296.65 314.285 296.65C312.085 296.65 309.985 297.375 308.46 298.3L309.56 300.925C310.835 300.1 312.31 299.6 313.61 299.6C314.685 299.6 315.36 299.825 315.66 300.25C315.935 300.825 316.06 301.425 315.985 302.025C310.185 302.2 307.76 303.775 307.935 307.2C307.935 309.625 309.585 311.25 312.085 311.25ZM313.21 308.45C312.135 308.45 311.335 307.75 311.31 306.575C311.285 305.575 311.86 304.775 313.46 304.55C314.26 304.425 315.11 304.35 315.985 304.275V307.1C315.11 307.975 314.285 308.425 313.21 308.45ZM327.566 311.35C328.791 311.35 329.741 311.1 330.516 310.825L329.916 308.15C329.541 308.325 329.016 308.45 328.541 308.45C327.266 308.45 326.641 307.675 326.641 306.1V299.9H330.091V297H326.641V293.25H323.566L323.141 297L320.991 297.175V299.9H322.966V306.1C322.966 309.25 324.241 311.35 327.566 311.35ZM339.914 293.9L340.589 291.2C339.964 290.925 339.014 290.7 337.939 290.7C334.414 290.7 333.064 292.95 333.064 295.875V297.025L331.189 297.175V299.9H333.064V311H336.739V299.9H339.364V297H336.739V295.8C336.739 294.2 337.339 293.6 338.439 293.6C338.914 293.6 339.439 293.725 339.914 293.9ZM347.091 311.35C350.591 311.35 353.816 308.625 353.816 304.025C353.816 299.35 350.591 296.65 347.091 296.65C343.591 296.65 340.366 299.35 340.366 304.025C340.366 308.625 343.591 311.35 347.091 311.35ZM347.091 308.35C345.191 308.35 344.116 306.65 344.116 304.025C344.116 301.325 345.191 299.65 347.091 299.65C348.991 299.65 350.066 301.325 350.066 304.025C350.066 306.65 348.991 308.35 347.091 308.35ZM359.391 297H356.391V311H360.041V302.65C360.841 300.625 362.166 299.9 363.266 299.9C363.841 299.9 364.241 299.95 364.716 300.125L365.366 296.95C364.941 296.775 364.491 296.65 363.716 296.65C362.216 296.65 360.766 297.65 359.741 299.475H359.641L359.391 297ZM369.779 297H366.779V311H370.429V301.375C371.429 300.325 372.329 299.8 373.129 299.8C374.454 299.8 375.079 300.525 375.079 302.725V311H378.754V301.375C379.754 300.325 380.654 299.8 381.454 299.8C382.779 299.8 383.404 300.525 383.404 302.725V311H387.079V302.275C387.079 298.75 385.729 296.65 382.729 296.65C380.904 296.65 379.554 297.7 378.279 299.1C377.604 297.5 376.429 296.65 374.429 296.65C372.604 296.65 371.304 297.65 370.129 298.875H370.029L369.779 297Z" fill="black"/>
  <circle cx="340" cy="70.5" r="69.75" fill="white" stroke="#333333" stroke-width="1.5"/>
  <path d="M306.75 76.234C309.504 76.234 311.232 74.578 311.232 72.49C311.232 70.528 310.044 69.628 308.514 68.962L306.624 68.152C305.598 67.72 304.446 67.252 304.446 65.956C304.446 64.732 305.4 64.012 306.912 64.012C308.136 64.012 309.108 64.48 309.918 65.254L310.8 64.192C309.864 63.184 308.496 62.554 306.912 62.554C304.518 62.554 302.754 64.03 302.754 66.064C302.754 68.008 304.23 68.926 305.436 69.448L307.344 70.276C308.586 70.852 309.54 71.266 309.54 72.616C309.54 73.912 308.496 74.776 306.768 74.776C305.4 74.776 304.068 74.146 303.114 73.138L302.124 74.272C303.276 75.496 304.878 76.234 306.75 76.234ZM313.836 62.806H312.108L314.916 76H316.896L318.858 68.044C319.074 66.964 319.308 66.046 319.524 65.038H319.596C319.812 66.046 320.01 66.964 320.244 68.044L322.242 76H324.24L326.976 62.806H325.374L323.988 69.988C323.736 71.392 323.484 72.814 323.232 74.254H323.142C322.836 72.814 322.548 71.428 322.206 69.988L320.352 62.806H318.84L317.022 69.988C316.68 71.428 316.374 72.814 316.068 74.254H315.996C315.726 72.814 315.492 71.428 315.222 69.988L313.836 62.806ZM345.418 77.332V61.186H343.996V67.684H341.8V61.618H340.414V76.522H341.8V68.89H343.996V77.332H345.418ZM338.632 63.274H332.332V64.48H337.174C336.94 67.846 335.446 70.708 331.72 72.814L332.584 73.876C337.192 71.284 338.632 67.432 338.632 63.274ZM362.841 65.884V64.66H360.447V61.204H358.971V69.538H360.447V65.884H362.841ZM348.585 68.908H356.055V61.852H354.615V64.174H350.043V61.852H348.585V68.908ZM350.043 65.308H354.615V67.72H350.043V65.308ZM361.041 75.982H351.681V74.218H360.447V70.294H350.187V71.464H358.989V73.12H350.241V77.152H361.041V75.982ZM376.537 68.962H379.201V67.738H376.537V61.204H375.061V77.332H376.537V68.962ZM369.535 65.488V62.59H368.077V65.488C368.077 68.422 366.241 71.5 363.919 72.706L364.801 73.894C366.619 72.886 368.113 70.942 368.815 68.548C369.535 70.78 370.993 72.652 372.721 73.57L373.639 72.4C371.389 71.248 369.535 68.314 369.535 65.488Z" fill="#333333"/>
  <path d="M180.125 221.68V235H182.519V229.438C182.519 228.196 182.321 226.306 182.177 225.064H182.249L183.311 228.196L185.381 233.794H186.911L188.963 228.196L190.043 225.064H190.115C189.971 226.306 189.791 228.196 189.791 229.438V235H192.221V221.68H189.269L187.055 227.908C186.767 228.754 186.533 229.618 186.245 230.482H186.155C185.885 229.618 185.633 228.754 185.345 227.908L183.077 221.68H180.125ZM199.287 235.252C200.583 235.252 201.807 234.838 202.815 234.136L201.915 232.516C201.195 232.966 200.493 233.218 199.647 233.218C198.135 233.218 197.073 232.354 196.857 230.698H203.067C203.139 230.464 203.193 229.978 203.193 229.492C203.193 226.702 201.753 224.668 198.981 224.668C196.587 224.668 194.283 226.72 194.283 229.978C194.283 233.29 196.479 235.252 199.287 235.252ZM200.925 228.952H196.821C197.019 227.494 197.955 226.72 199.017 226.72C200.313 226.72 200.925 227.584 200.925 228.952ZM208.557 235.252C209.637 235.252 210.609 234.676 211.347 233.956H211.401L211.617 235H213.759V220.636H211.113V224.182L211.221 225.766C210.501 225.1 209.817 224.668 208.665 224.668C206.487 224.668 204.435 226.684 204.435 229.978C204.435 233.272 206.037 235.252 208.557 235.252ZM209.241 233.074C207.855 233.074 207.153 232.03 207.153 229.942C207.153 227.926 208.107 226.846 209.241 226.846C209.871 226.846 210.483 227.044 211.113 227.602V232.03C210.537 232.804 209.943 233.074 209.241 233.074ZM218.629 223.3V220.744H216.001V223.3H218.629ZM215.983 235H218.611V224.92H215.983V235ZM225.134 235.252C226.286 235.252 227.474 234.874 228.428 234.028L227.384 232.282C226.826 232.768 226.142 233.092 225.422 233.092C223.676 233.092 222.92 231.508 222.92 229.978C222.92 228.034 223.964 226.828 225.494 226.828C226.07 226.828 226.538 227.062 227.042 227.494L228.302 225.784C227.564 225.154 226.61 224.668 225.368 224.668C222.632 224.668 220.22 226.612 220.22 229.978C220.22 233.29 222.344 235.252 225.134 235.252ZM232.466 235.18C233.618 235.18 234.644 234.712 235.508 233.974H235.562L235.76 235H237.92V229.114C237.92 226.144 236.624 224.668 234.05 224.668C232.466 224.668 230.954 225.19 229.856 225.856L230.648 227.746C231.566 227.152 232.628 226.792 233.564 226.792C234.338 226.792 234.824 226.954 235.04 227.26C235.238 227.674 235.328 228.106 235.274 228.538C231.098 228.664 229.352 229.798 229.478 232.264C229.478 234.01 230.666 235.18 232.466 235.18ZM233.276 233.164C232.502 233.164 231.926 232.66 231.908 231.814C231.89 231.094 232.304 230.518 233.456 230.356C234.032 230.266 234.644 230.212 235.274 230.158V232.192C234.644 232.822 234.05 233.146 233.276 233.164ZM240.257 235H242.885V220.636H240.257V235ZM192.536 246.68V260H195.2V246.68H192.536ZM197.901 249.92V260H200.529V253.07C201.303 252.332 201.789 251.936 202.635 251.936C203.643 251.936 204.057 252.476 204.057 254.042V260H206.703V253.718C206.703 251.18 205.767 249.668 203.589 249.668C202.221 249.668 201.195 250.388 200.313 251.252H200.241L200.061 249.92H197.901ZM214.454 247.688L214.94 245.744C214.49 245.546 213.806 245.384 213.032 245.384C210.494 245.384 209.522 247.004 209.522 249.11V249.938L208.172 250.046V252.008H209.522V260H212.168V252.008H214.058V249.92H212.168V249.056C212.168 247.904 212.6 247.472 213.392 247.472C213.734 247.472 214.112 247.562 214.454 247.688ZM215.41 249.92V260H218.038V253.988C218.614 252.53 219.568 252.008 220.36 252.008C220.774 252.008 221.062 252.044 221.404 252.17L221.872 249.884C221.566 249.758 221.242 249.668 220.684 249.668C219.604 249.668 218.56 250.388 217.822 251.702H217.75L217.57 249.92H215.41ZM225.373 260.18C226.525 260.18 227.551 259.712 228.415 258.974H228.469L228.667 260H230.827V254.114C230.827 251.144 229.531 249.668 226.957 249.668C225.373 249.668 223.861 250.19 222.763 250.856L223.555 252.746C224.473 252.152 225.535 251.792 226.471 251.792C227.245 251.792 227.731 251.954 227.947 252.26C228.145 252.674 228.235 253.106 228.181 253.538C224.005 253.664 222.259 254.798 222.385 257.264C222.385 259.01 223.573 260.18 225.373 260.18ZM226.183 258.164C225.409 258.164 224.833 257.66 224.815 256.814C224.797 256.094 225.211 255.518 226.363 255.356C226.939 255.266 227.551 255.212 228.181 255.158V257.192C227.551 257.822 226.957 258.146 226.183 258.164Z" fill="#2360A9"/>
  <path d="M297.587 422.752C299.333 422.752 300.737 422.104 301.835 420.79L300.431 419.134C299.711 419.908 298.829 420.448 297.677 420.448C295.571 420.448 294.203 418.702 294.203 415.804C294.203 412.942 295.715 411.214 297.731 411.214C298.739 411.214 299.513 411.682 300.179 412.33L301.583 410.638C300.719 409.72 299.405 408.928 297.677 408.928C294.311 408.928 291.485 411.502 291.485 415.894C291.485 420.34 294.203 422.752 297.587 422.752ZM303.405 422.5H306.033V408.136H303.405V422.5ZM311.117 410.8V408.244H308.489V410.8H311.117ZM308.471 422.5H311.099V412.42H308.471V422.5ZM313.337 412.42V422.5H315.965V415.57C316.739 414.832 317.225 414.436 318.071 414.436C319.079 414.436 319.493 414.976 319.493 416.542V422.5H322.139V416.218C322.139 413.68 321.203 412.168 319.025 412.168C317.657 412.168 316.631 412.888 315.749 413.752H315.677L315.497 412.42H313.337ZM326.903 410.8V408.244H324.275V410.8H326.903ZM324.257 422.5H326.885V412.42H324.257V422.5ZM333.407 422.752C334.559 422.752 335.747 422.374 336.701 421.528L335.657 419.782C335.099 420.268 334.415 420.592 333.695 420.592C331.949 420.592 331.193 419.008 331.193 417.478C331.193 415.534 332.237 414.328 333.767 414.328C334.343 414.328 334.811 414.562 335.315 414.994L336.575 413.284C335.837 412.654 334.883 412.168 333.641 412.168C330.905 412.168 328.493 414.112 328.493 417.478C328.493 420.79 330.617 422.752 333.407 422.752ZM340.739 422.68C341.891 422.68 342.917 422.212 343.781 421.474H343.835L344.033 422.5H346.193V416.614C346.193 413.644 344.897 412.168 342.323 412.168C340.739 412.168 339.227 412.69 338.129 413.356L338.921 415.246C339.839 414.652 340.901 414.292 341.837 414.292C342.611 414.292 343.097 414.454 343.313 414.76C343.511 415.174 343.601 415.606 343.547 416.038C339.371 416.164 337.625 417.298 337.751 419.764C337.751 421.51 338.939 422.68 340.739 422.68ZM341.549 420.664C340.775 420.664 340.199 420.16 340.181 419.314C340.163 418.594 340.577 418.018 341.729 417.856C342.305 417.766 342.917 417.712 343.547 417.658V419.692C342.917 420.322 342.323 420.646 341.549 420.664ZM348.53 422.5H351.158V408.136H348.53V422.5ZM361.76 422.752C364.838 422.752 366.656 420.898 366.656 418.72C366.656 416.776 365.63 415.768 363.974 415.102L362.228 414.364C361.094 413.932 360.14 413.518 360.14 412.618C360.14 411.736 360.896 411.214 362.066 411.214C363.164 411.214 364.046 411.61 364.892 412.312L366.242 410.638C365.162 409.54 363.65 408.928 362.066 408.928C359.384 408.928 357.458 410.602 357.458 412.78C357.458 414.724 358.808 415.786 360.158 416.362L361.94 417.118C363.146 417.64 363.938 417.91 363.938 418.918C363.938 419.854 363.2 420.448 361.814 420.448C360.644 420.448 359.384 419.854 358.43 418.972L356.9 420.808C358.196 422.05 359.96 422.752 361.76 422.752ZM367.34 409.18L369.914 422.5H373.172L374.63 415.912C374.846 414.832 375.008 413.842 375.206 412.834H375.278C375.44 413.842 375.638 414.832 375.854 415.912L377.348 422.5H380.66L383.126 409.18H380.588L379.544 415.678C379.346 417.064 379.148 418.486 378.95 419.926H378.86C378.572 418.486 378.302 417.046 378.014 415.678L376.466 409.18H374.198L372.65 415.678C372.362 417.064 372.074 418.486 371.804 419.926H371.732C371.534 418.486 371.318 417.118 371.12 415.678L370.058 409.18H367.34ZM302.499 447.5H305.469L302.355 442.046C303.885 441.452 304.893 440.246 304.893 438.212C304.893 435.134 302.697 434.18 299.889 434.18H295.245V447.5H297.909V442.46H299.763L302.499 447.5ZM297.909 440.354V436.286H299.637C301.365 436.286 302.283 436.772 302.283 438.212C302.283 439.652 301.365 440.354 299.637 440.354H297.909ZM311.313 447.752C312.609 447.752 313.833 447.338 314.841 446.636L313.941 445.016C313.221 445.466 312.519 445.718 311.673 445.718C310.161 445.718 309.099 444.854 308.883 443.198H315.093C315.165 442.964 315.219 442.478 315.219 441.992C315.219 439.202 313.779 437.168 311.007 437.168C308.613 437.168 306.309 439.22 306.309 442.478C306.309 445.79 308.505 447.752 311.313 447.752ZM312.951 441.452H308.847C309.045 439.994 309.981 439.22 311.043 439.22C312.339 439.22 312.951 440.084 312.951 441.452ZM322.42 435.188L322.906 433.244C322.456 433.046 321.772 432.884 320.998 432.884C318.46 432.884 317.488 434.504 317.488 436.61V437.438L316.138 437.546V439.508H317.488V447.5H320.134V439.508H322.024V437.42H320.134V436.556C320.134 435.404 320.566 434.972 321.358 434.972C321.7 434.972 322.078 435.062 322.42 435.188ZM327.749 447.752C329.045 447.752 330.269 447.338 331.277 446.636L330.377 445.016C329.657 445.466 328.955 445.718 328.109 445.718C326.597 445.718 325.535 444.854 325.319 443.198H331.529C331.601 442.964 331.655 442.478 331.655 441.992C331.655 439.202 330.215 437.168 327.443 437.168C325.049 437.168 322.745 439.22 322.745 442.478C322.745 445.79 324.941 447.752 327.749 447.752ZM329.387 441.452H325.283C325.481 439.994 326.417 439.22 327.479 439.22C328.775 439.22 329.387 440.084 329.387 441.452ZM333.474 437.42V447.5H336.102V441.488C336.678 440.03 337.632 439.508 338.424 439.508C338.838 439.508 339.126 439.544 339.468 439.67L339.936 437.384C339.63 437.258 339.306 437.168 338.748 437.168C337.668 437.168 336.624 437.888 335.886 439.202H335.814L335.634 437.42H333.474ZM345.328 447.752C346.624 447.752 347.848 447.338 348.856 446.636L347.956 445.016C347.236 445.466 346.534 445.718 345.688 445.718C344.176 445.718 343.114 444.854 342.898 443.198H349.108C349.18 442.964 349.234 442.478 349.234 441.992C349.234 439.202 347.794 437.168 345.022 437.168C342.628 437.168 340.324 439.22 340.324 442.478C340.324 445.79 342.52 447.752 345.328 447.752ZM346.966 441.452H342.862C343.06 439.994 343.996 439.22 345.058 439.22C346.354 439.22 346.966 440.084 346.966 441.452ZM351.053 437.42V447.5H353.681V440.57C354.455 439.832 354.941 439.436 355.787 439.436C356.795 439.436 357.209 439.976 357.209 441.542V447.5H359.855V441.218C359.855 438.68 358.919 437.168 356.741 437.168C355.373 437.168 354.347 437.888 353.465 438.752H353.393L353.213 437.42H351.053ZM366.508 447.752C367.66 447.752 368.848 447.374 369.802 446.528L368.758 444.782C368.2 445.268 367.516 445.592 366.796 445.592C365.05 445.592 364.294 444.008 364.294 442.478C364.294 440.534 365.338 439.328 366.868 439.328C367.444 439.328 367.912 439.562 368.416 439.994L369.676 438.284C368.938 437.654 367.984 437.168 366.742 437.168C364.006 437.168 361.594 439.112 361.594 442.478C361.594 445.79 363.718 447.752 366.508 447.752ZM375.73 447.752C377.026 447.752 378.25 447.338 379.258 446.636L378.358 445.016C377.638 445.466 376.936 445.718 376.09 445.718C374.578 445.718 373.516 444.854 373.3 443.198H379.51C379.582 442.964 379.636 442.478 379.636 441.992C379.636 439.202 378.196 437.168 375.424 437.168C373.03 437.168 370.726 439.22 370.726 442.478C370.726 445.79 372.922 447.752 375.73 447.752ZM377.368 441.452H373.264C373.462 439.994 374.398 439.22 375.46 439.22C376.756 439.22 377.368 440.084 377.368 441.452Z" fill="#2360A9"/>
  <path d="M442.125 226.68V240H444.519V234.438C444.519 233.196 444.321 231.306 444.177 230.064H444.249L445.311 233.196L447.381 238.794H448.911L450.963 233.196L452.043 230.064H452.115C451.971 231.306 451.791 233.196 451.791 234.438V240H454.221V226.68H451.269L449.055 232.908C448.767 233.754 448.533 234.618 448.245 235.482H448.155C447.885 234.618 447.633 233.754 447.345 232.908L445.077 226.68H442.125ZM461.287 240.252C462.583 240.252 463.807 239.838 464.815 239.136L463.915 237.516C463.195 237.966 462.493 238.218 461.647 238.218C460.135 238.218 459.073 237.354 458.857 235.698H465.067C465.139 235.464 465.193 234.978 465.193 234.492C465.193 231.702 463.753 229.668 460.981 229.668C458.587 229.668 456.283 231.72 456.283 234.978C456.283 238.29 458.479 240.252 461.287 240.252ZM462.925 233.952H458.821C459.019 232.494 459.955 231.72 461.017 231.72C462.313 231.72 462.925 232.584 462.925 233.952ZM470.557 240.252C471.637 240.252 472.609 239.676 473.347 238.956H473.401L473.617 240H475.759V225.636H473.113V229.182L473.221 230.766C472.501 230.1 471.817 229.668 470.665 229.668C468.487 229.668 466.435 231.684 466.435 234.978C466.435 238.272 468.037 240.252 470.557 240.252ZM471.241 238.074C469.855 238.074 469.153 237.03 469.153 234.942C469.153 232.926 470.107 231.846 471.241 231.846C471.871 231.846 472.483 232.044 473.113 232.602V237.03C472.537 237.804 471.943 238.074 471.241 238.074ZM480.629 228.3V225.744H478.001V228.3H480.629ZM477.983 240H480.611V229.92H477.983V240ZM487.134 240.252C488.286 240.252 489.474 239.874 490.428 239.028L489.384 237.282C488.826 237.768 488.142 238.092 487.422 238.092C485.676 238.092 484.92 236.508 484.92 234.978C484.92 233.034 485.964 231.828 487.494 231.828C488.07 231.828 488.538 232.062 489.042 232.494L490.302 230.784C489.564 230.154 488.61 229.668 487.368 229.668C484.632 229.668 482.22 231.612 482.22 234.978C482.22 238.29 484.344 240.252 487.134 240.252ZM494.466 240.18C495.618 240.18 496.644 239.712 497.508 238.974H497.562L497.76 240H499.92V234.114C499.92 231.144 498.624 229.668 496.05 229.668C494.466 229.668 492.954 230.19 491.856 230.856L492.648 232.746C493.566 232.152 494.628 231.792 495.564 231.792C496.338 231.792 496.824 231.954 497.04 232.26C497.238 232.674 497.328 233.106 497.274 233.538C493.098 233.664 491.352 234.798 491.478 237.264C491.478 239.01 492.666 240.18 494.466 240.18ZM495.276 238.164C494.502 238.164 493.926 237.66 493.908 236.814C493.89 236.094 494.304 235.518 495.456 235.356C496.032 235.266 496.644 235.212 497.274 235.158V237.192C496.644 237.822 496.05 238.146 495.276 238.164ZM502.257 240H504.885V225.636H502.257V240ZM447.782 265.252C450.86 265.252 452.678 263.398 452.678 261.22C452.678 259.276 451.652 258.268 449.996 257.602L448.25 256.864C447.116 256.432 446.162 256.018 446.162 255.118C446.162 254.236 446.918 253.714 448.088 253.714C449.186 253.714 450.068 254.11 450.914 254.812L452.264 253.138C451.184 252.04 449.672 251.428 448.088 251.428C445.406 251.428 443.48 253.102 443.48 255.28C443.48 257.224 444.83 258.286 446.18 258.862L447.962 259.618C449.168 260.14 449.96 260.41 449.96 261.418C449.96 262.354 449.222 262.948 447.836 262.948C446.666 262.948 445.406 262.354 444.452 261.472L442.922 263.308C444.218 264.55 445.982 265.252 447.782 265.252ZM458.834 265.252C460.13 265.252 461.354 264.838 462.362 264.136L461.462 262.516C460.742 262.966 460.04 263.218 459.194 263.218C457.682 263.218 456.62 262.354 456.404 260.698H462.614C462.686 260.464 462.74 259.978 462.74 259.492C462.74 256.702 461.3 254.668 458.528 254.668C456.134 254.668 453.83 256.72 453.83 259.978C453.83 263.29 456.026 265.252 458.834 265.252ZM460.472 258.952H456.368C456.566 257.494 457.502 256.72 458.564 256.72C459.86 256.72 460.472 257.584 460.472 258.952ZM464.559 254.92V265H467.187V258.988C467.763 257.53 468.717 257.008 469.509 257.008C469.923 257.008 470.211 257.044 470.553 257.17L471.021 254.884C470.715 254.758 470.391 254.668 469.833 254.668C468.753 254.668 467.709 255.388 466.971 256.702H466.899L466.719 254.92H464.559ZM470.869 254.92L474.307 265H477.367L480.733 254.92H478.195L476.719 259.942C476.449 260.95 476.179 261.976 475.909 263.002H475.819C475.549 261.976 475.279 260.95 475.009 259.942L473.533 254.92H470.869ZM484.444 253.3V250.744H481.816V253.3H484.444ZM481.798 265H484.426V254.92H481.798V265ZM490.949 265.252C492.101 265.252 493.289 264.874 494.243 264.028L493.199 262.282C492.641 262.768 491.957 263.092 491.237 263.092C489.491 263.092 488.735 261.508 488.735 259.978C488.735 258.034 489.779 256.828 491.309 256.828C491.885 256.828 492.353 257.062 492.857 257.494L494.117 255.784C493.379 255.154 492.425 254.668 491.183 254.668C488.447 254.668 486.035 256.612 486.035 259.978C486.035 263.29 488.159 265.252 490.949 265.252ZM500.171 265.252C501.467 265.252 502.691 264.838 503.699 264.136L502.799 262.516C502.079 262.966 501.377 263.218 500.531 263.218C499.019 263.218 497.957 262.354 497.741 260.698H503.951C504.023 260.464 504.077 259.978 504.077 259.492C504.077 256.702 502.637 254.668 499.865 254.668C497.471 254.668 495.167 256.72 495.167 259.978C495.167 263.29 497.363 265.252 500.171 265.252ZM501.809 258.952H497.705C497.903 257.494 498.839 256.72 499.901 256.72C501.197 256.72 501.809 257.584 501.809 258.952Z" fill="#2360A9"/>
  <path d="M248.306 190.968C248.265 190.556 247.898 190.255 247.486 190.296L240.768 190.957C240.356 190.998 240.055 191.365 240.095 191.777C240.136 192.189 240.503 192.491 240.915 192.45L246.886 191.862L247.474 197.833C247.515 198.245 247.882 198.546 248.294 198.506C248.706 198.465 249.008 198.098 248.967 197.686L248.306 190.968ZM233.865 208.91L248.139 191.518L246.979 190.566L232.705 207.959L233.865 208.91Z" fill="#4D4D4D"/>
  <path d="M440.207 190.645C439.801 190.563 439.406 190.826 439.324 191.233L437.997 197.851C437.916 198.257 438.179 198.652 438.585 198.734C438.991 198.815 439.387 198.552 439.468 198.146L440.648 192.263L446.531 193.443C446.937 193.524 447.332 193.261 447.413 192.855C447.495 192.448 447.232 192.053 446.826 191.972L440.207 190.645ZM453.155 209.692L440.684 190.964L439.436 191.796L451.907 210.523L453.155 209.692Z" fill="#4D4D4D"/>
  <path d="M515.293 301.274C515.701 301.345 516.089 301.071 516.16 300.663L517.314 294.012C517.385 293.604 517.111 293.216 516.703 293.145C516.295 293.074 515.907 293.348 515.836 293.756L514.81 299.668L508.899 298.642C508.49 298.571 508.102 298.844 508.031 299.252C507.961 299.66 508.234 300.049 508.642 300.119L515.293 301.274ZM501.853 282.571L514.808 300.967L516.034 300.103L503.079 281.707L501.853 282.571Z" fill="#4D4D4D"/>
  <path d="M170.927 289.302C171.003 289.709 171.395 289.977 171.802 289.901L178.437 288.661C178.844 288.585 179.113 288.193 179.037 287.786C178.961 287.379 178.569 287.11 178.162 287.186L172.264 288.289L171.161 282.391C171.085 281.984 170.693 281.716 170.286 281.792C169.879 281.868 169.611 282.26 169.687 282.667L170.927 289.302ZM183.761 270.178L171.046 288.74L172.283 289.588L184.999 271.025L183.761 270.178Z" fill="#4D4D4D"/>
  <path d="M252.47 431.47C252.177 431.763 252.177 432.237 252.47 432.53L257.243 437.303C257.536 437.596 258.01 437.596 258.303 437.303C258.596 437.01 258.596 436.536 258.303 436.243L254.061 432L258.303 427.757C258.596 427.464 258.596 426.99 258.303 426.697C258.01 426.404 257.536 426.404 257.243 426.697L252.47 431.47ZM275.5 431.25L253 431.25L253 432.75L275.5 432.75L275.5 431.25Z" fill="#4D4D4D"/>
  <path d="M423.03 432.53C423.323 432.237 423.323 431.763 423.03 431.47L418.257 426.697C417.964 426.404 417.49 426.404 417.197 426.697C416.904 426.99 416.904 427.464 417.197 427.757L421.439 432L417.197 436.243C416.904 436.536 416.904 437.01 417.197 437.303C417.49 437.596 417.964 437.596 418.257 437.303L423.03 432.53ZM400 432.75L422.5 432.75L422.5 431.25L400 431.25L400 432.75Z" fill="#4D4D4D"/>
  <circle cx="70.5" cy="427.5" r="69.75" fill="white" stroke="#333333" stroke-width="1.5"/>
  <path d="M51.9661 423.586V422.362H49.5721V418.204H48.0961V427.978H49.5721V423.586H51.9661ZM45.5941 426.934L46.3681 425.782C44.0641 425.008 42.4621 422.956 42.4621 420.796V419.014H40.9861V420.67C40.9861 423.1 39.4201 425.35 36.9721 426.214L37.7461 427.384C39.6361 426.664 41.0761 425.188 41.7421 423.298C42.4621 424.954 43.8481 426.286 45.5941 426.934ZM44.4421 428.428C41.1481 428.428 39.1141 429.508 39.1141 431.38C39.1141 433.252 41.1481 434.314 44.4421 434.314C47.7001 434.314 49.7521 433.252 49.7521 431.38C49.7521 429.508 47.7001 428.428 44.4421 428.428ZM44.4421 433.162C42.0481 433.162 40.5901 432.532 40.5901 431.38C40.5901 430.228 42.0481 429.58 44.4421 429.58C46.8361 429.58 48.2761 430.228 48.2761 431.38C48.2761 432.532 46.8361 433.162 44.4421 433.162ZM67.8947 425.98V424.774H65.5727C66.0047 422.758 66.0047 421.336 66.0047 420.094V418.924H55.0967V420.13H64.5467C64.5467 421.354 64.5467 422.776 64.0967 424.774H53.2247V425.98H67.8947ZM65.9867 427.438H64.5287V429.562H56.5907V427.438H55.1327V434.116H65.9867V427.438ZM56.5907 430.714H64.5287V432.928H56.5907V430.714ZM73.9167 426.772H81.1887V425.332H84.9147V427.978H86.4087V418.204H84.9147V420.832H81.1887V419.194H79.7307V421.768H75.3747V419.194H73.9167V426.772ZM81.1887 424.126V422.02H84.9147V424.126H81.1887ZM75.3747 422.938H79.7307V425.584H75.3747V422.938ZM81.0627 428.302C77.7507 428.302 75.6987 429.382 75.6987 431.308C75.6987 433.234 77.7507 434.314 81.0627 434.314C84.3927 434.314 86.4447 433.234 86.4447 431.308C86.4447 429.382 84.3927 428.302 81.0627 428.302ZM81.0627 433.162C78.5967 433.162 77.1747 432.478 77.1747 431.308C77.1747 430.138 78.5967 429.436 81.0627 429.436C83.5287 429.436 84.9867 430.138 84.9867 431.308C84.9867 432.478 83.5287 433.162 81.0627 433.162ZM101.041 418.186V427.726H97.7653V428.824H101.041V430.48H102.517V418.186H101.041ZM94.4713 424.468C96.8293 424.468 98.4493 423.37 98.4493 421.642C98.4493 419.95 96.8293 418.834 94.4713 418.834C92.1133 418.834 90.4933 419.95 90.4933 421.642C90.4933 423.37 92.1133 424.468 94.4713 424.468ZM94.4713 419.932C96.0013 419.932 97.0453 420.616 97.0453 421.642C97.0453 422.722 96.0013 423.37 94.4713 423.37C92.9413 423.37 91.8973 422.722 91.8973 421.642C91.8973 420.616 92.9413 419.932 94.4713 419.932ZM93.8953 426.79V429.904H95.3713V426.718C96.8293 426.628 98.3053 426.466 99.7453 426.25L99.6193 425.188C96.1993 425.62 92.2033 425.656 89.2153 425.656L89.4133 426.88C90.7813 426.88 92.2933 426.862 93.8953 426.79ZM102.931 433.972V432.766H92.9953V429.274H91.5193V433.972H102.931Z" fill="#333333"/>
  <circle cx="609.5" cy="427.5" r="69.75" fill="white" stroke="#333333" stroke-width="1.5"/>
  <path d="M577.483 434V432.668H574.891V420.734H573.577L570.031 423.794L570.913 424.856L573.307 422.714C573.289 422.84 573.289 423.002 573.289 423.164V432.668H570.355V434H577.483ZM585.145 428.834C586.009 428.834 586.909 428.33 587.647 427.034L586.711 426.368C586.261 427.232 585.757 427.592 585.181 427.592C584.029 427.592 583.201 425.9 581.617 425.9C580.735 425.9 579.835 426.404 579.097 427.7L580.015 428.348C580.501 427.484 580.987 427.124 581.563 427.124C582.715 427.124 583.543 428.834 585.145 428.834ZM597.812 434V432.542H592.61C592.16 432.542 591.62 432.614 591.116 432.758L594.806 429.104C596.3 427.61 597.56 426.242 597.56 424.28C597.56 421.94 595.814 420.572 593.564 420.572C591.314 420.572 589.568 421.886 589.226 424.316L590.846 424.586C590.846 423.074 591.962 421.994 593.474 421.994C594.842 421.994 595.85 422.732 595.904 424.316C595.904 425.864 594.896 426.998 593.51 428.474L588.956 432.848V434H597.812ZM611.738 427.052H614.402V425.828H611.738V419.186H610.262V435.332H611.738V427.052ZM604.718 424.424V423.164H608.3V421.976H604.718V419.474H603.242V421.976H599.606V423.164H603.26V424.424C603.26 427.232 601.532 429.95 599.174 431.102L600.002 432.218C601.874 431.3 603.296 429.482 603.998 427.232C604.7 429.338 606.014 431.066 607.814 431.93L608.642 430.778C606.32 429.662 604.718 426.998 604.718 424.424ZM619.992 427.772H627.264V426.332H630.99V428.978H632.484V419.204H630.99V421.832H627.264V420.194H625.806V422.768H621.45V420.194H619.992V427.772ZM627.264 425.126V423.02H630.99V425.126H627.264ZM621.45 423.938H625.806V426.584H621.45V423.938ZM627.138 429.302C623.826 429.302 621.774 430.382 621.774 432.308C621.774 434.234 623.826 435.314 627.138 435.314C630.468 435.314 632.52 434.234 632.52 432.308C632.52 430.382 630.468 429.302 627.138 429.302ZM627.138 434.162C624.672 434.162 623.25 433.478 623.25 432.308C623.25 431.138 624.672 430.436 627.138 430.436C629.604 430.436 631.062 431.138 631.062 432.308C631.062 433.478 629.604 434.162 627.138 434.162ZM647.117 419.186V428.726H643.841V429.824H647.117V431.48H648.593V419.186H647.117ZM640.547 425.468C642.905 425.468 644.525 424.37 644.525 422.642C644.525 420.95 642.905 419.834 640.547 419.834C638.189 419.834 636.569 420.95 636.569 422.642C636.569 424.37 638.189 425.468 640.547 425.468ZM640.547 420.932C642.077 420.932 643.121 421.616 643.121 422.642C643.121 423.722 642.077 424.37 640.547 424.37C639.017 424.37 637.973 423.722 637.973 422.642C637.973 421.616 639.017 420.932 640.547 420.932ZM639.971 427.79V430.904H641.447V427.718C642.905 427.628 644.381 427.466 645.821 427.25L645.695 426.188C642.275 426.62 638.279 426.656 635.291 426.656L635.489 427.88C636.857 427.88 638.369 427.862 639.971 427.79ZM649.007 434.972V433.766H639.071V430.274H637.595V434.972H649.007Z" fill="#333333"/>
</svg>