<svg width="312" height="300" viewBox="0 0 312 300" fill="none" xmlns="http://www.w3.org/2000/svg">
  <path d="M107.587 42.6183L108.529 40.8728L108.969 41.1102L109.255 40.5807L109.861 40.7346L109.984 40.25L111.951 40.75L111.828 41.2346L113.795 41.7346L113.918 41.25L115.886 41.75L115.763 42.2346L117.73 42.7346L117.853 42.25L119.821 42.75L119.698 43.2346L121.665 43.7346L121.788 43.25L123.755 43.75L123.632 44.2346L125.6 44.7346L125.723 44.25L127.69 44.75L127.567 45.2346L129.534 45.7346L129.658 45.25L131.625 45.75L131.502 46.2346L133.469 46.7346L133.592 46.25L135.56 46.75L135.437 47.2346L137.404 47.7346L137.527 47.25L139.495 47.75L139.371 48.2346L141.339 48.7346L141.462 48.25L143.429 48.75L143.306 49.2346L145.274 49.7346L145.397 49.25L147.364 49.75L147.241 50.2346L149.208 50.7346L149.332 50.25L151.299 50.75L151.176 51.2346L153.143 51.7346L153.266 51.25L155.234 51.75L155.111 52.2346L157.078 52.7346L157.201 52.25L159.168 52.75L159.045 53.2346L161.013 53.7346L161.136 53.25L163.103 53.75L162.98 54.2346L164.947 54.7346L165.071 54.25L167.038 54.75L166.915 55.2346L168.882 55.7346L169.005 55.25L170.973 55.75L170.85 56.2346L172.817 56.7346L172.94 56.25L174.908 56.75L174.784 57.2346L176.752 57.7346L176.875 57.25L178.842 57.75L178.719 58.2346L180.687 58.7346L180.81 58.25L182.777 58.75L182.654 59.2346L184.621 59.7346L184.745 59.25L186.712 59.75L186.589 60.2346L188.556 60.7346L188.679 60.25L190.647 60.75L190.524 61.2346L192.491 61.7346L192.614 61.25L194.582 61.75L194.458 62.2346L196.426 62.7346L196.549 62.25L198.516 62.75L198.393 63.2346L198.761 63.328L198.59 63.65L199.032 63.8839L198.097 65.6511L197.655 65.4172L196.72 67.1844L197.162 67.4183L196.226 69.1856L195.784 68.9517L194.849 70.7189L195.291 70.9528L194.355 72.72L193.914 72.4861L192.978 74.2534L193.42 74.4873L192.485 76.2545L192.043 76.0206L191.108 77.7879L191.549 78.0217L190.614 79.789L190.172 79.5551L189.237 81.3223L189.679 81.5562L188.743 83.3235L188.302 83.0896L187.366 84.8568L187.808 85.0907L186.873 86.8579L186.431 86.624L185.495 88.3913L185.937 88.6252L185.002 90.3924L184.56 90.1585L183.625 91.9257L184.067 92.1596L183.131 93.9269L182.689 93.693L181.754 95.4602L182.196 95.6941L181.261 97.4613L180.819 97.2274L179.883 98.9947L180.325 99.2286L179.39 100.996L178.948 100.762L178.013 102.529L178.455 102.763L177.519 104.53L177.077 104.296L176.142 106.064L176.584 106.298L175.649 108.065L175.207 107.831L174.271 109.598L174.713 109.832L173.778 111.599L173.336 111.365L172.401 113.133L172.843 113.366L171.907 115.134L171.465 114.9L170.53 116.667L170.972 116.901L170.037 118.668L169.595 118.434L168.659 120.202L169.101 120.435L168.166 122.203L167.724 121.969L166.789 123.736L167.231 123.97L166.295 125.737L165.853 125.503L164.918 127.27L165.36 127.504L164.425 129.272L163.983 129.038L163.047 130.805L163.489 131.039L162.554 132.806L162.112 132.572L161.177 134.339L161.619 134.573L160.683 136.341L160.241 136.107L159.306 137.874L159.748 138.108L158.812 139.875L158.371 139.641L157.435 141.408L157.877 141.642L156.942 143.409L156.5 143.176L155.565 144.943L156.006 145.177L155.071 146.944L154.629 146.71L153.694 148.477L154.136 148.711L153.2 150.478L152.759 150.245L151.823 152.012L152.265 152.246L151.33 154.013L150.888 153.779L149.952 155.546L150.394 155.78L149.459 157.547L149.017 157.313L148.082 159.081L148.524 159.315L147.588 161.082L147.146 160.848L146.211 162.615L146.653 162.849L145.718 164.616L145.276 164.382L144.34 166.15L144.782 166.384L143.847 168.151L143.405 167.917L142.47 169.684L142.912 169.918L141.976 171.685L141.534 171.451L140.599 173.219L141.041 173.453L140.106 175.22L139.664 174.986L138.728 176.753L139.17 176.987L138.235 178.754L137.793 178.52L136.858 180.288L137.3 180.522L136.364 182.289L135.922 182.055L134.987 183.822L135.429 184.056L134.494 185.823L134.052 185.589L133.116 187.357L133.558 187.59L132.623 189.358L132.181 189.124L131.246 190.891L131.688 191.125L130.752 192.892L130.31 192.658L129.375 194.426L129.817 194.659L128.881 196.427L128.44 196.193L127.504 197.96L127.946 198.194L127.011 199.961L126.569 199.727L125.634 201.495L126.075 201.728L125.14 203.496L124.698 203.262L123.763 205.029L124.205 205.263L123.269 207.03L122.827 206.796L121.892 208.564L122.334 208.797L121.399 210.565L120.957 210.331L120.021 212.098L120.463 212.332L119.528 214.099L119.086 213.865L118.151 215.632L118.593 215.866L117.657 217.634L117.215 217.4L116.28 219.167L116.722 219.401L115.787 221.168L115.345 220.934L114.409 222.701L114.851 222.935L113.916 224.703L113.474 224.469L112.539 226.236L112.981 226.47L112.045 228.237L111.603 228.003L110.668 229.77L111.11 230.004L110.175 231.772L109.733 231.538L108.797 233.305L109.239 233.539L108.304 235.306L107.862 235.072L106.927 236.839L107.369 237.073L106.433 238.841L105.991 238.607L105.056 240.374L105.498 240.608L104.562 242.375L104.121 242.141L103.185 243.908L103.627 244.142L102.692 245.909L102.25 245.676L101.315 247.443L101.756 247.677L100.821 249.444L100.379 249.21L99.4439 250.977L99.8858 251.211L98.9504 252.978L98.5085 252.745L97.5732 254.512L98.0151 254.746L97.0797 256.513L96.6378 256.279L95.7025 258.046L96.1444 258.28L95.2091 260.047L94.7671 259.814L93.8318 261.581L94.2737 261.815L93.3384 263.582L92.8964 263.348L91.9611 265.115L92.403 265.349L91.4677 267.116L91.0257 266.882L90.7632 267.379L90.223 267.178L90.0489 267.647L88.1467 266.94L88.3208 266.471L86.4186 265.765L86.2446 266.234L84.3424 265.527L84.5165 265.058L82.6143 264.352L82.4402 264.821L80.538 264.114L80.7121 263.645L78.81 262.939L78.6359 263.408L76.7337 262.701L76.9078 262.232L75.0056 261.526L74.8315 261.995L72.9294 261.288L73.1034 260.819L71.2013 260.113L71.0272 260.582L69.125 259.875L69.2991 259.406L67.3969 258.7L67.2228 259.168L65.3207 258.462L65.4948 257.993L63.5926 257.287L63.4185 257.755L61.5163 257.049L61.6904 256.58L59.7882 255.874L59.6141 256.342L57.712 255.636L57.8861 255.167L55.9839 254.461L55.8098 254.929L53.9076 254.223L54.0817 253.754L52.1795 253.048L52.0054 253.516L50.1033 252.81L50.2774 252.341L48.3752 251.635L48.2011 252.103L46.2989 251.397L46.473 250.928L44.5708 250.222L44.3968 250.69L42.4946 249.984L42.6687 249.515L40.7665 248.808L40.5924 249.277L38.6902 248.571L38.8643 248.102L36.9621 247.395L36.788 247.864L34.8859 247.158L35.06 246.689L33.1578 245.982L32.9837 246.451L31.0815 245.745L31.2556 245.276L29.3534 244.569L29.1794 245.038L27.2772 244.332L27.4513 243.863L25.5491 243.156L25.375 243.625L23.4728 242.918L23.6469 242.45L21.7447 241.743L21.5707 242.212L19.6685 241.505L19.8426 241.037L17.9404 240.33L17.7663 240.799L15.8641 240.092L16.0382 239.624L14.1361 238.917L13.962 239.386L12.0598 238.679L12.2339 238.211L10.3317 237.504L10.1576 237.973L8.25543 237.266L8.42953 236.798L6.52735 236.091L6.35326 236.56L4.45109 235.853L4.62518 235.385L4.21307 235.231L4.41107 234.865L3.97105 234.627L4.91301 232.882L5.35303 233.119L6.29499 231.374L5.85497 231.136L6.79694 229.391L7.23696 229.628L8.17892 227.882L7.7389 227.645L8.68086 225.899L9.12088 226.137L10.0628 224.391L9.62282 224.154L10.5648 222.408L11.0048 222.646L11.9468 220.9L11.5067 220.663L12.4487 218.917L12.8887 219.155L13.8307 217.409L13.3907 217.172L14.3326 215.426L14.7726 215.664L15.7146 213.918L15.2746 213.681L16.2166 211.935L16.6566 212.173L17.5985 210.427L17.1585 210.19L18.1005 208.444L18.5405 208.682L19.4825 206.936L19.0424 206.699L19.9844 204.953L20.4244 205.191L21.3664 203.445L20.9264 203.208L21.8683 201.462L22.3083 201.699L23.2503 199.954L22.8103 199.716L23.7522 197.971L24.1923 198.208L25.1342 196.463L24.6942 196.225L25.6362 194.48L26.0762 194.717L27.0182 192.972L26.5781 192.734L27.5201 190.989L27.9601 191.226L28.9021 189.481L28.4621 189.243L29.404 187.498L29.844 187.735L30.786 185.99L30.346 185.752L31.2879 184.007L31.728 184.244L32.6699 182.499L32.2299 182.261L33.1719 180.516L33.6119 180.753L34.5538 179.008L34.1138 178.77L35.0558 177.025L35.4958 177.262L36.4378 175.516L35.9978 175.279L36.9397 173.534L37.3797 173.771L38.3217 172.025L37.8817 171.788L38.8236 170.042L39.2637 170.28L40.2056 168.534L39.7656 168.297L40.7076 166.551L41.1476 166.789L42.0895 165.043L41.6495 164.806L42.5915 163.06L43.0315 163.298L43.9735 161.552L43.5335 161.315L44.4754 159.569L44.9154 159.807L45.8574 158.061L45.4174 157.824L46.3593 156.078L46.7994 156.316L47.7413 154.57L47.3013 154.333L48.2433 152.587L48.6833 152.825L49.6253 151.079L49.1852 150.842L50.1272 149.096L50.5672 149.333L51.5092 147.588L51.0692 147.351L52.0111 145.605L52.4511 145.842L53.3931 144.097L52.9531 143.859L53.8951 142.114L54.3351 142.351L55.277 140.606L54.837 140.368L55.779 138.623L56.219 138.86L57.161 137.115L56.721 136.877L57.6629 135.132L58.1029 135.369L59.0449 133.624L58.6049 133.386L59.5469 131.641L59.9869 131.878L60.9288 130.133L60.4888 129.895L61.4308 128.15L61.8708 128.387L62.8128 126.642L62.3727 126.404L63.3147 124.659L63.7547 124.896L64.6967 123.15L64.2567 122.913L65.1986 121.167L65.6387 121.405L66.5806 119.659L66.1406 119.422L67.0826 117.676L67.5226 117.914L68.4646 116.168L68.0245 115.931L68.9665 114.185L69.4065 114.423L70.3485 112.677L69.9085 112.44L70.8504 110.694L71.2905 110.932L72.2324 109.186L71.7924 108.949L72.7344 107.203L73.1744 107.441L74.1164 105.695L73.6763 105.458L74.6183 103.712L75.0583 103.95L76.0003 102.204L75.5603 101.967L76.5022 100.221L76.9423 100.458L77.8842 98.7129L77.4442 98.4754L78.3862 96.7299L78.8262 96.9674L79.7682 95.2218L79.3281 94.9844L80.2701 93.2388L80.7101 93.4763L81.6521 91.7308L81.2121 91.4933L82.154 89.7478L82.594 89.9852L83.536 88.2397L83.096 88.0022L84.0379 86.2567L84.478 86.4941L85.4199 84.7486L84.9799 84.5112L85.9219 82.7656L86.3619 83.0031L87.3039 81.2575L86.8638 81.0201L87.8058 79.2746L88.2458 79.512L89.1878 77.7665L88.7478 77.529L89.6897 75.7835L90.1297 76.0209L91.0717 74.2754L90.6317 74.0379L91.5737 72.2924L92.0137 72.5299L92.9556 70.7843L92.5156 70.5469L93.4576 68.8013L93.8976 69.0388L94.8396 67.2933L94.3996 67.0558L95.3415 65.3103L95.7815 65.5477L96.7235 63.8022L96.2835 63.5647L97.2254 61.8192L97.6655 62.0567L98.6074 60.3111L98.1674 60.0737L99.1094 58.3281L99.5494 58.5656L100.491 56.82L100.051 56.5826L100.993 54.8371L101.433 55.0745L102.375 53.329L101.935 53.0915L102.877 51.346L103.317 51.5834L104.259 49.8379L103.819 49.6004L104.761 47.8549L105.201 48.0924L106.143 46.3468L105.703 46.1094L106.645 44.3638L107.085 44.6013L108.027 42.8558L107.587 42.6183Z" fill="#E6E6E6" stroke="#FF66D4" stroke-dasharray="2 2"/>
  <path d="M52.0141 205.5H50.0047V206H49.5V206.484H49V208.453H49.5V210.422H49V212.391H49.5V214.359H49V216.328H49.5V218.297H49V220.266H49.5V222.234H49V224.203H49.5V226.172H49V228.141H49.5V230.109H49V232.078H49.5V234.047H49V236.016H49.5V237.984H49V239.953H49.5V241.922H49V243.891H49.5V245.859H49V247.828H49.5V249.797H49V251.766H49.5V253.734H49V255.703H49.5V257.672H49V259.641H49.5V261.609H49V263.578H49.5V265.547H49V267.516H49.5V269.484H49V271.453H49.5V273.422H49V275.391H49.5V277.359H49V279.328H49.5V281.297H49V283.266H49.5V285.234H49V287.203H49.5V289.172H49V291.141H49.5V293.109H49V295.078H49.5V297.047H49V299.016H49.5V299.5H50.0048V300H52.0142V299.5H54.0236V300H56.0331V299.5H58.0425V300H60.0519V299.5H62.0614V300H64.0708V299.5H66.0802V300H68.0896V299.5H70.0991V300H72.1085V299.5H74.1179V300H76.1274V299.5H78.1368V300H80.1462V299.5H82.1557V300H84.1651V299.5H86.1745V300H88.1839V299.5H90.1934V300H92.2028V299.5H94.2122V300H96.2217V299.5H98.2311V300H100.241V299.5H102.25V300H104.259V299.5H106.269V300H108.278V299.5H110.288V300H112.297V299.5H114.307V300H116.316V299.5H118.325V300H120.335V299.5H122.344V300H124.354V299.5H126.363V300H128.373V299.5H130.382V300H132.391V299.5H134.401V300H136.41V299.5H138.42V300H140.429V299.5H142.439V300H144.448V299.5H146.457V300H148.467V299.5H150.476V300H152.486V299.5H154.495V300H156.505V299.5H158.514V300H160.524V299.5H162.533V300H164.542V299.5H166.552V300H168.561V299.5H170.571V300H172.58V299.5H174.59V300H176.599V299.5H178.608V300H180.618V299.5H182.627V300H184.637V299.5H186.646V300H188.656V299.5H190.665V300H192.675V299.5H194.684V300H196.693V299.5H198.703V300H200.712V299.5H202.722V300H204.731V299.5H206.741V300H208.75V299.5H210.759V300H212.769V299.5H214.778V300H216.788V299.5H218.797V300H220.807V299.5H222.816V300H224.825V299.5H226.835V300H228.844V299.5H230.854V300H232.863V299.5H234.873V300H236.882V299.5H238.892V300H240.901V299.5H242.91V300H244.92V299.5H246.929V300H248.939V299.5H250.948V300H252.958V299.5H254.967V300H256.976V299.5H258.986V300H260.995V299.5H261.5V299.016H262V297.047H261.5V295.078H262V293.109H261.5V291.141H262V289.172H261.5V287.203H262V285.234H261.5V283.266H262V281.297H261.5V279.328H262V277.359H261.5V275.391H262V273.422H261.5V271.453H262V269.484H261.5V267.516H262V265.547H261.5V263.578H262V261.609H261.5V259.641H262V257.672H261.5V255.703H262V253.734H261.5V251.766H262V249.797H261.5V247.828H262V245.859H261.5V243.891H262V241.922H261.5V239.953H262V237.984H261.5V236.016H262V234.047H261.5V232.078H262V230.109H261.5V228.141H262V226.172H261.5V224.203H262V222.234H261.5V220.266H262V218.297H261.5V216.328H262V214.359H261.5V212.391H262V210.422H261.5V208.453H262V206.484H261.5V206H260.995V205.5H258.986V206H256.976V205.5H254.967V206H252.958V205.5H250.948V206H248.939V205.5H246.929V206H244.92V205.5H242.91V206H240.901V205.5H238.891V206H236.882V205.5H234.873V206H232.863V205.5H230.854V206H228.844V205.5H226.835V206H224.825V205.5H222.816V206H220.807V205.5H218.797V206H216.788V205.5H214.778V206H212.769V205.5H210.759V206H208.75V205.5H206.741V206H204.731V205.5H202.722V206H200.712V205.5H198.703V206H196.693V205.5H194.684V206H192.675V205.5H190.665V206H188.656V205.5H186.646V206H184.637V205.5H182.627V206H180.618V205.5H178.609V206H176.599V205.5H174.59V206H172.58V205.5H170.571V206H168.561V205.5H166.552V206H164.543V205.5H162.533V206H160.524V205.5H158.514V206H156.505V205.5H154.495V206H152.486V205.5H150.476V206H148.467V205.5H146.458V206H144.448V205.5H142.439V206H140.429V205.5H138.42V206H136.41V205.5H134.401V206H132.392V205.5H130.382V206H128.373V205.5H126.363V206H124.354V205.5H122.344V206H120.335V205.5H118.325V206H116.316V205.5H114.307V206H112.297V205.5H110.288V206H108.278V205.5H106.269V206H104.259V205.5H102.25V206H100.241V205.5H98.2311V206H96.2217V205.5H94.2123V206H92.2028V205.5H90.1934V206H88.184V205.5H86.1745V206H84.1651V205.5H82.1557V206H80.1462V205.5H78.1368V206H76.1273V205.5H74.1179V206H72.1085V205.5H70.0991V206H68.0896V205.5H66.0802V206H64.0708V205.5H62.0613V206H60.0519V205.5H58.0424V206H56.033V205.5H54.0236V206H52.0141V205.5Z" fill="#E6E6E6" stroke="#FF66D4" stroke-dasharray="2 2"/>
  <path d="M204.413 42.6183L203.471 40.8728L203.031 41.1102L202.741 40.5725L202.117 40.7156L202.005 40.2282L200.016 40.6848L200.128 41.1721L198.139 41.6286L198.027 41.1413L196.038 41.5978L196.15 42.0851L194.161 42.5417L194.049 42.0543L192.06 42.5109L192.172 42.9982L190.183 43.4547L190.071 42.9674L188.082 43.4239L188.193 43.9112L186.204 44.3678L186.092 43.8804L184.103 44.3369L184.215 44.8243L182.226 45.2808L182.114 44.7935L180.125 45.25L180.237 45.7373L178.248 46.1938L178.136 45.7065L176.147 46.163L176.259 46.6504L174.269 47.1069L174.158 46.6196L172.169 47.0761L172.28 47.5634L170.291 48.0199L170.179 47.5326L168.19 47.9891L168.302 48.4765L166.313 48.933L166.201 48.4456L164.212 48.9022L164.324 49.3895L162.335 49.846L162.223 49.3587L160.234 49.8152L160.346 50.3025L158.356 50.7591L158.245 50.2717L156.255 50.7283L156.367 51.2156L154.378 51.6721L154.266 51.1848L152.277 51.6413L152.389 52.1286L150.4 52.5852L150.288 52.0978L148.299 52.5543L148.411 53.0417L146.422 53.4982L146.31 53.0109L144.321 53.4674L144.432 53.9547L142.443 54.4112L142.332 53.9239L140.342 54.3804L140.454 54.8678L138.465 55.3243L138.353 54.837L136.364 55.2935L136.476 55.7808L134.487 56.2373L134.375 55.75L132.386 56.2065L132.498 56.6939L130.509 57.1504L130.397 56.663L128.408 57.1196L128.519 57.6069L126.53 58.0634L126.418 57.5761L124.429 58.0326L124.541 58.5199L122.552 58.9765L122.44 58.4891L120.451 58.9457L120.563 59.433L118.574 59.8895L118.462 59.4022L116.473 59.8587L116.585 60.346L114.596 60.8025L114.484 60.3152L112.495 60.7717L112.606 61.2591L112.246 61.3417L112.406 61.6433L111.964 61.8771L112.892 63.6313L113.334 63.3975L114.262 65.1518L113.82 65.3856L114.748 67.1398L115.19 66.906L116.118 68.6602L115.676 68.894L116.604 70.6483L117.046 70.4145L117.974 72.1687L117.532 72.4025L118.46 74.1567L118.902 73.923L119.83 75.6772L119.388 75.911L120.316 77.6652L120.758 77.4314L121.686 79.1857L121.244 79.4195L122.172 81.1737L122.614 80.9399L123.542 82.6942L123.1 82.9279L124.028 84.6822L124.469 84.4484L125.397 86.2026L124.955 86.4364L125.883 88.1907L126.325 87.9569L127.253 89.7111L126.811 89.9449L127.739 91.6991L128.181 91.4653L129.109 93.2196L128.667 93.4534L129.595 95.2076L130.037 94.9738L130.965 96.728L130.523 96.9618L131.451 98.7161L131.893 98.4823L132.821 100.237L132.379 100.47L133.307 102.225L133.749 101.991L134.677 103.745L134.235 103.979L135.163 105.733L135.605 105.499L136.533 107.253L136.091 107.487L137.019 109.242L137.461 109.008L138.389 110.762L137.947 110.996L138.875 112.75L139.317 112.516L140.245 114.27L139.803 114.504L140.731 116.258L141.173 116.025L142.101 117.779L141.659 118.013L142.587 119.767L143.029 119.533L143.957 121.287L143.515 121.521L144.443 123.275L144.885 123.042L145.813 124.796L145.371 125.03L146.299 126.784L146.741 126.55L147.669 128.304L147.227 128.538L148.155 130.292L148.597 130.059L149.525 131.813L149.083 132.047L150.011 133.801L150.453 133.567L151.381 135.321L150.939 135.555L151.867 137.309L152.308 137.076L153.236 138.83L152.794 139.064L153.722 140.818L154.164 140.584L155.092 142.338L154.65 142.572L155.578 144.326L156.02 144.092L156.948 145.847L156.506 146.08L157.434 147.835L157.876 147.601L158.804 149.355L158.362 149.589L159.29 151.343L159.732 151.109L160.66 152.864L160.218 153.097L161.146 154.852L161.588 154.618L162.516 156.372L162.074 156.606L163.002 158.36L163.444 158.126L164.372 159.881L163.93 160.114L164.858 161.869L165.3 161.635L166.228 163.389L165.786 163.623L166.714 165.377L167.156 165.143L168.084 166.898L167.642 167.131L168.57 168.886L169.012 168.652L169.94 170.406L169.498 170.64L170.426 172.394L170.868 172.16L171.796 173.915L171.354 174.148L172.282 175.903L172.724 175.669L173.652 177.423L173.21 177.657L174.138 179.411L174.58 179.177L175.508 180.931L175.066 181.165L175.994 182.919L176.436 182.686L177.364 184.44L176.922 184.674L177.85 186.428L178.292 186.194L179.22 187.948L178.778 188.182L179.706 189.936L180.147 189.703L181.075 191.457L180.633 191.691L181.561 193.445L182.003 193.211L182.931 194.965L182.489 195.199L183.417 196.953L183.859 196.72L184.787 198.474L184.345 198.708L185.273 200.462L185.715 200.228L186.643 201.982L186.201 202.216L187.129 203.97L187.571 203.737L188.499 205.491L188.057 205.725L188.985 207.479L189.427 207.245L190.355 208.999L189.913 209.233L190.841 210.987L191.283 210.753L192.211 212.508L191.769 212.742L192.697 214.496L193.139 214.262L194.067 216.016L193.625 216.25L194.553 218.004L194.995 217.77L195.923 219.525L195.481 219.758L196.409 221.513L196.851 221.279L197.779 223.033L197.337 223.267L198.265 225.021L198.707 224.787L199.635 226.542L199.193 226.775L200.121 228.53L200.563 228.296L201.491 230.05L201.049 230.284L201.977 232.038L202.419 231.804L203.347 233.559L202.905 233.792L203.833 235.547L204.275 235.313L205.203 237.067L204.761 237.301L205.689 239.055L206.131 238.821L207.058 240.576L206.617 240.809L207.544 242.564L207.986 242.33L208.914 244.084L208.472 244.318L209.4 246.072L209.842 245.838L210.77 247.592L210.328 247.826L211.256 249.581L211.698 249.347L212.626 251.101L212.184 251.335L213.112 253.089L213.554 252.855L214.482 254.609L214.04 254.843L214.968 256.597L215.41 256.364L216.338 258.118L215.896 258.352L216.824 260.106L217.266 259.872L218.194 261.626L217.752 261.86L218.68 263.614L219.122 263.381L220.05 265.135L219.608 265.369L220.536 267.123L220.978 266.889L221.237 267.379L221.777 267.178L221.951 267.647L223.853 266.94L223.679 266.471L225.581 265.765L225.755 266.234L227.658 265.527L227.484 265.058L229.386 264.352L229.56 264.821L231.462 264.114L231.288 263.645L233.19 262.939L233.364 263.408L235.266 262.701L235.092 262.232L236.994 261.526L237.168 261.995L239.071 261.288L238.897 260.819L240.799 260.113L240.973 260.582L242.875 259.875L242.701 259.406L244.603 258.7L244.777 259.168L246.679 258.462L246.505 257.993L248.407 257.287L248.582 257.755L250.484 257.049L250.31 256.58L252.212 255.874L252.386 256.342L254.288 255.636L254.114 255.167L256.016 254.461L256.19 254.929L258.092 254.223L257.918 253.754L259.82 253.048L259.995 253.516L261.897 252.81L261.723 252.341L263.625 251.635L263.799 252.103L265.701 251.397L265.527 250.928L267.429 250.222L267.603 250.69L269.505 249.984L269.331 249.515L271.234 248.808L271.408 249.277L273.31 248.571L273.136 248.102L275.038 247.395L275.212 247.864L277.114 247.158L276.94 246.689L278.842 245.982L279.016 246.451L280.918 245.745L280.744 245.276L282.647 244.569L282.821 245.038L284.723 244.332L284.549 243.863L286.451 243.156L286.625 243.625L288.527 242.918L288.353 242.45L290.255 241.743L290.429 242.212L292.332 241.505L292.157 241.037L294.06 240.33L294.234 240.799L296.136 240.092L295.962 239.624L297.864 238.917L298.038 239.386L299.94 238.679L299.766 238.211L301.668 237.504L301.842 237.973L303.745 237.266L303.57 236.798L305.473 236.091L305.647 236.56L307.549 235.853L307.375 235.385L307.787 235.231L307.589 234.865L308.029 234.627L307.087 232.882L306.647 233.119L305.705 231.374L306.145 231.136L305.203 229.391L304.763 229.628L303.821 227.882L304.261 227.645L303.319 225.899L302.879 226.137L301.937 224.391L302.377 224.154L301.435 222.408L300.995 222.646L300.053 220.9L300.493 220.663L299.551 218.917L299.111 219.155L298.169 217.409L298.609 217.172L297.667 215.426L297.227 215.664L296.285 213.918L296.725 213.681L295.783 211.935L295.343 212.173L294.401 210.427L294.841 210.19L293.9 208.444L293.46 208.682L292.518 206.936L292.958 206.699L292.016 204.953L291.576 205.191L290.634 203.445L291.074 203.208L290.132 201.462L289.692 201.699L288.75 199.954L289.19 199.716L288.248 197.971L287.808 198.208L286.866 196.463L287.306 196.225L286.364 194.48L285.924 194.717L284.982 192.972L285.422 192.734L284.48 190.989L284.04 191.226L283.098 189.481L283.538 189.243L282.596 187.498L282.156 187.735L281.214 185.99L281.654 185.752L280.712 184.007L280.272 184.244L279.33 182.499L279.77 182.261L278.828 180.516L278.388 180.753L277.446 179.008L277.886 178.77L276.944 177.025L276.504 177.262L275.562 175.516L276.002 175.279L275.06 173.534L274.62 173.771L273.678 172.025L274.118 171.788L273.176 170.042L272.736 170.28L271.794 168.534L272.234 168.297L271.292 166.551L270.852 166.789L269.91 165.043L270.35 164.806L269.409 163.06L268.968 163.298L268.027 161.552L268.467 161.315L267.525 159.569L267.085 159.807L266.143 158.061L266.583 157.824L265.641 156.078L265.201 156.316L264.259 154.57L264.699 154.333L263.757 152.587L263.317 152.825L262.375 151.079L262.815 150.842L261.873 149.096L261.433 149.333L260.491 147.588L260.931 147.351L259.989 145.605L259.549 145.842L258.607 144.097L259.047 143.859L258.105 142.114L257.665 142.351L256.723 140.606L257.163 140.368L256.221 138.623L255.781 138.86L254.839 137.115L255.279 136.877L254.337 135.132L253.897 135.369L252.955 133.624L253.395 133.386L252.453 131.641L252.013 131.878L251.071 130.133L251.511 129.895L250.569 128.15L250.129 128.387L249.187 126.642L249.627 126.404L248.685 124.659L248.245 124.896L247.303 123.15L247.743 122.913L246.801 121.167L246.361 121.405L245.419 119.659L245.859 119.422L244.917 117.676L244.477 117.914L243.535 116.168L243.975 115.931L243.033 114.185L242.593 114.423L241.652 112.677L242.092 112.44L241.15 110.694L240.71 110.932L239.768 109.186L240.208 108.949L239.266 107.203L238.826 107.441L237.884 105.695L238.324 105.458L237.382 103.712L236.942 103.95L236 102.204L236.44 101.967L235.498 100.221L235.058 100.458L234.116 98.7129L234.556 98.4754L233.614 96.7299L233.174 96.9674L232.232 95.2218L232.672 94.9844L231.73 93.2388L231.29 93.4763L230.348 91.7308L230.788 91.4933L229.846 89.7478L229.406 89.9852L228.464 88.2397L228.904 88.0022L227.962 86.2567L227.522 86.4941L226.58 84.7486L227.02 84.5112L226.078 82.7656L225.638 83.0031L224.696 81.2575L225.136 81.0201L224.194 79.2746L223.754 79.512L222.812 77.7665L223.252 77.529L222.31 75.7835L221.87 76.0209L220.928 74.2754L221.368 74.0379L220.426 72.2924L219.986 72.5299L219.044 70.7843L219.484 70.5469L218.542 68.8013L218.102 69.0388L217.16 67.2933L217.6 67.0558L216.658 65.3103L216.218 65.5477L215.277 63.8022L215.717 63.5647L214.775 61.8192L214.335 62.0567L213.393 60.3111L213.833 60.0737L212.891 58.3281L212.451 58.5656L211.509 56.82L211.949 56.5826L211.007 54.8371L210.567 55.0745L209.625 53.329L210.065 53.0915L209.123 51.346L208.683 51.5834L207.741 49.8379L208.181 49.6004L207.239 47.8549L206.799 48.0924L205.857 46.3468L206.297 46.1094L205.355 44.3638L204.915 44.6013L203.973 42.8558L204.413 42.6183Z" fill="#E6E6E6" stroke="#FF66D4" stroke-dasharray="2 2"/>
  <path d="M131.588 178.12V187H133.364V183.844H134.552C136.46 183.844 137.984 182.932 137.984 180.904C137.984 178.792 136.46 178.12 134.504 178.12H131.588ZM134.432 182.44H133.364V179.524H134.372C135.608 179.524 136.244 179.86 136.244 180.904C136.244 181.924 135.644 182.44 134.432 182.44ZM139.208 187H140.96V177.424H139.208V187ZM144.409 187.12C145.177 187.12 145.861 186.808 146.437 186.316H146.473L146.605 187H148.045V183.076C148.045 181.096 147.181 180.112 145.465 180.112C144.409 180.112 143.401 180.46 142.669 180.904L143.197 182.164C143.809 181.768 144.517 181.528 145.141 181.528C145.657 181.528 145.981 181.636 146.125 181.84C146.257 182.116 146.317 182.404 146.281 182.692C143.497 182.776 142.333 183.532 142.417 185.176C142.417 186.34 143.209 187.12 144.409 187.12ZM144.949 185.776C144.433 185.776 144.049 185.44 144.037 184.876C144.025 184.396 144.301 184.012 145.069 183.904C145.453 183.844 145.861 183.808 146.281 183.772V185.128C145.861 185.548 145.465 185.764 144.949 185.776ZM152.063 187.168C152.651 187.168 153.107 187.048 153.479 186.916L153.191 185.632C153.011 185.716 152.759 185.776 152.531 185.776C151.919 185.776 151.619 185.404 151.619 184.648V181.672H153.275V180.28H151.619V178.48H150.143L149.939 180.28L148.907 180.364V181.672H149.855V184.648C149.855 186.16 150.467 187.168 152.063 187.168ZM157.99 178.792L158.314 177.496C158.014 177.364 157.558 177.256 157.042 177.256C155.35 177.256 154.702 178.336 154.702 179.74V180.292L153.802 180.364V181.672H154.702V187H156.466V181.672H157.726V180.28H156.466V179.704C156.466 178.936 156.754 178.648 157.282 178.648C157.51 178.648 157.762 178.708 157.99 178.792ZM161.435 187.168C163.115 187.168 164.663 185.86 164.663 183.652C164.663 181.408 163.115 180.112 161.435 180.112C159.755 180.112 158.207 181.408 158.207 183.652C158.207 185.86 159.755 187.168 161.435 187.168ZM161.435 185.728C160.523 185.728 160.007 184.912 160.007 183.652C160.007 182.356 160.523 181.552 161.435 181.552C162.347 181.552 162.863 182.356 162.863 183.652C162.863 184.912 162.347 185.728 161.435 185.728ZM165.899 180.28V187H167.651V182.992C168.035 182.02 168.671 181.672 169.199 181.672C169.475 181.672 169.667 181.696 169.895 181.78L170.207 180.256C170.003 180.172 169.787 180.112 169.415 180.112C168.695 180.112 167.999 180.592 167.507 181.468H167.459L167.339 180.28H165.899ZM170.885 180.28V187H172.637V182.38C173.117 181.876 173.549 181.624 173.933 181.624C174.569 181.624 174.869 181.972 174.869 183.028V187H176.633V182.38C177.113 181.876 177.545 181.624 177.929 181.624C178.565 181.624 178.865 181.972 178.865 183.028V187H180.629V182.812C180.629 181.12 179.981 180.112 178.541 180.112C177.665 180.112 177.017 180.616 176.405 181.288C176.081 180.52 175.517 180.112 174.557 180.112C173.681 180.112 173.057 180.592 172.493 181.18H172.445L172.325 180.28H170.885Z" fill="white"/>
  <circle cx="156" cy="47" r="46.5" fill="#FFDB1E" stroke="#333333"/>
  <path d="M133 52.156C134.836 52.156 135.988 51.052 135.988 49.66C135.988 48.352 135.196 47.752 134.176 47.308L132.916 46.768C132.232 46.48 131.464 46.168 131.464 45.304C131.464 44.488 132.1 44.008 133.108 44.008C133.924 44.008 134.572 44.32 135.112 44.836L135.7 44.128C135.076 43.456 134.164 43.036 133.108 43.036C131.512 43.036 130.336 44.02 130.336 45.376C130.336 46.672 131.32 47.284 132.124 47.632L133.396 48.184C134.224 48.568 134.86 48.844 134.86 49.744C134.86 50.608 134.164 51.184 133.012 51.184C132.1 51.184 131.212 50.764 130.576 50.092L129.916 50.848C130.684 51.664 131.752 52.156 133 52.156ZM136.572 43.204L138.444 52H139.764L141.072 46.696C141.216 45.976 141.372 45.364 141.516 44.692H141.564C141.708 45.364 141.84 45.976 141.996 46.696L143.328 52H144.66L146.484 43.204H145.416L144.492 47.992C144.324 48.928 144.156 49.876 143.988 50.836H143.928C143.724 49.876 143.532 48.952 143.304 47.992L142.068 43.204H141.06L139.848 47.992C139.62 48.952 139.416 49.876 139.212 50.836H139.164C138.984 49.876 138.828 48.952 138.648 47.992L137.724 43.204H136.572ZM158.779 42.124H157.831V46.456H156.367V42.412H155.443V52.348H156.367V47.26H157.831V52.888H158.779V42.124ZM154.255 43.516H150.055V44.32H153.283C153.127 46.564 152.131 48.472 149.647 49.876L150.223 50.584C153.295 48.856 154.255 46.288 154.255 43.516ZM170.394 44.44H168.798V42.136H167.814V47.692H168.798V45.256H170.394V44.44ZM165.87 47.272V42.568H164.91V44.116H161.862V42.568H160.89V47.272H165.87ZM164.91 44.872V46.48H161.862V44.872H164.91ZM162.954 51.988V50.812H168.798V48.196H161.958V48.976H167.826V50.08H161.994V52.768H169.194V51.988H162.954ZM181.301 47.308V46.492H179.525V42.136H178.541V52.888H179.525V47.308H181.301ZM174.857 44.992V43.06H173.885V44.992C173.885 46.948 172.661 49 171.113 49.804L171.701 50.596C172.913 49.924 173.909 48.628 174.377 47.032C174.857 48.52 175.829 49.768 176.981 50.38L177.593 49.6C176.093 48.832 174.857 46.876 174.857 44.992Z" fill="black"/>
  <circle cx="47" cy="253" r="46.5" fill="#FFDB1E" stroke="#333333"/>
  <path d="M34.6441 250.908H33.0481V248.136H32.0641V254.652H33.0481V251.724H34.6441V250.908ZM30.3961 253.956L30.9121 253.188C29.3761 252.672 28.3081 251.304 28.3081 249.864V248.676H27.3241V249.78C27.3241 251.4 26.2801 252.9 24.6481 253.476L25.1641 254.256C26.4241 253.776 27.3841 252.792 27.8281 251.532C28.3081 252.636 29.2321 253.524 30.3961 253.956ZM29.6281 254.952C27.4321 254.952 26.0761 255.672 26.0761 256.92C26.0761 258.168 27.4321 258.876 29.6281 258.876C31.8001 258.876 33.1681 258.168 33.1681 256.92C33.1681 255.672 31.8001 254.952 29.6281 254.952ZM29.6281 258.108C28.0321 258.108 27.0601 257.688 27.0601 256.92C27.0601 256.152 28.0321 255.72 29.6281 255.72C31.2241 255.72 32.1841 256.152 32.1841 256.92C32.1841 257.688 31.2241 258.108 29.6281 258.108ZM45.2631 252.516H43.7151C44.0031 251.172 44.0031 250.224 44.0031 249.396V248.616H36.7311V249.42H43.0311C43.0311 250.236 43.0311 251.184 42.7311 252.516H35.4831V253.32H45.2631V252.516ZM43.0191 254.292V255.708H37.7271V254.292H36.7551V258.744H43.9911V254.292H43.0191ZM43.0191 256.476V257.952H37.7271V256.476H43.0191ZM54.1258 253.848V252.888H56.6098V254.652H57.6058V248.136H56.6098V249.888H54.1258V248.796H53.1538V250.512H50.2498V248.796H49.2778V253.848H54.1258ZM54.1258 250.68H56.6098V252.084H54.1258V250.68ZM53.1538 251.292V253.056H50.2498V251.292H53.1538ZM54.0418 254.868C51.8338 254.868 50.4658 255.588 50.4658 256.872C50.4658 258.156 51.8338 258.876 54.0418 258.876C56.2618 258.876 57.6298 258.156 57.6298 256.872C57.6298 255.588 56.2618 254.868 54.0418 254.868ZM54.0418 258.108C52.3978 258.108 51.4498 257.652 51.4498 256.872C51.4498 256.092 52.3978 255.624 54.0418 255.624C55.6858 255.624 56.6578 256.092 56.6578 256.872C56.6578 257.652 55.6858 258.108 54.0418 258.108ZM67.3609 254.484H65.1769V255.216H67.3609V256.32H68.3449V248.124H67.3609V254.484ZM62.9809 252.312C64.5529 252.312 65.6329 251.58 65.6329 250.428C65.6329 249.3 64.5529 248.556 62.9809 248.556C61.4089 248.556 60.3289 249.3 60.3289 250.428C60.3289 251.58 61.4089 252.312 62.9809 252.312ZM62.9809 249.288C64.0009 249.288 64.6969 249.744 64.6969 250.428C64.6969 251.148 64.0009 251.58 62.9809 251.58C61.9609 251.58 61.2649 251.148 61.2649 250.428C61.2649 249.744 61.9609 249.288 62.9809 249.288ZM62.5969 253.86V255.936H63.5809V253.812C64.5529 253.752 65.5369 253.644 66.4969 253.5L66.4129 252.792C64.1329 253.08 61.4689 253.104 59.4769 253.104L59.6089 253.92C60.5209 253.92 61.5289 253.908 62.5969 253.86ZM68.6209 257.844H61.9969V255.516H61.0129V258.648H68.6209V257.844Z" fill="black"/>
  <circle cx="265" cy="253" r="46.5" fill="#FFDB1E" stroke="#333333"/>
  <path d="M243.655 257.112H241.927V249.156H241.051L238.687 251.196L239.275 251.904L240.871 250.476C240.859 250.56 240.859 250.668 240.859 250.776V257.112H238.903V258H243.655V257.112ZM248.763 254.556C249.339 254.556 249.939 254.22 250.431 253.356L249.807 252.912C249.507 253.488 249.171 253.728 248.787 253.728C248.019 253.728 247.467 252.6 246.411 252.6C245.823 252.6 245.223 252.936 244.731 253.8L245.343 254.232C245.667 253.656 245.991 253.416 246.375 253.416C247.143 253.416 247.695 254.556 248.763 254.556ZM257.208 257.028H253.74C253.44 257.028 253.08 257.076 252.744 257.172L255.204 254.736C256.2 253.74 257.04 252.828 257.04 251.52C257.04 249.96 255.876 249.048 254.376 249.048C252.876 249.048 251.712 249.924 251.484 251.544L252.564 251.724C252.564 250.716 253.308 249.996 254.316 249.996C255.228 249.996 255.9 250.488 255.936 251.544C255.936 252.576 255.264 253.332 254.34 254.316L251.304 257.232V258H257.208V257.028ZM268.268 253.368V252.552H266.492V248.124H265.508V258.888H266.492V253.368H268.268ZM261.812 251.616V250.776H264.2V249.984H261.812V248.316H260.828V249.984H258.404V250.776H260.84V251.616C260.84 253.488 259.688 255.3 258.116 256.068L258.668 256.812C259.916 256.2 260.864 254.988 261.332 253.488C261.8 254.892 262.676 256.044 263.876 256.62L264.428 255.852C262.88 255.108 261.812 253.332 261.812 251.616ZM276.843 253.848V252.888H279.327V254.652H280.323V248.136H279.327V249.888H276.843V248.796H275.871V250.512H272.967V248.796H271.995V253.848H276.843ZM276.843 250.68H279.327V252.084H276.843V250.68ZM275.871 251.292V253.056H272.967V251.292H275.871ZM276.759 254.868C274.551 254.868 273.183 255.588 273.183 256.872C273.183 258.156 274.551 258.876 276.759 258.876C278.979 258.876 280.347 258.156 280.347 256.872C280.347 255.588 278.979 254.868 276.759 254.868ZM276.759 258.108C275.115 258.108 274.167 257.652 274.167 256.872C274.167 256.092 275.115 255.624 276.759 255.624C278.403 255.624 279.375 256.092 279.375 256.872C279.375 257.652 278.403 258.108 276.759 258.108ZM290.078 254.484H287.894V255.216H290.078V256.32H291.062V248.124H290.078V254.484ZM285.698 252.312C287.27 252.312 288.35 251.58 288.35 250.428C288.35 249.3 287.27 248.556 285.698 248.556C284.126 248.556 283.046 249.3 283.046 250.428C283.046 251.58 284.126 252.312 285.698 252.312ZM285.698 249.288C286.718 249.288 287.414 249.744 287.414 250.428C287.414 251.148 286.718 251.58 285.698 251.58C284.678 251.58 283.982 251.148 283.982 250.428C283.982 249.744 284.678 249.288 285.698 249.288ZM285.314 253.86V255.936H286.298V253.812C287.27 253.752 288.254 253.644 289.214 253.5L289.13 252.792C286.85 253.08 284.186 253.104 282.194 253.104L282.326 253.92C283.238 253.92 284.246 253.908 285.314 253.86ZM291.338 257.844H284.714V255.516H283.73V258.648H291.338V257.844Z" fill="black"/>
  <path d="M82.5835 132.12V141H84.1795V137.292C84.1795 136.464 84.0475 135.204 83.9515 134.376H83.9995L84.7075 136.464L86.0875 140.196H87.1075L88.4755 136.464L89.1955 134.376H89.2435C89.1475 135.204 89.0275 136.464 89.0275 137.292V141H90.6475V132.12H88.6795L87.2035 136.272C87.0115 136.836 86.8555 137.412 86.6635 137.988H86.6035C86.4235 137.412 86.2555 136.836 86.0635 136.272L84.5515 132.12H82.5835ZM95.3577 141.168C96.2217 141.168 97.0377 140.892 97.7097 140.424L97.1097 139.344C96.6297 139.644 96.1617 139.812 95.5977 139.812C94.5897 139.812 93.8817 139.236 93.7377 138.132H97.8777C97.9257 137.976 97.9617 137.652 97.9617 137.328C97.9617 135.468 97.0017 134.112 95.1537 134.112C93.5577 134.112 92.0217 135.48 92.0217 137.652C92.0217 139.86 93.4857 141.168 95.3577 141.168ZM96.4497 136.968H93.7137C93.8457 135.996 94.4697 135.48 95.1777 135.48C96.0417 135.48 96.4497 136.056 96.4497 136.968ZM101.538 141.168C102.258 141.168 102.906 140.784 103.398 140.304H103.434L103.578 141H105.006V131.424H103.242V133.788L103.314 134.844C102.834 134.4 102.378 134.112 101.61 134.112C100.158 134.112 98.7903 135.456 98.7903 137.652C98.7903 139.848 99.8583 141.168 101.538 141.168ZM101.994 139.716C101.07 139.716 100.602 139.02 100.602 137.628C100.602 136.284 101.238 135.564 101.994 135.564C102.414 135.564 102.822 135.696 103.242 136.068V139.02C102.858 139.536 102.462 139.716 101.994 139.716ZM108.253 133.2V131.496H106.501V133.2H108.253ZM106.489 141H108.241V134.28H106.489V141ZM112.589 141.168C113.357 141.168 114.149 140.916 114.785 140.352L114.089 139.188C113.717 139.512 113.261 139.728 112.781 139.728C111.617 139.728 111.113 138.672 111.113 137.652C111.113 136.356 111.809 135.552 112.829 135.552C113.213 135.552 113.525 135.708 113.861 135.996L114.701 134.856C114.209 134.436 113.573 134.112 112.745 134.112C110.921 134.112 109.313 135.408 109.313 137.652C109.313 139.86 110.729 141.168 112.589 141.168ZM117.478 141.12C118.246 141.12 118.93 140.808 119.506 140.316H119.542L119.674 141H121.114V137.076C121.114 135.096 120.25 134.112 118.534 134.112C117.478 134.112 116.47 134.46 115.738 134.904L116.266 136.164C116.878 135.768 117.586 135.528 118.21 135.528C118.726 135.528 119.05 135.636 119.194 135.84C119.326 136.116 119.386 136.404 119.35 136.692C116.566 136.776 115.402 137.532 115.486 139.176C115.486 140.34 116.278 141.12 117.478 141.12ZM118.018 139.776C117.502 139.776 117.118 139.44 117.106 138.876C117.094 138.396 117.37 138.012 118.138 137.904C118.522 137.844 118.93 137.808 119.35 137.772V139.128C118.93 139.548 118.534 139.764 118.018 139.776ZM122.671 141H124.423V131.424H122.671V141ZM90.8572 149.12V158H92.6332V149.12H90.8572ZM94.4341 151.28V158H96.1861V153.38C96.7021 152.888 97.0261 152.624 97.5901 152.624C98.2621 152.624 98.5381 152.984 98.5381 154.028V158H100.302V153.812C100.302 152.12 99.6781 151.112 98.2261 151.112C97.3141 151.112 96.6301 151.592 96.0421 152.168H95.9941L95.8741 151.28H94.4341ZM105.47 149.792L105.794 148.496C105.494 148.364 105.038 148.256 104.522 148.256C102.83 148.256 102.182 149.336 102.182 150.74V151.292L101.282 151.364V152.672H102.182V158H103.946V152.672H105.206V151.28H103.946V150.704C103.946 149.936 104.234 149.648 104.762 149.648C104.99 149.648 105.242 149.708 105.47 149.792ZM106.106 151.28V158H107.858V153.992C108.242 153.02 108.878 152.672 109.406 152.672C109.682 152.672 109.874 152.696 110.102 152.78L110.414 151.256C110.21 151.172 109.994 151.112 109.622 151.112C108.902 151.112 108.206 151.592 107.714 152.468H107.666L107.546 151.28H106.106ZM112.749 158.12C113.517 158.12 114.201 157.808 114.777 157.316H114.813L114.945 158H116.385V154.076C116.385 152.096 115.521 151.112 113.805 151.112C112.749 151.112 111.741 151.46 111.009 151.904L111.537 153.164C112.149 152.768 112.857 152.528 113.481 152.528C113.997 152.528 114.321 152.636 114.465 152.84C114.597 153.116 114.657 153.404 114.621 153.692C111.837 153.776 110.673 154.532 110.757 156.176C110.757 157.34 111.549 158.12 112.749 158.12ZM113.289 156.776C112.773 156.776 112.389 156.44 112.377 155.876C112.365 155.396 112.641 155.012 113.409 154.904C113.793 154.844 114.201 154.808 114.621 154.772V156.128C114.201 156.548 113.805 156.764 113.289 156.776Z" fill="black"/>
  <path d="M127.725 250.168C128.889 250.168 129.825 249.736 130.557 248.86L129.621 247.756C129.141 248.272 128.553 248.632 127.785 248.632C126.381 248.632 125.469 247.468 125.469 245.536C125.469 243.628 126.477 242.476 127.821 242.476C128.493 242.476 129.009 242.788 129.453 243.22L130.389 242.092C129.813 241.48 128.937 240.952 127.785 240.952C125.541 240.952 123.657 242.668 123.657 245.596C123.657 248.56 125.469 250.168 127.725 250.168ZM131.603 250H133.355V240.424H131.603V250ZM136.744 242.2V240.496H134.992V242.2H136.744ZM134.98 250H136.732V243.28H134.98V250ZM138.225 243.28V250H139.977V245.38C140.493 244.888 140.817 244.624 141.381 244.624C142.053 244.624 142.329 244.984 142.329 246.028V250H144.093V245.812C144.093 244.12 143.469 243.112 142.017 243.112C141.105 243.112 140.421 243.592 139.833 244.168H139.785L139.665 243.28H138.225ZM147.268 242.2V240.496H145.516V242.2H147.268ZM145.504 250H147.256V243.28H145.504V250ZM151.605 250.168C152.373 250.168 153.165 249.916 153.801 249.352L153.105 248.188C152.733 248.512 152.277 248.728 151.797 248.728C150.633 248.728 150.129 247.672 150.129 246.652C150.129 245.356 150.825 244.552 151.845 244.552C152.229 244.552 152.541 244.708 152.877 244.996L153.717 243.856C153.225 243.436 152.589 243.112 151.761 243.112C149.937 243.112 148.329 244.408 148.329 246.652C148.329 248.86 149.745 250.168 151.605 250.168ZM156.493 250.12C157.261 250.12 157.945 249.808 158.521 249.316H158.557L158.689 250H160.129V246.076C160.129 244.096 159.265 243.112 157.549 243.112C156.493 243.112 155.485 243.46 154.753 243.904L155.281 245.164C155.893 244.768 156.601 244.528 157.225 244.528C157.741 244.528 158.065 244.636 158.209 244.84C158.341 245.116 158.401 245.404 158.365 245.692C155.581 245.776 154.417 246.532 154.501 248.176C154.501 249.34 155.293 250.12 156.493 250.12ZM157.033 248.776C156.517 248.776 156.133 248.44 156.121 247.876C156.109 247.396 156.385 247.012 157.153 246.904C157.537 246.844 157.945 246.808 158.365 246.772V248.128C157.945 248.548 157.549 248.764 157.033 248.776ZM161.687 250H163.439V240.424H161.687V250ZM170.507 250.168C172.559 250.168 173.771 248.932 173.771 247.48C173.771 246.184 173.087 245.512 171.983 245.068L170.819 244.576C170.063 244.288 169.427 244.012 169.427 243.412C169.427 242.824 169.931 242.476 170.711 242.476C171.443 242.476 172.031 242.74 172.595 243.208L173.495 242.092C172.775 241.36 171.767 240.952 170.711 240.952C168.923 240.952 167.639 242.068 167.639 243.52C167.639 244.816 168.539 245.524 169.439 245.908L170.627 246.412C171.431 246.76 171.959 246.94 171.959 247.612C171.959 248.236 171.467 248.632 170.543 248.632C169.763 248.632 168.923 248.236 168.287 247.648L167.267 248.872C168.131 249.7 169.307 250.168 170.507 250.168ZM174.227 241.12L175.943 250H178.115L179.087 245.608C179.231 244.888 179.339 244.228 179.471 243.556H179.519C179.627 244.228 179.759 244.888 179.903 245.608L180.899 250H183.107L184.751 241.12H183.059L182.363 245.452C182.231 246.376 182.099 247.324 181.967 248.284H181.907C181.715 247.324 181.535 246.364 181.343 245.452L180.311 241.12H178.799L177.767 245.452C177.575 246.376 177.383 247.324 177.203 248.284H177.155C177.023 247.324 176.879 246.412 176.747 245.452L176.039 241.12H174.227ZM130.999 267H132.979L130.903 263.364C131.923 262.968 132.595 262.164 132.595 260.808C132.595 258.756 131.131 258.12 129.259 258.12H126.163V267H127.939V263.64H129.175L130.999 267ZM127.939 262.236V259.524H129.091C130.243 259.524 130.855 259.848 130.855 260.808C130.855 261.768 130.243 262.236 129.091 262.236H127.939ZM136.875 267.168C137.739 267.168 138.555 266.892 139.227 266.424L138.627 265.344C138.147 265.644 137.679 265.812 137.115 265.812C136.107 265.812 135.399 265.236 135.255 264.132H139.395C139.443 263.976 139.479 263.652 139.479 263.328C139.479 261.468 138.519 260.112 136.671 260.112C135.075 260.112 133.539 261.48 133.539 263.652C133.539 265.86 135.003 267.168 136.875 267.168ZM137.967 262.968H135.231C135.363 261.996 135.987 261.48 136.695 261.48C137.559 261.48 137.967 262.056 137.967 262.968ZM144.28 258.792L144.604 257.496C144.304 257.364 143.848 257.256 143.332 257.256C141.64 257.256 140.992 258.336 140.992 259.74V260.292L140.092 260.364V261.672H140.992V267H142.756V261.672H144.016V260.28H142.756V259.704C142.756 258.936 143.044 258.648 143.572 258.648C143.8 258.648 144.052 258.708 144.28 258.792ZM147.833 267.168C148.697 267.168 149.513 266.892 150.185 266.424L149.585 265.344C149.105 265.644 148.637 265.812 148.073 265.812C147.065 265.812 146.357 265.236 146.213 264.132H150.353C150.401 263.976 150.437 263.652 150.437 263.328C150.437 261.468 149.477 260.112 147.629 260.112C146.033 260.112 144.497 261.48 144.497 263.652C144.497 265.86 145.961 267.168 147.833 267.168ZM148.925 262.968H146.189C146.321 261.996 146.945 261.48 147.653 261.48C148.517 261.48 148.925 262.056 148.925 262.968ZM151.649 260.28V267H153.401V262.992C153.785 262.02 154.421 261.672 154.949 261.672C155.225 261.672 155.417 261.696 155.645 261.78L155.957 260.256C155.753 260.172 155.537 260.112 155.165 260.112C154.445 260.112 153.749 260.592 153.257 261.468H153.209L153.089 260.28H151.649ZM159.552 267.168C160.416 267.168 161.232 266.892 161.904 266.424L161.304 265.344C160.824 265.644 160.356 265.812 159.792 265.812C158.784 265.812 158.076 265.236 157.932 264.132H162.072C162.12 263.976 162.156 263.652 162.156 263.328C162.156 261.468 161.196 260.112 159.348 260.112C157.752 260.112 156.216 261.48 156.216 263.652C156.216 265.86 157.68 267.168 159.552 267.168ZM160.644 262.968H157.908C158.04 261.996 158.664 261.48 159.372 261.48C160.236 261.48 160.644 262.056 160.644 262.968ZM163.368 260.28V267H165.12V262.38C165.636 261.888 165.96 261.624 166.524 261.624C167.196 261.624 167.472 261.984 167.472 263.028V267H169.236V262.812C169.236 261.12 168.612 260.112 167.16 260.112C166.248 260.112 165.564 260.592 164.976 261.168H164.928L164.808 260.28H163.368ZM173.672 267.168C174.44 267.168 175.232 266.916 175.868 266.352L175.172 265.188C174.8 265.512 174.344 265.728 173.864 265.728C172.7 265.728 172.196 264.672 172.196 263.652C172.196 262.356 172.892 261.552 173.912 261.552C174.296 261.552 174.608 261.708 174.944 261.996L175.784 260.856C175.292 260.436 174.656 260.112 173.828 260.112C172.004 260.112 170.396 261.408 170.396 263.652C170.396 265.86 171.812 267.168 173.672 267.168ZM179.82 267.168C180.684 267.168 181.5 266.892 182.172 266.424L181.572 265.344C181.092 265.644 180.624 265.812 180.06 265.812C179.052 265.812 178.344 265.236 178.2 264.132H182.34C182.388 263.976 182.424 263.652 182.424 263.328C182.424 261.468 181.464 260.112 179.616 260.112C178.02 260.112 176.484 261.48 176.484 263.652C176.484 265.86 177.948 267.168 179.82 267.168ZM180.912 262.968H178.176C178.308 261.996 178.932 261.48 179.64 261.48C180.504 261.48 180.912 262.056 180.912 262.968Z" fill="black"/>
  <path d="M188.583 132.12V141H190.179V137.292C190.179 136.464 190.047 135.204 189.951 134.376H189.999L190.707 136.464L192.087 140.196H193.107L194.475 136.464L195.195 134.376H195.243C195.147 135.204 195.027 136.464 195.027 137.292V141H196.647V132.12H194.679L193.203 136.272C193.011 136.836 192.855 137.412 192.663 137.988H192.603C192.423 137.412 192.255 136.836 192.063 136.272L190.551 132.12H188.583ZM201.358 141.168C202.222 141.168 203.038 140.892 203.71 140.424L203.11 139.344C202.63 139.644 202.162 139.812 201.598 139.812C200.59 139.812 199.882 139.236 199.738 138.132H203.878C203.926 137.976 203.962 137.652 203.962 137.328C203.962 135.468 203.002 134.112 201.154 134.112C199.558 134.112 198.022 135.48 198.022 137.652C198.022 139.86 199.486 141.168 201.358 141.168ZM202.45 136.968H199.714C199.846 135.996 200.47 135.48 201.178 135.48C202.042 135.48 202.45 136.056 202.45 136.968ZM207.538 141.168C208.258 141.168 208.906 140.784 209.398 140.304H209.434L209.578 141H211.006V131.424H209.242V133.788L209.314 134.844C208.834 134.4 208.378 134.112 207.61 134.112C206.158 134.112 204.79 135.456 204.79 137.652C204.79 139.848 205.858 141.168 207.538 141.168ZM207.994 139.716C207.07 139.716 206.602 139.02 206.602 137.628C206.602 136.284 207.238 135.564 207.994 135.564C208.414 135.564 208.822 135.696 209.242 136.068V139.02C208.858 139.536 208.462 139.716 207.994 139.716ZM214.253 133.2V131.496H212.501V133.2H214.253ZM212.489 141H214.241V134.28H212.489V141ZM218.589 141.168C219.357 141.168 220.149 140.916 220.785 140.352L220.089 139.188C219.717 139.512 219.261 139.728 218.781 139.728C217.617 139.728 217.113 138.672 217.113 137.652C217.113 136.356 217.809 135.552 218.829 135.552C219.213 135.552 219.525 135.708 219.861 135.996L220.701 134.856C220.209 134.436 219.573 134.112 218.745 134.112C216.921 134.112 215.313 135.408 215.313 137.652C215.313 139.86 216.729 141.168 218.589 141.168ZM223.478 141.12C224.246 141.12 224.93 140.808 225.506 140.316H225.542L225.674 141H227.114V137.076C227.114 135.096 226.25 134.112 224.534 134.112C223.478 134.112 222.47 134.46 221.738 134.904L222.266 136.164C222.878 135.768 223.586 135.528 224.21 135.528C224.726 135.528 225.05 135.636 225.194 135.84C225.326 136.116 225.386 136.404 225.35 136.692C222.566 136.776 221.402 137.532 221.486 139.176C221.486 140.34 222.278 141.12 223.478 141.12ZM224.018 139.776C223.502 139.776 223.118 139.44 223.106 138.876C223.094 138.396 223.37 138.012 224.138 137.904C224.522 137.844 224.93 137.808 225.35 137.772V139.128C224.93 139.548 224.534 139.764 224.018 139.776ZM228.671 141H230.423V131.424H228.671V141ZM192.355 158.168C194.407 158.168 195.619 156.932 195.619 155.48C195.619 154.184 194.935 153.512 193.831 153.068L192.667 152.576C191.911 152.288 191.275 152.012 191.275 151.412C191.275 150.824 191.779 150.476 192.559 150.476C193.291 150.476 193.879 150.74 194.443 151.208L195.343 150.092C194.623 149.36 193.615 148.952 192.559 148.952C190.771 148.952 189.487 150.068 189.487 151.52C189.487 152.816 190.387 153.524 191.287 153.908L192.475 154.412C193.279 154.76 193.807 154.94 193.807 155.612C193.807 156.236 193.315 156.632 192.391 156.632C191.611 156.632 190.771 156.236 190.135 155.648L189.115 156.872C189.979 157.7 191.155 158.168 192.355 158.168ZM199.723 158.168C200.587 158.168 201.403 157.892 202.075 157.424L201.475 156.344C200.995 156.644 200.527 156.812 199.963 156.812C198.955 156.812 198.247 156.236 198.103 155.132H202.243C202.291 154.976 202.327 154.652 202.327 154.328C202.327 152.468 201.367 151.112 199.519 151.112C197.923 151.112 196.387 152.48 196.387 154.652C196.387 156.86 197.851 158.168 199.723 158.168ZM200.815 153.968H198.079C198.211 152.996 198.835 152.48 199.543 152.48C200.407 152.48 200.815 153.056 200.815 153.968ZM203.54 151.28V158H205.292V153.992C205.676 153.02 206.312 152.672 206.84 152.672C207.116 152.672 207.308 152.696 207.536 152.78L207.848 151.256C207.644 151.172 207.428 151.112 207.056 151.112C206.336 151.112 205.64 151.592 205.148 152.468H205.1L204.98 151.28H203.54ZM207.746 151.28L210.038 158H212.078L214.322 151.28H212.63L211.646 154.628C211.466 155.3 211.286 155.984 211.106 156.668H211.046C210.866 155.984 210.686 155.3 210.506 154.628L209.522 151.28H207.746ZM216.796 150.2V148.496H215.044V150.2H216.796ZM215.032 158H216.784V151.28H215.032V158ZM221.133 158.168C221.901 158.168 222.693 157.916 223.329 157.352L222.633 156.188C222.261 156.512 221.805 156.728 221.325 156.728C220.161 156.728 219.657 155.672 219.657 154.652C219.657 153.356 220.353 152.552 221.373 152.552C221.757 152.552 222.069 152.708 222.405 152.996L223.245 151.856C222.753 151.436 222.117 151.112 221.289 151.112C219.465 151.112 217.857 152.408 217.857 154.652C217.857 156.86 219.273 158.168 221.133 158.168ZM227.281 158.168C228.145 158.168 228.961 157.892 229.633 157.424L229.033 156.344C228.553 156.644 228.085 156.812 227.521 156.812C226.513 156.812 225.805 156.236 225.661 155.132H229.801C229.849 154.976 229.885 154.652 229.885 154.328C229.885 152.468 228.925 151.112 227.077 151.112C225.481 151.112 223.945 152.48 223.945 154.652C223.945 156.86 225.409 158.168 227.281 158.168ZM228.373 153.968H225.637C225.769 152.996 226.393 152.48 227.101 152.48C227.965 152.48 228.373 153.056 228.373 153.968Z" fill="black"/>
  <path d="M122.803 108.228C122.728 107.962 122.452 107.807 122.186 107.882L117.856 109.106C117.59 109.181 117.435 109.458 117.511 109.723C117.586 109.989 117.862 110.144 118.128 110.069L121.977 108.981L123.065 112.83C123.14 113.096 123.416 113.25 123.682 113.175C123.948 113.1 124.102 112.824 124.027 112.558L122.803 108.228ZM115.436 121.699L122.759 108.608L121.886 108.12L114.564 121.211L115.436 121.699Z" fill="black"/>
  <path d="M186.142 103.521C185.877 103.442 185.599 103.594 185.521 103.858L184.243 108.173C184.165 108.438 184.316 108.716 184.581 108.795C184.845 108.873 185.124 108.722 185.202 108.457L186.338 104.622L190.173 105.757C190.438 105.836 190.716 105.685 190.794 105.42C190.873 105.155 190.722 104.877 190.457 104.798L186.142 103.521ZM193.599 116.943L186.44 103.762L185.561 104.239L192.72 117.42L193.599 116.943Z" fill="black"/>
  <path d="M229.371 181.473C229.637 181.545 229.911 181.387 229.983 181.12L231.148 176.773C231.219 176.506 231.061 176.232 230.794 176.161C230.527 176.089 230.253 176.248 230.182 176.514L229.146 180.378L225.283 179.343C225.016 179.271 224.742 179.43 224.67 179.696C224.599 179.963 224.757 180.237 225.024 180.309L229.371 181.473ZM221.567 168.25L229.067 181.24L229.933 180.74L222.433 167.75L221.567 168.25Z" fill="black"/>
  <path d="M83.5864 181.853C83.6842 182.111 83.9728 182.241 84.231 182.144L88.4393 180.55C88.6975 180.452 88.8276 180.163 88.7298 179.905C88.6319 179.647 88.3433 179.517 88.0851 179.614L84.3444 181.031L82.9275 177.291C82.8297 177.032 82.5411 176.902 82.2829 177C82.0246 177.098 81.8946 177.387 81.9924 177.645L83.5864 181.853ZM89.76 167.795L83.5981 181.471L84.5098 181.881L90.6717 168.205L89.76 167.795Z" fill="black"/>
  <path d="M104.646 255.646C104.451 255.842 104.451 256.158 104.646 256.354L107.828 259.536C108.024 259.731 108.34 259.731 108.536 259.536C108.731 259.34 108.731 259.024 108.536 258.828L105.707 256L108.536 253.172C108.731 252.976 108.731 252.66 108.536 252.464C108.34 252.269 108.024 252.269 107.828 252.464L104.646 255.646ZM120 255.5L105 255.5L105 256.5L120 256.5L120 255.5Z" fill="black"/>
  <path d="M203.354 256.354C203.549 256.158 203.549 255.842 203.354 255.646L200.172 252.464C199.976 252.269 199.66 252.269 199.464 252.464C199.269 252.66 199.269 252.976 199.464 253.172L202.293 256L199.464 258.828C199.269 259.024 199.269 259.34 199.464 259.536C199.66 259.731 199.976 259.731 200.172 259.536L203.354 256.354ZM188 256.5L203 256.5L203 255.5L188 255.5L188 256.5Z" fill="black"/>
</svg>